<?xml version="1.0" encoding="utf-8"?>
<!-- Generator: Adobe Illustrator 16.0.0, SVG Export Plug-In . SVG Version: 6.00 Build 0)  -->
<!DOCTYPE svg PUBLIC "-//W3C//DTD SVG 1.1//EN" "http://www.w3.org/Graphics/SVG/1.1/DTD/svg11.dtd">
<svg version="1.1" id="Layer_1" xmlns="http://www.w3.org/2000/svg" xmlns:xlink="http://www.w3.org/1999/xlink" x="0px" y="0px"
	 width="150px" height="20px" viewBox="0 0 150 20" enable-background="new 0 0 150 20" xml:space="preserve">
<g>
	<path fill="#326FA0" d="M148.198,9.372c0.063-0.345-0.016-1.128-0.221-0.958l-0.091,1.336L148.198,9.372z"/>
	<path fill="#326FA0" d="M146.664,6.983c-0.221,0.654-0.457,1.799-0.24,3.007c0.188-1.281,0.272-0.752,0.469-2.285
		c0.206-0.164,0.39,0.409,0.376,0.901c0.06-0.342,0.343,0.275,0.42-0.562c-0.323-1.013-0.674-1.041-1.001-0.176
		C146.596,7.576,146.656,7.229,146.664,6.983z"/>
	<path fill="#326FA0" d="M125.841,5.845l0.141,0.154C125.939,5.912,125.894,5.866,125.841,5.845z"/>
	<path fill="#326FA0" d="M112.964,5.695c0.097-0.035,0.131-0.169,0.132-0.291C113.008,5.497,112.938,5.58,112.964,5.695z"/>
	<path fill="#326FA0" d="M110.704,4.33c0.052,0.041,0.089,0.056,0.136,0.084C110.783,4.293,110.73,4.23,110.704,4.33z"/>
	<path fill="#326FA0" d="M125.841,5.845l-0.362-0.402C125.473,5.877,125.669,5.757,125.841,5.845z"/>
	<path fill="#326FA0" d="M143.947,10.313c0.068-0.069,0.124-0.198,0.172-0.359c-0.058,0.059-0.111,0.112-0.169,0.148
		C143.951,10.174,143.95,10.234,143.947,10.313z"/>
	<path fill="#326FA0" d="M131.453,4.512l0.104-0.005c0.023-0.155,0.047-0.337,0.063-0.543L131.453,4.512z"/>
	<path fill="#326FA0" d="M135.789,4.112c-0.102-0.043-0.084,1.085-0.1,1.58c0.035-0.466,0.099-0.69,0.181-0.781
		C135.861,4.694,135.837,4.44,135.789,4.112z"/>
	<path fill="#326FA0" d="M142.771,5.788l0.113-0.162C142.854,5.675,142.804,5.727,142.771,5.788z"/>
	<path fill="#326FA0" d="M128.331,4.41c-0.013-0.169-0.035-0.314-0.056-0.4C128.282,4.15,128.304,4.286,128.331,4.41z"/>
	<path fill="#326FA0" d="M7.181,18.352c0-0.084-0.008-0.134-0.01-0.202C7.15,18.263,7.146,18.343,7.181,18.352z"/>
	<path fill="#326FA0" d="M1.893,12.992l0.067-0.063c-0.002-0.215-0.004-0.424-0.013-0.631L1.893,12.992z"/>
	<path fill="#326FA0" d="M106.627,3.066c0.009,0.013,0.01,0.013,0.019,0.02C106.745,2.955,106.687,2.978,106.627,3.066z"/>
	<path fill="#326FA0" d="M69.822,5.556C70.283,6.542,69.2,6.88,69.88,7.972C69.801,7.534,70.372,6.188,69.822,5.556z"/>
	<path fill="#326FA0" d="M143.829,10.167c-0.059,0.017-0.117,0.029-0.178,0.02C143.733,10.22,143.789,10.213,143.829,10.167z"/>
	<path fill="#326FA0" d="M69.879,7.969c0,0.003,0.001,0.01,0.001,0.01l0.069,0.103C69.922,8.038,69.904,8.009,69.879,7.969z"/>
	<path fill="#326FA0" d="M97.408,4.161c0.03,0.198,0.073,0.345,0.119,0.49C97.518,4.534,97.492,4.395,97.408,4.161z"/>
	<path fill="#326FA0" d="M104.371,5.454l-0.177-0.142C104.268,5.413,104.323,5.442,104.371,5.454z"/>
	<path fill="#326FA0" d="M93.906,5.911C93.808,5.83,93.77,5.675,93.65,5.832c0.015,0.055,0.026,0.098,0.045,0.136
		C93.735,5.813,93.792,5.737,93.906,5.911z"/>
	<path fill="#326FA0" d="M90.184,6.089c0.022,0.084,0.051,0.147,0.078,0.224c0.036-0.024,0.078-0.044,0.114-0.068L90.184,6.089z"/>
	<path fill="#326FA0" d="M18.469,17.296c-0.096-0.313-0.164-0.659-0.217-1C18.346,17.09,17.811,17.4,18.469,17.296z"/>
	<path fill="#326FA0" d="M143.916,9.678c-0.008,0.285-0.033,0.427-0.087,0.488c0.043-0.012,0.082-0.038,0.121-0.064
		C143.955,9.934,143.948,9.777,143.916,9.678z"/>
	<path fill="#326FA0" d="M94.153,14.813l-0.599-0.14C93.726,14.772,93.943,14.822,94.153,14.813z"/>
	<path fill="#326FA0" d="M45.17,15.932l-0.13,0.145C45.094,16.099,45.14,16.064,45.17,15.932z"/>
	<path fill="#326FA0" d="M91.807,14.918c-0.123-0.397-0.245-0.623-0.369-0.769c-0.019,0.092-0.043,0.164-0.054,0.295L91.807,14.918z
		"/>
	<path fill="#326FA0" d="M18.25,16.281c0.002,0.004,0.002,0.015,0.002,0.015S18.252,16.285,18.25,16.281z"/>
	<path fill="#326FA0" d="M14.475,19.133c0.565,0.009,0.198-1.464,0.28-2.318c0.654-0.451,0.361,1.077,0.623,1.823
		c0.404-0.41,0.664-1.783,0.98-1.739c0.033,0.242,0.098,0.325,0.042,0.635c0.39-1.198,1.314-0.115,1.766-1.619
		c0.044,0.131,0.07,0.253,0.084,0.367c-0.118-0.741-0.163-1.492-0.171-2.03c0.251-0.039,0.427-0.956,0.565,0.009
		c-0.156-0.022-0.15,0.371-0.21,0.679l0.247-0.438c0.3,1.383-0.34,0.498-0.294,1.527c0.497-0.473,1.046-1.652,1.459-1.277
		c0.144,1.357-0.904,0.498-0.322,1.685l-0.635-0.494c0.564,2.132-0.379-0.131,0.155,2.15c0.824,0.359,0.869-0.731,1.692-0.374
		c0.146-0.764-0.111-1.114,0.037-1.88c1.081-1.41,1.053,3.382,1.811,1.53c0.176-0.916,0.184-2.642,0.822-1.76l-0.135,1.548
		c0.788,0.116,0.345-2.236,1.209-1.233c-0.118,0.606-0.589,0.539-0.463,0.715c0.583,1.188,0.335-0.893,0.742-0.91l0.146,1.359
		c0.82-0.255,1.691-1.28,2.599-1.57c-0.032,0.412-0.171,0.844,0.063,1.25c1.129-0.733,2.483,0.054,3.639,0.815l0.374-1.196
		c0.1,0.005,0.209,0.521,0.112,0.755c0.456,0.43-0.012-0.75,0.177-1.216c0.245-0.095,0.358,0.665,0.217,1.021
		c0.724-1.034,2.095-2.251,2.961-1.025l-0.142,0.356c0.651,0.449,0.604-2.444,1.238-1.371l-0.103,0.215
		c1.393,0.446,2.858-0.7,3.984,1.03c0.123-1.702,1.39,0.695,1.373-1.672c0.833,1.138,0.629,1.566,1.766,2.305
		c0.299,0.096,0.371-1.497,0.724-1.759l0.065,1.233l0.435-1.32l0.331,1.466l0.326-0.333c-0.138-0.067-0.314-0.543-0.309-0.9
		c0.508-0.583,1.337,0.806,1.38,1.44l1.213-1.104c-0.005,0.497-0.208,0.682-0.361,1.006c0.617-1.294,0.181,1.299,0.745,0.114
		c-0.094-0.277,0.012-0.74,0.015-0.991c0.341,0.733,1.042,0.71,1.544,0.37l-0.062,0.856c0.946,0.178,1.954-0.499,3.005-0.526
		c-0.395-0.381-0.375-1.861-0.073-2.021l0.183,1.307c0.163-0.814-0.343-0.48,0.02-1.485c0.399,0.13,0.331,1.472,0.124,1.908
		l0.457-0.475c0.045,0.386-0.057,0.596-0.063,1.098c0.159-0.817,0.882,1.276,1.099-0.148l0.043,0.389
		c1.051-0.036,1.507-0.507,2.358-0.611c-0.034-1.128,0.312-0.896,0.525-1.816c0.645,0.33,1.381,1.186,2.134,1.057
		c0.506-0.588,0.111-0.962,0.321-1.642c0.086,1.021,0.836,0.893,0.478,1.646c0.901-0.203,1.151-0.258,2.263-1.143
		c-0.145-0.413-0.292-0.589-0.236-0.944c0.201-0.181,0.493,0.409,0.485,0.906l-0.05,0.105c1.22-1.597,3.11,2.86,4.042,0.675
		l-0.053,0.11l1.012-1.167c0.499,0.152-0.257,0.791,0.133,1.404c1.071-1.764,1.827,0.17,2.72-1.015
		c0.868,2.998,2.589-0.327,3.664,1.564l-0.088-0.713c0.223-0.711,0.328,0.396,0.523,0.553c-0.051-0.557-0.306-0.633-0.164-1.023
		c2.125-0.959,4.514,0.837,6.76,1.386c0.82,0.152,0.294-3.715,1.393-2.057l-0.23,1.336c1.568-1.665,3.352-0.095,4.894-1.516
		c-0.083,0.31-0.068,0.707-0.224,0.709c0.383,0.948,1.255-0.011,1.226-0.796c0.251,0.077,0.089,0.705,0.262,1.103
		c0.363,0.552,0.796-1.269,1.018-0.319c0.039,0.155-0.079,0.313-0.138,0.394c0.199-0.479,1.035,0.071,0.772-1.03
		c0.626,0.501,1.129-0.543,1.639,0.087c0.257-1.252,1.055,0.549,1.077-1.206c0.039,1.814,1.121,1.414,1.464,0.546
		c-0.103,0.551,0.355,0.552,0.242,1.318c0.432-0.052,0.816-0.404,0.697-1.331c0.897,2.131,1.528-1.818,2.104,0.94
		c1.245-1.035,2.409-1.743,3.551-2.223c0.039,1.813-1.274,0.237-1.14,2.135c1.068-0.793,1.633-2.373,2.742-1.988
		c0.294,0.234-0.124,0.796-0.205,1.109c1.066-0.801,2.133,0.065,3.067-0.961c0.003,0.168-0.094,0.359-0.188,0.495
		c0.189-0.066,0.461,0.246,0.402-0.572l-0.179,0.231c-0.362-1.187,0.654-2.529,0.661-3.16c-0.223,2.366,0.993,0.549,0.605,3.546
		c0.12-0.157,0.263-0.556,0.208-1.104c0.196,0.15,0.27,0.468,0.108,1.103c0.669-0.478,0.384-1.337,1.011-1.352
		c0.016,0.396-0.104,0.562-0.146,1.031c0.282-0.796,0.565-1.585,1.108-1.269c-0.021,0.243,0.055,0.549-0.104,0.553
		c0.902-0.166,1.455-2.137,2.485-1.434c-0.216,1.739,0.364,0.556,0.484,2.05l0.515-0.474l-0.247-0.714
		c0.471,0.003,0.837-1.105,1.263-0.631l-0.321,0.629l0.866-0.32l-0.524-0.543c0.441-0.794-0.137-1.895,0.507-1.505
		c-0.12,0.157,0.472-0.002,0.755,0.868c0,0-0.002,0-0.002,0.005c0.212-0.487,0.428-1,0.792-0.642
		c0.112,0.473,0.001,1.657,0.073,1.971c0.172-1.262,1.084-0.396,1.314-1.74c-0.084,0.32-0.053,1.103-0.014,1.261l0.146-1.025
		c0.231,0.315,0.271,0.471,0.266,1.101c0.66,0.154-0.295-1.89,0.518-1.106c-0.058,0.082-0.021,0.235-0.14,0.396
		c0.798,0.394,1.478-0.715,2.213-0.248c0.281,1.495-0.606,0.397-0.308,1.657c1.018-0.321,2.056-1.898,3.07-1.591l-0.193-0.159
		c0.044-2.129,0.79,1.018,1.252-0.005c-0.117,0.164-0.109,1.186-0.088,0.946c0.699,0.314,1.376-0.579,2.383-1.294l-0.103,0.552
		c0.425,0.465,1.073,0.228,1.52,0.458c0.106-0.553,0.359-0.474,0.172-1.266c1.485,3.054,2.486-1.78,3.795,0.763
		c-0.143,0.009-0.317,0.489-0.205,0.483l0.994-0.546c-0.123-0.925-0.159-0.556-0.404-1.265c0.104-0.558,0.371-0.994,0.622-1.005
		c-0.429,0.632,0.071,1.489,0.292,1.997c-0.047-0.284,0.006-0.601-0.022-0.887c0.604,1.623,0.004-1.87,0.779-0.791l-0.017,0.488
		c0.259-0.259,0.479-0.915,0.778-0.789c0.169,1.069-0.265,0.515-0.245,1.396c0.407-0.082,0.718-2.067,1.138-1.016
		c-0.161,0.307-0.411,0.326-0.574,0.628c0.462,1.242,0.494,0.919,0.806,1.107l-0.031-0.03l0.72,0.537l-0.193-0.334
		c0.39-2.815,1.024-0.557,1.634-2.416c-0.596,1.765-0.066,1.006-0.063,2.224c0.19,0.327,0.476,0.696,0.416,1.036
		c0.281-0.993,0.579,0.749,0.977-0.705c0.039,0.389,0.353,0.024,0.322,1.007c0.411-0.324-0.133-0.676-0.117-1.169
		c0.595-1.362,1.613,1.552,2.473-0.325c0.779-0.789,0.869-2.117,1.595-2.805c0.282,0.612-0.146,1.432-0.146,1.432
		c0.438,0.561,0.742,0.438,1.107-0.028c-0.063,0.345,0.031,0.631,0.169,1.064c0.307-0.116,0.143-1.434,0.577-0.875
		c-0.049,0.44-0.107,1.14-0.239,1.583c0.35-0.375,0.68-1.121,1.042-1.49c0.132,0.679-0.182,1.042-0.295,1.496
		c0.412-0.324,1.075-0.669,1.157-1.752l-0.29-0.371c0.153-0.063,0.121,0.92,0.017,1.122c-0.326,0.863-0.543-0.348-0.583-0.738
		l0.261-0.264c-0.38-2.282-1.069,0.417-1.617,0.308l0.151-1.678l-0.493,1.405c-0.14-0.428-0.262-1.356-0.005-1.614
		c-0.428-0.81-0.318,0.607-0.696-0.298c-0.043-0.142-0.028-0.221,0.003-0.29l-0.359,0.512c0.059-0.353-0.116-1.173,0.129-0.945
		c-0.726-0.931-1.046,1.303-1.358,0.049l0.052-0.105c-0.921,0.607-0.036,1.229-0.683,2.697l-0.613-3.001l-0.039,1.233
		c-0.101-0.041-0.297-0.125-0.282-0.616c-0.328,0.855,0.085,0.528-0.091,1.329c-0.52-1.095-1.274,0.58-1.467-1.366
		c-0.128,0.941,0.483,0.702,0.01,1.368c-0.238-2.092-0.565,0.387-1.039-0.557c0.085-1.092,0.518-0.533,0.044-1.482
		c-0.178,1.841-0.855-0.362-1.203,0.004c0.049,1.457-0.762,0.643-1.345,1.156c0.016-0.49-1.182-0.747-1.772-1.25l0.006-0.246
		c-0.043,1.476-0.64,1.226-1.05,1.55c-0.024-0.886,0.038-1.232,0.25-1.638l-0.399,0.025c-0.072,0.475-0.186,0.731-0.438,0.911
		l0.051-1.105c-0.528,0.083-1.01,1.346-1.729,0.64c0.008,1.026,0.673,2.835-0.02,3.552C129.37,7.95,129.3,7,129.479,6.765
		c-0.06,0.073-0.201,0.474-0.337,0.237l0.246-0.944c-0.33-0.397-0.127,0.785-0.379,0.711c-0.03-0.792-0.211-0.559-0.202-1.188
		c0.061-0.078,0.232,0.317,0.313,0.001c-0.287-0.128-0.648-0.581-0.787-1.177c0.045,0.451,0.048,1.064-0.152,1.18
		c-0.53,0.079-0.227-0.945-0.554-1.339c-0.104,0.557-0.47,0-0.426,1.186c-0.156,0.002-0.209-0.552-0.282-0.869
		c-0.252,0.536-1.279,0.207-0.914,1.455l0.074,0.081c-0.012,0.022-0.026,0.026-0.042,0.051c0.003,0,0,0,0.003,0l-0.003,0
		c-0.85,1.22-1.904-0.586-2.775-0.039l-0.017-0.396c-0.514,0.477-1.178,0.32-1.521,1.189c-0.157,0.007-0.405-0.71-0.36-1.182
		c-0.395,0.316-0.419,0.764-1.039,0.139c0.379-0.711-0.169-0.607,0.397-0.529c-0.546-0.318-0.695-0.947-1.216,0.161
		c0.147-1.021-0.456-1.257-0.694-0.942l0.403,0.709c-0.278,0.162-0.527,0.082-0.785,0.007l0.077-1.341
		c-1.159-1.575-1.836,2.849-2.783,0.173c-0.245,0.945,0.619,0.628,0.411,1.731c-0.507-0.157-1.113-2.05-1.271-2.046
		c-0.718-0.707-0.551,1.979-1.289,1.508c0.114,0.468,0.258,1.738-0.258,2.208c-0.508-0.154-0.703-1.969-0.405-2.363
		c0.116-0.046,0.182,0.103,0.185,0.264c0.152-0.18,0.356-0.394,0.134-0.9l-0.041,0.477c-0.269-0.472-0.955-0.391-0.829-1.179
		c-0.357,0.471-0.126,0.788,0.165,1.023c-0.673-0.663-1.004,0.024-1.684-0.41c0.115,0.258,0.238,0.811,0.135,0.813
		c-0.995-0.546-0.386,0.921-1.034,1.16c-0.404-0.709,0.057-1.74-0.576-1.1c-0.425-0.477-0.143-1.261,0-1.657
		c-0.561,0.948-1.15-0.55-1.502-0.704l0.299-0.398c-0.178,0.238-0.334,0.24-0.494,0.241l0.227,0.943
		c-0.195-0.157-0.354-0.155-0.365-0.55c-0.165,0.631,0.217,1.575-0.125,2.446c-0.271-0.474-0.731,0.551-0.876-0.705
		c0.8,0.39-0.143-1.263,0.509-1.498c-0.121,0.154-0.275,0.16-0.471-0.001c-0.034-0.14,0.014-0.263,0.063-0.337
		c-0.797-1.094-0.279,1.443-1.055,1.449c0.068-0.718-0.24-1.343-0.358-1.186c0.311,0.001,0.202,1.18-0.059,1.74
		c-0.521-0.532-0.521,0.437-0.785,0.383l0.31,0.249c-0.069,0.715-0.32,0.637-0.657,0.874c-0.054-0.555,0.296-0.398,0.162-0.636
		c-0.328,1.272-0.926-1.257-1.422-0.388c-0.271-0.474-0.086-1.336-0.318-1.655c-0.559,0.949-0.692-0.946-1.288-0.155
		c0.225,0.95,0.245,0.713-0.156,1.667l1.007-0.723l-0.604,1.424c0.313-0.001,0.633-0.632,0.828-0.477
		c-0.281,0.795-0.259,0.554-0.073,1.345c-0.493-1.418-0.812,0.872-1.352-0.074l-0.09-2.369c-0.793-1.022-1.268,1.274-2.261,0.723
		l0.329,0.399c-0.088,0.948-0.591,0.16-0.887,0.555c-0.006-0.793-0.215-1.071-0.37-1.559c0.043,0.587-0.709-0.021-0.727,1.563
		l-0.479-1.026c-0.798-0.391-0.789,2.297-1.551,2.062c0.187-0.873-0.179-1.417,0.296-2.056c-0.25,0.004-0.482-0.132-0.461,0.417
		c-0.17-0.486-0.647,1.1-0.912,0.356c-0.089,0.353-0.086,1.185-0.37,1.13c-0.038-0.16-0.018-0.393-0.018-0.393
		c0.018,0.393-0.416,0.551-0.13,1.418c-0.881-2.435-2.147,0.273-2.915-1.816c-0.535,0.29-1.182,0.574-1.675,0.654
		c0.021-0.237-0.017-0.394,0.082-0.317c-0.719-0.704-0.319,2.292-1.135,1.506c-0.456-1.263,0.382-0.713,0.112-1.186
		c-0.224-2.6-0.923,0.398-1.518-1.098l0.122-0.16c-0.44-0.866-0.933,1.032-1.597,0.872c0,0,0.021-0.23-0.013-0.39
		c-0.389,1.347-1.217,1.823-1.83,2.223c0.15-1.029,0.262-0.55,0.097-1.583c-0.274,0.163,0.157,1.662-0.393,1.979
		c-0.209-0.552-0.637-1.02-0.74-2.124l0.528-0.083c-0.338-1.42-0.686,0.077-0.979-0.158l0.01-0.627
		c-0.806,0.241-0.747,1.816-1.627,1.74l0.111,0.469c-0.408,1.581-0.44-0.859-0.865,0.321l-0.217-1.57
		c-0.3,0.394-1.036,1.579-1.591,1.905c0.268-1.19,0.901-1.819,1.282-2.533c-0.313,0.002-1.057,0.164-1.188,0.953
		c0.122-0.16,0.262-0.556,0.397-0.316c-0.329,1.262-0.805,1.897-1.43,1.897c-0.027-3.073-1.66-0.698-2.221-3.061
		c-1.052,1.187-2.208-0.385-3.485-0.146c0.564,2.367-0.373,0.083-0.184,2.53c-0.292,0.172-0.408,0.137-0.441-0.02l-0.972-1.428
		c-0.248-0.703,0.26-0.552,0.208-1.102c-0.665-0.161-0.322-1.029-0.784-1.661c0.127,0.874-0.172,1.269-0.56,0.951l0.576,1.107
		c-0.857,1.346-0.884-2.021-1.749-0.687l0.257-0.785c-0.453,0.476-1.748,0.064-2.124,2.052c-0.096-0.278-0.236-0.946-0.037-1.131
		c-1.145-0.245-2.425,2.209-3.358,1.038l0.058-0.604c-0.203,0.184-0.317,1.143-0.608,0.552c0.003-0.247,0.059-0.603-0.041-0.632
		c-0.103,0.212-0.515,1.076-0.809,0.739l0.208-0.684c-1.139-0.736-1.62,1.719-2.527,2.171c-0.078-1.764-0.972-2.302-1.417-2.566
		l0.002-0.25c-1.295-0.159-2.118,1.562-3.276,2.305c-0.825-1.881-2.54-0.688-3.776-1.708c0.196,0.311,0.033,1.375-0.171,1.562
		c-0.295-0.346-0.715,1.259-0.745-0.36l0.102,0.027c-0.281-1.577-0.834-1.129-1.284-1.151l0.02,2.119
		c-1.307-3.025-3.014,1.271-3.776-1.46c-0.26,0.54-0.609,0.55-0.866,1.094l-0.036-1.136c-0.795-0.255-1.192-0.384-2.146-0.065
		l0.161-0.823c-0.548-0.047-0.54,3.304-1.041,3.396L39.14,7.177c-0.95,0.067-1.981-1.378-2.85,0.204
		c0.005-0.253,0.01-0.743,0.161-0.815c-0.45-0.025-1.784-1.072-1.516,1.249c-0.08-1.517-0.988-0.104-1.472,0.586l0.029-1.122
		c-0.369,1.448-0.366,1.838-0.954,2.262c-0.15-0.14-0.166-0.889,0.038-0.613c-0.504-0.563-0.325,1.076-0.932,0.506l0.185-0.721
		c-0.497-0.064-0.439,0.317-0.673,1.161c-0.289,0.465-0.946-0.241-1.064-1.247c-0.039,0.618-0.271,1.455-0.574,1.175
		c-0.056-0.378,0.038-0.621,0.087-0.74c-0.857-0.721-1.166,1.355-1.78,0.282c-0.029-0.37-0.074-0.551-0.127-0.664
		c0.656-0.001,1.185,0.039,1.139,0.122c-0.046-1.031-0.582-1.188-0.226-2.629c-0.389,0.795-1.039,2.515-1.575,2.055
		c-0.029-0.1-0.059-0.196-0.083-0.352l0.047-0.119c-0.123-0.105-0.226-0.007-0.316,0.173C26.51,7.767,26.4,7.648,26.241,7.637
		c-0.099-0.846-0.625-0.43-0.89-0.458c0.072,1.124-0.28,0.958,0.084,1.877c-0.045-0.08,0.044-0.139,0.217-0.192
		c0.038-0.033,0.083-0.054,0.107-0.121c-0.004,0.031-0.009,0.065-0.014,0.102c0.171-0.041,0.396-0.076,0.651-0.105
		c-0.182,0.583-0.378,1.076-0.698,0.461c-0.102,0.731-0.217,1.482-0.285,1.835c-0.431-1.556-1.164-2.374-1.304-3.339
		c-0.776,0.668-1.875,0.503-2.284,2.644c-0.217,0.281-0.291-0.595-0.391-0.923c0.122-0.22,0.281-0.194,0.338-0.502
		c-0.433,0.564-1.344,0.272-1.388,1.755c-0.606-0.644,0.263-1.377-0.518-1.096l0.086-0.461c-1.664-2.294-2.361,3.89-4.224,0.935
		c0.129,0.182,0.191,0.264,0.228,0.51c-2.028-1.249-3.999,1.438-6.037-0.594c-0.57-0.401-0.588,0.543-0.893,1.277l-0.175-1.207
		l-0.514,1.419c-0.771,1.06-1.548-2.91-2.494-0.926l0.169,0.808C5.636,11.2,4.859,11.87,4.879,10.933
		c-0.031,0.15-0.084,0.849-0.248,0.433l-0.041-0.633l-0.863,1.124C3,11.431,3.726,9.337,2.688,9.263
		c-0.373,0.263-1.009,1.892-0.845,2.311c0.155,0.026,0.412,0.377,0.452,1.013l-0.336,0.343c0.02,1.869-0.164,3.79,0.756,5.058
		l0.548-1.165l0.235,0.897l-0.503,0.076c0.325,0.838,0.472,0.075,0.653-0.448c0.069,0.475,0.168,0.808,0.296,0.985l0.509-1.813
		c0.104,0.729-0.2,1.46,0.214,1.846c0.239-0.839-0.338-1.623,0.095-2.188c0.324,0.836,0.273,1.531,0.577,0.792
		c0.068,0.477,0.01,0.789-0.113,1.006c0.275-0.593,0.783-0.285,0.893-1.282c0.346,1.033,1-0.315,1.051,1.451
		c0.074-0.426,0.466-1.41,0.737-1.497c-0.407,2.14,1.038,0.077,1.007,2.353c0.287-1.92,1.307-0.905,1.919-1.99
		c-0.03,0.153-0.088,0.464-0.151,0.365c0.38,0.146,0.511,0.713,0.767,1.061c-0.022-1.571,0.538-1.957,0.807-2.939
		c0.523,1.497-0.193,1.854,0.015,3.311c-0.08-1.272,0.734-1.309,0.533-2.364c0.39,0.924,0.32,0.443,0.558,1.734
		c-0.027-1.966,0.309-0.346,0.543-1.562c0.548,0.945,0.213,1.832,0.739,1.209C14.936,18.416,14.475,19.133,14.475,19.133z
		 M27.485,15.144c0,0.011,0.001,0.021,0.001,0.023c-0.112,0.027-0.208,0.056-0.269,0.074C27.272,15.223,27.351,15.195,27.485,15.144
		z M28.59,15.075c-0.137-0.038-0.304-0.037-0.481-0.023c-0.056-0.386-0.033-0.785,0.08-0.772
		C28.14,14.542,28.411,14.753,28.59,15.075z M25.899,7.371c0.168-0.17,0.236,0.05,0.271,0.281c-0.082,0.023-0.176,0.063-0.3,0.148
		c-0.001,0.043-0.011,0.093-0.013,0.138C25.863,7.724,25.873,7.523,25.899,7.371z"/>
	<path fill="#326FA0" d="M25.651,8.861c-0.024,0.027-0.037,0.076-0.068,0.087c0.04,0.099,0.078,0.18,0.115,0.25
		c0.017-0.12,0.033-0.241,0.047-0.356C25.713,8.85,25.681,8.852,25.651,8.861z"/>
	<path fill="#326FA0" d="M126.006,6.022l-0.024-0.027c0.021,0.044,0.043,0.089,0.057,0.156l0,0
		C126.019,6.101,126.018,6.065,126.006,6.022z"/>
	<polygon fill="#326FA0" points="43.963,16.543 43.948,16.26 43.864,16.515 	"/>
	<path fill="#326FA0" d="M132.271,9.619c0.017,0.098,0.044,0.198,0.093,0.28C132.359,9.828,132.318,9.725,132.271,9.619z"/>
	<path fill="#326FA0" d="M134.916,9.75l0.39,0.386C135.135,9.911,135.013,9.813,134.916,9.75z"/>
	<path fill="#326FA0" d="M136.965,10.218c0.015-0.202,0.016-0.354,0.018-0.485c-0.003-0.002-0.003-0.002-0.005-0.008L136.965,10.218
		z"/>
	<path fill="#326FA0" d="M104.851,12.988c-0.027,0.009-0.053,0.024-0.076,0.055C104.601,13.271,104.722,13.18,104.851,12.988z"/>
	<path fill="#326FA0" d="M114.306,9.926c-0.093,0.207-0.183,0.413-0.283,0.546C114.197,10.551,114.33,10.566,114.306,9.926z"/>
	<path fill="#326FA0" d="M94.219,14.829c0.002-0.009-0.001-0.013,0.001-0.02c-0.022,0.003-0.043,0.003-0.066,0.003L94.219,14.829z"
		/>
	<path fill="#326FA0" d="M113.575,10.472c0.183,0.218,0.321,0.163,0.447,0C113.879,10.405,113.71,10.294,113.575,10.472z"/>
	<path fill="#326FA0" d="M145.756,10.336l0.101,0.041c-0.004-0.072-0.001-0.134,0.006-0.18L145.756,10.336z"/>
	<path fill="#326FA0" d="M145.859,10.194l0.101-0.139C145.912,10.057,145.871,10.071,145.859,10.194z"/>
	<path fill="#326FA0" d="M146.178,9.765l-0.218,0.29C146.041,10.057,146.14,10.087,146.178,9.765z"/>
	<path fill="#326FA0" d="M143.055,9.935l-0.011,0.41C143.056,10.256,143.06,10.128,143.055,9.935z"/>
	<path fill="#326FA0" d="M142.246,10.09c0.199,0.084,0.527,0.849,0.786,0.58l0.012-0.325C142.943,10.955,142.4,9.392,142.246,10.09z
		"/>
	<path fill="#326FA0" d="M138.622,5.189l0.696,0.296c-0.14-0.427-0.322-1.01-0.018-1.127C138.383,3.097,139.522,5.323,138.622,5.189
		z"/>
	<path fill="#326FA0" d="M136.477,4.653c0.357-0.219-0.03-0.629-0.023-0.878C136.238,4.181,136.187,4.284,136.477,4.653z"/>
	<path fill="#326FA0" d="M121.192,5.338l-0.009-1.028C120.907,4.47,121.199,4.709,121.192,5.338z"/>
	<polygon fill="#326FA0" points="118.508,10.769 118.813,11.396 118.901,10.449 	"/>
	<polygon fill="#326FA0" points="116.454,3.542 116.571,3.39 116.117,3.783 	"/>
	<path fill="#326FA0" d="M90.801,5.059l0.141,1.261C91.124,6.084,91.099,4.664,90.801,5.059z"/>
	<path fill="#326FA0" d="M79.776,6.845c-0.15-0.626-0.479-1.019-0.644-0.39C79.385,6.532,79.655,7.012,79.776,6.845z"/>
	<polygon fill="#326FA0" points="46.446,6.282 46.651,5.849 46.245,6.221 	"/>
</g>
</svg>
