<?xml version="1.0" encoding="utf-8"?>
<!-- Generator: Adobe Illustrator 16.0.0, SVG Export Plug-In . SVG Version: 6.00 Build 0)  -->
<!DOCTYPE svg PUBLIC "-//W3C//DTD SVG 1.1//EN" "http://www.w3.org/Graphics/SVG/1.1/DTD/svg11.dtd">
<svg version="1.1" id="Layer_1" xmlns="http://www.w3.org/2000/svg" xmlns:xlink="http://www.w3.org/1999/xlink" x="0px" y="0px"
	 width="600px" height="100px" viewBox="0 0 600 100" enable-background="new 0 0 600 100" xml:space="preserve">
<path d="M286.595,80.757L286.595,80.757v0.029V80.757z M91.458,82.288c0.143-0.566,0.652-0.766,0.539-1.615
	c-2.324-0.256-2.098-3.09-3.486-4.309c-0.709-0.34-2.07-0.057-2.41-0.793c-0.255-1.049,0.17-3.545,0-5.387
	c-2.891-4.252-4.961-9.354-7.483-14.004c-0.425-0.48-1.587-0.227-1.616-1.076c0.029-1.531-0.765-2.268-0.538-4.025
	c-2.552-1.305-3.231-4.479-5.612-5.953c0.368-1.898-1.814-2.75-2.41-4.309c-0.227-0.596,0.113-1.531,0-2.154
	c-0.34-1.729-1.928-2.891-2.154-4.564c-1.644-0.623-2.891-1.02-3.203-2.947c-0.113-0.822,0.482-1.842,0.283-2.693
	c-0.396-1.729-2.636-3.033-3.486-5.131c-0.17-0.396,0.113-0.992,0-1.615c-0.368-1.842-1.587-2.637,0-4.025
	c-2.012-2.211-3.799-4.619-4.535-8.078c-1.559-0.908-2.721-2.154-2.693-4.592c-1.275-1.332-2.295-2.607-3.741-3.486
	c-3.571-2.184-6.831,0.764-9.099,2.408c-2.127,1.559-5.217,2.58-5.357,4.592c3.514,0,4.705,3.09,4.279,6.463
	c-0.34,2.807-3.117,5.16-2.409,7.002c-4.337,3.146-4.054,10.971-7.483,15.08c-0.822,0.256,0.766,0.256,0.539,0.795
	c-0.397,0.424-1.39,0.227-1.333,1.076c-0.651,1.502-1.049,3.26-2.154,4.309c-0.085,0.652,1.22-0.141,0.822,0.822
	c-0.454,1.588-2.692,1.984-1.871,4.025c-1.899,0.822-2.749,3.146-4.024,4.592c-0.652,0.738-2.041,1.078-2.665,1.871
	c-0.511,0.652-0.511,1.928-1.077,2.977c-0.596,1.049-1.389,1.588-1.615,2.41c-0.256,1.076,0.17,2.268,0,3.23
	c-0.454,3.09-2.184,4.877-4.281,6.746v2.41c-0.368,0.596-1.417,0.539-1.587,1.361c-2.665,3.486-5.329,7.029-7.229,11.281
	c0.992,0.17,1.077,1.275,1.871,1.615c3.089,0,4.507,0.482,6.435,0c2.438-0.596,2.239-0.367,3.742-1.871
	c0.538-0.566,1.445-1.105,1.87-1.615c1.673-2.012,1.644-4.053,2.665-6.463c0.396-0.906,1.275-1.389,1.615-2.154
	c0.681-1.559,0.681-3.686,1.615-5.102c0.625-0.992,1.446-1.418,2.382-2.154c0.341-0.965,0.255-2.184,0.822-2.977
	c1.474-2.098,7.54-3.629,10.687-3.771c0.936-0.227,1.162-1.162,2.409-1.076c2.041,1.502,5.414,1.219,8.845,0.822
	c4.932-0.566,9.779-1.957,14.711-1.078c0.624-4.393,0.086-5.953-2.947-7.002c-2.184-0.764-3.516,0.568-5.613,0.795
	c-0.623,0.084-1.474-0.256-2.154-0.256c-3.033-0.027-4.932,1.617-6.689,0c-3.316,0.199-10.488,2.184-12.02-0.822
	c1.135-3.174,2.495-7.766,3.998-10.488c0.538-0.963,1.445-1.898,1.87-2.977c0.284-0.65,0.057-1.672,0.284-2.408
	c0.51-1.729,2.041-3.459,2.947-5.131c1.077-2.014,2.324-3.912,2.92-5.387c0.539-1.275,0.198-2.721,1.36-2.947
	c1.39-0.283,2.92,2.721,3.458,3.77c1.049,1.928,1.503,3.402,2.154,5.104c1.39-0.113,2.863,1.02,2.949,1.898
	c0.17,1.928,0.68,5.074,1.87,7.002c0.481,0.822,1.417,1.219,1.871,1.871c1.105,1.672,1.247,3.23,2.126,4.848
	c0.906,0,1.417,0.367,1.871,0.82c0.595,0.652,0.595,1.928,0.538,3.232c2.353,1.785,3.005,4.564,4.28,7.256
	c0.596,1.277,1.475,2.467,2.154,3.771c1.162,2.295,2.098,4.932,3.203,7.285c1.191,2.521,2.297,4.875,3.486,7.256
	c0.681,0.313,1.275,0.68,1.588,1.361v1.871c1.134,1.643,2.438,3.514,3.203,5.668c0.17,0.453-0.142,1.078,0,1.617
	c0.623,2.295,2.892,3.967,3.486,5.924c0.482,1.559-0.142,3.23,0.794,4.563c3.345,0.229,5.499-1.105,8.306,0
	c0.283-2.039,3.939-4.053,4.28-5.641c0.283-1.389-0.794-2.012-0.794-3.77C94.179,87.106,93.953,83.536,91.458,82.288z
	 M285.859,78.688c-0.396-0.566-0.851-1.105-1.332-1.672c-0.454-0.596-0.908-1.191-1.219-1.787c-0.511-0.906-0.879-1.729-1.333-2.438
	c-0.227-0.367-0.481-0.709-0.794-1.02c-0.227-0.227-0.481-0.453-0.793-0.652c0.027-0.029,0.027-0.057,0.027-0.113
	c0.029-0.057,0.086-0.17,0.143-0.34c0.085-0.199,0.17-0.453,0.142-0.738v-0.027v-0.396l-0.341-0.17
	c-0.453-0.256-0.879-0.369-1.246-0.512c-0.171-0.057-0.313-0.113-0.454-0.197c0,0-0.028-0.029-0.057-0.029c0-0.084,0-0.17,0-0.254
	c0-0.398-0.057-0.738-0.113-1.021c-0.058-0.311-0.142-0.566-0.198-0.793l-0.029-0.17l-0.113-0.113
	c-0.312-0.342-0.68-0.568-1.02-0.766c-0.567-0.256-1.135-0.426-1.56-0.652c-0.198-0.113-0.368-0.227-0.511-0.369
	c-0.113-0.113-0.197-0.254-0.283-0.424c-0.028-0.143-0.057-0.285-0.057-0.455c0-0.311,0.086-0.707,0.17-1.162
	c0.113-0.424,0.227-0.906,0.227-1.416c0-0.113,0-0.199-0.027-0.313c-0.029-0.482-0.143-0.879-0.283-1.219
	c-0.199-0.51-0.482-0.879-0.682-1.162c-0.113-0.143-0.197-0.256-0.254-0.369s-0.113-0.227-0.143-0.311v-0.029
	c0-0.084,0.029-0.199,0.057-0.34c0-0.143,0.029-0.313,0.029-0.51c0-0.17-0.029-0.369-0.114-0.596
	c-0.142-0.256-0.312-0.396-0.453-0.51c-0.228-0.143-0.425-0.227-0.538-0.283c-0.057-0.029-0.086-0.059-0.114-0.059
	c-0.028-0.084-0.085-0.17-0.113-0.311c-0.057-0.199-0.113-0.453-0.17-0.738c-0.028-0.113-0.057-0.254-0.085-0.367
	s-0.057-0.227-0.113-0.34c-0.227-0.682-0.396-1.191-0.51-1.814v-0.029l-0.029-0.057c-0.057-0.197-0.198-0.367-0.34-0.453
	c-0.113-0.086-0.256-0.143-0.34-0.17c-0.199-0.057-0.369-0.057-0.482-0.057c-0.085,0-0.17,0-0.227,0
	c-0.142-0.426-0.34-0.822-0.566-1.162c-0.397-0.539-0.879-0.992-1.305-1.389c-0.368-0.369-0.709-0.709-0.964-1.078v-1.701
	l-0.255-0.197c-0.482-0.426-0.992-0.738-1.389-1.049c-0.199-0.17-0.369-0.313-0.482-0.482c-0.142-0.17-0.255-0.369-0.312-0.566
	c-0.028-0.086-0.028-0.113-0.028-0.143c0,0,0.028-0.027,0.057-0.057c0.057-0.057,0.17-0.141,0.313-0.34
	c0.057-0.084,0.113-0.199,0.17-0.34c0.027-0.113,0.057-0.256,0.057-0.396c0-0.086,0-0.17-0.029-0.256l-0.057-0.453l-0.425-0.113
	c-0.142-0.029-0.255-0.086-0.341-0.143c-0.084-0.084-0.17-0.17-0.254-0.283c-0.143-0.197-0.284-0.482-0.397-0.85
	c-0.17-0.539-0.312-1.191-0.538-1.871c-0.256-0.68-0.539-1.389-1.078-2.014c-0.34-0.396-0.708-0.65-1.049-0.85
	c-0.283-0.17-0.538-0.283-0.736-0.396c-0.34-0.17-0.596-0.313-0.737-0.453c-0.085-0.086-0.113-0.143-0.17-0.256
	c-0.028-0.086-0.085-0.199-0.085-0.369c0-0.057-0.028-0.141-0.028-0.197c0-0.143,0.028-0.283,0.057-0.396
	c0.057-0.199,0.142-0.398,0.283-0.625c0.114-0.227,0.284-0.51,0.425-0.85l0.199-0.453l-0.34-0.313
	c-0.341-0.34-0.652-0.736-0.908-1.191c-0.425-0.68-0.793-1.502-1.275-2.268c-0.227-0.396-0.51-0.766-0.822-1.133
	c-0.227-0.227-0.481-0.453-0.793-0.682c0.028-0.057,0.057-0.141,0.085-0.227c0.028-0.084,0.057-0.197,0.085-0.311
	c0.057-0.113,0.085-0.283,0.085-0.453c0-0.172-0.057-0.369-0.113-0.539c-0.085-0.143-0.17-0.283-0.283-0.396
	c-0.114-0.172-0.228-0.313-0.341-0.426c-0.283-0.227-0.566-0.34-0.822-0.453c-0.197-0.086-0.396-0.143-0.538-0.199
	c-0.227-0.113-0.368-0.199-0.454-0.256l0,0c0.086,0,0.143,0,0.256-0.027c0.057,0,0.142-0.029,0.227-0.057
	c0.143-0.057,0.283-0.17,0.396-0.34c0.113-0.143,0.143-0.34,0.143-0.482c0-0.199-0.029-0.34-0.086-0.482
	c-0.057-0.367-0.17-0.709-0.311-1.049c-0.313-0.623-0.709-1.162-1.135-1.701c-0.68-0.82-1.417-1.586-1.955-2.408
	c-0.284-0.396-0.511-0.795-0.652-1.191c-0.17-0.424-0.256-0.822-0.256-1.275c0-0.141,0.029-0.283,0.029-0.453l0.113-0.68
	l-0.681-0.086c-0.454-0.057-0.765-0.17-0.992-0.313c-0.17-0.084-0.283-0.197-0.397-0.34c-0.17-0.197-0.311-0.51-0.453-0.879
	c-0.17-0.367-0.34-0.85-0.596-1.332c-0.311-0.652-0.68-1.076-0.935-1.389c-0.113-0.141-0.198-0.283-0.228-0.369
	c-0.057-0.084-0.057-0.17-0.057-0.254c-0.027-0.113,0.029-0.313,0.171-0.623l0.396-0.908l-0.964-0.057
	c-0.198-0.027-0.34-0.057-0.453-0.113c-0.086-0.029-0.17-0.086-0.256-0.17c-0.141-0.113-0.254-0.313-0.396-0.566
	c-0.17-0.369-0.34-0.852-0.596-1.332c-0.141-0.256-0.311-0.482-0.51-0.709c-0.198-0.227-0.482-0.426-0.793-0.568l-0.454-0.17
	l-0.312,0.369c-0.511,0.596-1.162,1.078-1.899,1.531c-1.134,0.652-2.466,1.189-3.741,1.814c-1.276,0.65-2.523,1.416-3.459,2.578
	l-0.255,0.313l0.142,0.369c0.255,0.594,0.566,1.076,0.936,1.502c0.539,0.652,1.105,1.133,1.502,1.672
	c0.199,0.283,0.369,0.566,0.482,0.879c0.142,0.313,0.227,0.68,0.255,1.105l0.028,0.453l0.426,0.143
	c0.821,0.311,1.615,0.793,2.182,1.445c0.283,0.34,0.511,0.709,0.681,1.105c0.142,0.426,0.228,0.879,0.228,1.361
	c0,0.51-0.086,1.076-0.284,1.701l-0.227,0.594l0.567,0.256c0.68,0.313,1.219,0.822,1.7,1.502c0.708,1.021,1.219,2.381,1.729,3.77
	c0.255,0.682,0.538,1.361,0.822,1.984c0.34,0.652,0.68,1.219,1.162,1.73c0.312,0.34,0.68,0.566,1.02,0.736
	c0.256,0.113,0.482,0.227,0.709,0.313c0.313,0.113,0.539,0.254,0.709,0.396c0.085,0.084,0.142,0.141,0.198,0.254
	c0.028,0.057,0.057,0.115,0.085,0.199c-0.085,0.199-0.17,0.396-0.255,0.596c-0.085,0.283-0.198,0.623-0.255,0.992l-0.029,0.254
	l0.143,0.229c0.538,0.793,1.049,1.529,1.502,2.324c0.453,0.793,0.851,1.615,1.077,2.578l0.085,0.283l0.256,0.115
	c0.453,0.283,0.85,0.623,1.189,1.049c0.511,0.594,0.936,1.389,1.333,2.238c0.396,0.822,0.765,1.758,1.219,2.637l0.142,0.311
	l0.369,0.057c0.113,0,0.227,0.029,0.34,0.029c0.312,0,0.596-0.057,0.766-0.113c0.084,0,0.141-0.029,0.17-0.029
	c0,0.057,0,0.113,0,0.199c0,1.162,0.113,2.24,0.396,3.203c0.227,0.85,0.623,1.588,1.162,2.211c0,0.029-0.028,0.057-0.057,0.113
	c-0.057,0.057-0.113,0.17-0.142,0.283s-0.057,0.227-0.057,0.34c-0.142,0.057-0.284,0.113-0.454,0.143
	c-0.538,0.17-1.247,0.256-2.012,0.283c-1.135,0.057-2.41,0.029-3.572,0.143c-0.596,0.057-1.162,0.17-1.701,0.34
	c-0.34,0.141-0.68,0.313-0.992,0.539c-0.227-0.113-0.425-0.17-0.651-0.227c-0.397-0.115-0.765-0.143-1.162-0.143
	c-0.766,0-1.56,0.143-2.325,0.256c-0.765,0.141-1.502,0.254-2.182,0.254h-0.029c-4.449,0-9.325-0.283-14.173-0.283
	c-0.765,0-1.559,0.113-2.239,0.113c-0.396,0-0.766-0.027-1.077-0.113c-0.227-0.057-0.425-0.143-0.624-0.256
	c-0.027-0.084-0.027-0.17-0.027-0.254c0-0.227,0.057-0.34,0.141-0.51c0.086-0.113,0.199-0.229,0.313-0.342
	c0.198-0.197,0.453-0.367,0.709-0.623c0.113-0.113,0.255-0.256,0.368-0.426c0.085-0.197,0.17-0.424,0.17-0.68l0,0
	c0-0.197-0.057-0.369-0.142-0.51c-0.085-0.113-0.17-0.199-0.256-0.256c-0.057-0.057-0.113-0.113-0.197-0.141
	c0.141-0.057,0.283-0.113,0.396-0.199c0.312-0.17,0.566-0.396,0.766-0.652c0.396-0.424,0.623-0.936,0.822-1.473
	c0.254-0.822,0.396-1.701,0.51-2.58c0.113-0.68,0.227-1.361,0.368-1.928l0,0c0.228-0.086,0.368-0.17,0.481-0.199
	c0.086-0.027,0.143-0.057,0.228-0.057c0.057,0,0.113,0,0.198,0.029l0.596,0.141l0.198-0.566c0.708-1.928,1.56-3.713,2.466-5.498
	c0.879-1.787,1.814-3.572,2.607-5.5l0.029-0.086v-0.057c0.027-0.113,0.027-0.197,0.027-0.283c0-0.197-0.027-0.367-0.113-0.51
	c-0.027-0.113-0.084-0.199-0.141-0.256c-0.029-0.057-0.057-0.113-0.057-0.113v-0.027c0.68-0.936,1.615-2.154,2.408-3.516
	c0.397-0.68,0.795-1.445,1.049-2.238c0.284-0.766,0.454-1.588,0.454-2.467c0-0.936-0.227-1.928-0.737-2.891l-0.198-0.342h-0.396
	c-1.021,0-1.984,0.086-2.892,0.256c-0.652,0.143-1.275,0.34-1.871,0.623c-0.85,0.398-1.587,0.992-2.098,1.814
	c-0.453,0.738-0.709,1.645-0.766,2.721c-0.453,0.313-0.878,0.625-1.275,0.879l-0.227,0.113l-0.085,0.256
	c-0.794,2.807-2.239,5.5-3.458,8.561c-0.539,1.389-0.907,2.92-1.361,4.225c-0.254,0.65-0.51,1.219-0.793,1.699
	c-0.313,0.455-0.624,0.795-1.021,1.021l-0.397,0.197l0.057,0.455c0.029,0.141,0.029,0.254,0.029,0.396
	c0,0.566-0.143,0.963-0.341,1.361c-0.198,0.424-0.481,0.85-0.708,1.416l-0.086,0.227l0.086,0.256c0.113,0.34,0.255,0.596,0.34,0.85
	c0.085,0.199,0.142,0.369,0.142,0.596c-0.057,0.113-0.142,0.199-0.255,0.283c-0.199,0.199-0.51,0.396-0.851,0.596
	s-0.708,0.396-1.049,0.709l-0.284,0.227l0.058,0.369c0.028,0.34,0.142,0.594,0.198,0.793c0.057,0.227,0.085,0.369,0.085,0.566
	c0,0.029,0,0.057,0,0.086c-1.417,1.246-2.466,2.408-3.43,4.053c-0.794,1.389-1.503,2.893-2.212,4.395
	c-0.68,1.473-1.332,2.947-2.068,4.223c-0.256,0.453-0.624,0.908-1.021,1.389c-0.397,0.482-0.794,0.992-1.134,1.588l0,0
	c-0.113,0.227-0.17,0.453-0.227,0.682c-0.086,0.311-0.113,0.623-0.17,0.877c-0.029,0.285-0.086,0.482-0.143,0.652
	c-0.368,0.822-0.879,1.531-1.445,2.24s-1.162,1.416-1.701,2.211l-0.312,0.453l0.368,0.396l0,0c0.029,0.029,0.057,0.086,0.057,0.199
	c0.029,0.113,0.057,0.254,0.057,0.453c0,0.057-0.027,0.113-0.027,0.17c-1.39,1.049-2.41,2.211-3.346,3.402
	c-0.992,1.303-1.871,2.635-2.947,4.053c-0.539,0.709-1.135,1.475-1.673,2.324c-0.538,0.852-0.992,1.787-1.134,2.863l-0.028,0.256
	l0.17,0.227c0.312,0.453,0.765,0.766,1.247,0.963c0.482,0.199,0.992,0.283,1.502,0.283c0.795,0,1.616-0.197,2.297-0.566
	c0.283,0.17,0.566,0.313,0.85,0.426c0.397,0.141,0.822,0.197,1.191,0.197c0.51,0,0.992-0.084,1.445-0.254
	c0.652-0.227,1.247-0.566,1.814-0.879c0.566-0.313,1.105-0.596,1.615-0.736l0.34-0.113l0.113-0.342
	c0.313-1.076,0.936-2.295,1.616-3.457c0.652-1.135,1.36-2.24,1.814-3.176c0.142-0.283,0.255-0.596,0.34-0.936
	c0.142-0.51,0.284-1.02,0.397-1.473c0.057-0.256,0.113-0.455,0.17-0.652c0.057-0.17,0.113-0.34,0.17-0.426
	c0.369-0.766,0.822-1.502,1.304-2.238c0.481-0.766,0.964-1.504,1.36-2.354c0.397-0.793,0.879-1.615,1.305-2.354
	c0.227-0.367,0.481-0.68,0.793-1.02c0.283-0.34,0.596-0.709,0.822-1.162c0.426-0.766,0.566-1.531,0.737-2.098
	c0.085-0.283,0.17-0.51,0.255-0.709c0.113-0.199,0.256-0.34,0.426-0.482c0.481-0.34,1.049-0.566,1.7-0.709
	c0.624-0.113,1.36-0.17,2.126-0.17c1.077,0,2.239,0.086,3.43,0.086c0.907,0,1.843-0.057,2.722-0.256
	c0.737-0.141,1.474-0.396,2.154-0.822c0.255,0.227,0.538,0.398,0.822,0.512c0.425,0.17,0.851,0.227,1.247,0.227
	c0.623,0,1.19-0.143,1.729-0.283c0.511-0.143,0.992-0.285,1.418-0.342c0.198-0.027,0.426-0.057,0.652-0.057
	c0.595,0,1.304,0.113,2.041,0.199c0.736,0.084,1.559,0.199,2.381,0.199c0.34,0,0.709-0.029,1.076-0.086
	c0.965-0.113,1.844-0.369,2.665-0.596c0.851-0.254,1.616-0.453,2.353-0.453c0.341-0.029,0.709-0.029,1.078-0.029
	c1.559,0,3.373,0.086,4.705,0.285c0.766,0.113,1.304,0.141,1.814,0.141c0.595,0,1.105-0.057,1.842-0.141
	c0.313-0.029,0.596-0.057,0.907-0.057c0.511,0,1.049,0.057,1.587,0.057c0.482,0,0.965-0.057,1.446-0.17
	c0.312,0.396,0.567,0.85,0.822,1.332c0.454,0.936,0.878,1.984,1.36,3.033c0.426,0.963,0.936,1.898,1.673,2.664v1.871l0.142,0.17
	c1.275,1.588,2.126,3.713,3.033,5.867c0.453,1.078,0.906,2.154,1.474,3.203c0.454,0.852,0.992,1.672,1.616,2.438
	c-0.057,0.143-0.086,0.283-0.086,0.426c0,0.283,0.086,0.51,0.17,0.709c0.143,0.283,0.284,0.482,0.426,0.68
	c0.113,0.17,0.199,0.34,0.199,0.426c0.084,0.367,0.141,0.793,0.197,1.246c0.057,0.652,0.113,1.391,0.284,2.07
	c0.085,0.34,0.198,0.68,0.396,1.02c0.142,0.313,0.397,0.625,0.681,0.879l0.255,0.199l0.341-0.057c0.51-0.143,0.963-0.34,1.359-0.596
	c0.596-0.369,1.049-0.822,1.503-1.191c0.368-0.367,0.737-0.68,1.162-0.906c0.113,0,0.228,0.029,0.312,0.057
	c0.17,0.057,0.341,0.17,0.624,0.283c0.255,0.143,0.624,0.256,1.077,0.256c0.198,0,0.396-0.029,0.623-0.057l0.114-0.029l0.113-0.057
	c0.368-0.227,0.651-0.51,0.878-0.822c0.369-0.424,0.625-0.906,0.852-1.332c0.254-0.424,0.51-0.85,0.822-1.189
	c0.057-0.086,0.197-0.199,0.424-0.34c0.284-0.229,0.709-0.482,1.078-0.822c0.17-0.17,0.34-0.342,0.51-0.568
	c0.143-0.227,0.256-0.51,0.283-0.822l0,0c0.029-0.057,0.029-0.141,0.029-0.197c0-0.256-0.057-0.51-0.143-0.709
	C286.34,79.425,286.114,79.058,285.859,78.688z M181.119,5.157h-0.313c-0.057,0-0.141,0-0.197,0c-0.908,0-1.701,0.199-2.41,0.369
	c-0.709,0.199-1.36,0.369-1.928,0.369c-0.283,0-0.566-0.029-0.822-0.143c-0.255-0.084-0.538-0.256-0.793-0.482l-0.113-0.113H174.4
	c-0.027,0-0.057,0-0.084,0c-0.228,0-0.454,0.029-0.596,0.113c-0.256,0.113-0.426,0.256-0.539,0.342
	c-0.057,0.027-0.113,0.057-0.198,0.084c-0.057,0-0.113,0.029-0.198,0.029c-0.028,0-0.085,0-0.142-0.029
	c-0.454-0.283-0.936-0.369-1.333-0.369c-0.425,0-0.793,0.086-1.105,0.17c-0.34,0.086-0.651,0.172-0.963,0.199
	c-0.283,0.029-0.539,0.029-0.794,0.029c-0.879,0-1.56-0.172-2.211-0.342c-0.652-0.197-1.276-0.424-1.984-0.51
	c-0.198,0-0.397-0.027-0.567-0.027c-0.85,0-1.672,0.17-2.438,0.311c-0.793,0.143-1.559,0.256-2.296,0.256c-0.028,0-0.057,0-0.085,0
	h-0.539l0.143,0.51c0.227,0.795,0.623,1.332,1.133,1.672c0.369,0.256,0.794,0.398,1.219,0.512c0.652,0.141,1.305,0.17,1.9,0.283
	c0.623,0.084,1.133,0.197,1.53,0.482c0.113,0.057,0.283,0.197,0.454,0.396c0.254,0.283,0.566,0.652,0.793,1.02
	c0.227,0.396,0.426,0.766,0.453,1.021c0.086,0.34,0.113,0.68,0.113,0.992c0,0.594-0.113,1.162-0.283,1.729
	c-0.283,0.85-0.68,1.701-1.049,2.607c-0.368,0.908-0.68,1.871-0.68,2.949c0,0.17,0.027,0.311,0.027,0.453
	c-0.027,0.084-0.057,0.113-0.113,0.197c-0.057,0.057-0.141,0.113-0.227,0.172c-0.141,0.113-0.312,0.227-0.481,0.424
	c-0.142,0.199-0.255,0.482-0.255,0.822c0,0.029,0,0.057,0,0.086l0.027,0.424l0.426-0.057c0.028,0,0.028,0,0.057,0
	c-0.085,0.113-0.17,0.227-0.255,0.34c-0.057,0.086-0.113,0.172-0.142,0.256c-0.057,0.086-0.086,0.199-0.086,0.34v0.057
	c0,0.283,0.114,0.539,0.228,0.795c0.17,0.34,0.368,0.65,0.538,0.963c0.143,0.283,0.256,0.566,0.283,0.908l0,0l-0.027,0.027
	c0,0.029-0.057,0.057-0.17,0.086c-0.113,0.057-0.313,0.113-0.511,0.254c-0.085,0.086-0.198,0.17-0.255,0.313
	c-0.086,0.141-0.113,0.283-0.113,0.453c0,0.086,0,0.199,0.027,0.283v0.029l0,0c0.143,0.51,0.199,0.936,0.199,1.332
	s-0.057,0.736-0.17,1.076c-0.143,0.482-0.396,0.936-0.709,1.447c-0.283,0.537-0.623,1.105-0.907,1.813
	c-0.17,0.426-0.567,1.418-0.935,2.324c-0.171,0.455-0.341,0.879-0.454,1.191c-0.085,0.17-0.113,0.283-0.17,0.369
	c0,0.057-0.028,0.084-0.028,0.113l-0.029,0.027v0.029l0,0v0.027v0.029c0,0.027-0.027,0.027-0.027,0.084l0,0l0,0
	c0.027,0.17,0.085,0.285,0.142,0.398c0.113,0.17,0.227,0.311,0.396,0.48c0.228,0.256,0.481,0.512,0.652,0.766
	c0.113,0.113,0.17,0.227,0.227,0.34s0.057,0.199,0.057,0.256c0,0.084,0,0.141-0.057,0.227h-0.028v0.029
	c-0.085,0.17-0.227,0.34-0.369,0.453c-0.254,0.197-0.595,0.396-0.935,0.596c-0.368,0.17-0.737,0.396-1.049,0.764l-0.085,0.086v0.113
	c-0.426,2.664-1.248,4.875-2.608,6.549l-0.227,0.283l0.255,0.254c0.227,0.199,0.34,0.426,0.426,0.682
	c0.085,0.283,0.113,0.594,0.113,0.936c0,0.793-0.17,1.729-0.17,2.805c0,0.256,0.027,0.512,0.027,0.766
	c-0.197,0.143-0.453,0.283-0.736,0.426c-0.34,0.17-0.737,0.313-1.134,0.453l-0.171,0.057l-0.057,0.199
	c-0.481,1.615-1.389,3.23-2.125,5.074c-0.369,0.906-0.652,1.871-0.936,2.807c-0.283,0.906-0.596,1.813-0.936,2.578
	c-0.028,0.057-0.085,0.143-0.17,0.227c-0.113,0.143-0.283,0.313-0.453,0.482c-0.171,0.17-0.341,0.369-0.454,0.652
	c-0.142,0.396-0.113,0.793-0.142,1.105c0,0.143,0,0.283,0,0.426c-0.029,0.113-0.057,0.227-0.113,0.311
	c-0.227,0.453-0.567,0.908-0.965,1.305c-0.367,0.396-0.821,0.736-1.246,0.936l-0.199,0.113l-0.027,0.197
	c0,0.059-0.029,0.143-0.029,0.199c0,0.029,0,0.029,0,0.057c-0.227-0.539-0.51-1.02-0.766-1.445c-0.197-0.313-0.34-0.623-0.453-0.936
	s-0.17-0.652-0.198-1.049c0-0.227,0.028-0.453,0.085-0.736s0.113-0.482,0.142-0.625c0.028-0.141,0.057-0.227,0.057-0.367
	c0-0.086-0.028-0.227-0.085-0.313c-0.028-0.057-0.057-0.086-0.085-0.113c-0.028-0.057-0.085-0.086-0.142-0.17
	c-0.028-0.057-0.113-0.17-0.199-0.313c-0.311-0.51-0.538-1.189-0.736-1.842c-0.085-0.34-0.17-0.652-0.283-0.908
	c-0.086-0.311-0.17-0.537-0.313-0.764c-0.113-0.143-0.227-0.256-0.34-0.369c-0.17-0.143-0.34-0.283-0.482-0.396
	c-0.057-0.057-0.113-0.113-0.17-0.143c-0.027-0.057-0.057-0.084-0.057-0.084c-0.283-0.738-0.368-1.361-0.368-2.098
	c0-0.539,0.057-1.078,0.142-1.758l0.086-0.709l-0.652,0.313c-0.34,0.141-0.822,0.227-1.305,0.227c-0.453,0-0.906-0.086-1.246-0.199
	c-0.228-0.283-0.369-0.539-0.454-0.85c-0.085-0.313-0.113-0.652-0.113-1.049c0-0.313,0.028-0.682,0.028-1.049
	c0-0.369-0.028-0.738-0.113-1.105c-0.426-2.184-1.305-4.195-2.098-6.236c-0.822-2.014-1.588-4.025-1.899-6.123l-0.057-0.34
	l-0.341-0.029h-0.027c-0.256,0-0.454,0.057-0.596,0.143c-0.256,0.141-0.396,0.283-0.51,0.367c-0.057,0.029-0.086,0.057-0.143,0.086
	c-0.027,0-0.084,0.027-0.17,0.027c-0.057,0-0.17-0.027-0.255-0.057c-0.284-0.17-0.481-0.424-0.595-0.736
	c-0.143-0.34-0.228-0.766-0.228-1.246c0-0.625,0.142-1.334,0.341-1.984c0.17-0.652,0.425-1.248,0.651-1.645l0.228-0.369
	l-0.397-0.197c-0.511-0.256-0.822-0.539-1.049-0.852c-0.17-0.227-0.255-0.482-0.341-0.793c-0.113-0.426-0.141-0.908-0.141-1.445
	c-0.029-0.539-0.029-1.135-0.113-1.73c-0.086-0.453-0.256-0.906-0.482-1.359c-0.34-0.682-0.794-1.361-1.19-2.07
	c-0.425-0.68-0.822-1.359-1.021-2.012c-0.256-0.795-0.426-1.674-0.51-2.609l-0.029-0.197l-0.17-0.086
	c-0.34-0.227-0.736-0.367-1.049-0.51c-0.255-0.141-0.481-0.256-0.623-0.396c0-0.227,0.057-0.453,0.142-0.68
	c0.057-0.313,0.142-0.652,0.142-1.078c0-0.17,0-0.369-0.028-0.566l-0.057-0.34h-0.341h-0.027c-0.228,0-0.454,0-0.624,0
	c-0.228,0-0.397,0-0.481-0.057c0.311-0.313,0.538-0.682,0.708-1.078c0.17-0.482,0.228-0.992,0.228-1.502
	c0-0.822-0.143-1.645-0.313-2.467s-0.369-1.645-0.426-2.352v-0.057l-0.027-0.029c-0.057-0.141-0.143-0.256-0.256-0.34
	c-0.085-0.057-0.17-0.086-0.255-0.113c-0.17-0.029-0.283-0.057-0.425-0.057c-0.057,0-0.113,0-0.143,0
	c0.086-0.113,0.17-0.256,0.228-0.396c0.142-0.256,0.17-0.539,0.17-0.822c0-0.51-0.17-0.965-0.284-1.418
	c-0.141-0.453-0.283-0.906-0.283-1.361c0-0.283,0.057-0.566,0.17-0.85l0.256-0.623l-0.652,0.057c-0.17,0-0.312,0-0.482,0
	c-0.623,0-1.162-0.057-1.672-0.143c-0.482-0.113-0.936-0.197-1.417-0.197c-0.341,0-0.709,0.057-1.049,0.227
	c-0.312,0.141-0.624,0.367-0.879,0.68c-0.085,0-0.17,0-0.255,0c-0.227,0-0.426-0.027-0.624-0.113
	c-0.198-0.057-0.454-0.143-0.765-0.199l-0.313-0.027l-0.113,0.313c-0.482,1.389-1.304,2.352-2.467,3.031
	c-1.162,0.709-2.664,1.105-4.422,1.277l-0.396,0.027l0.057,0.396c0,0.086,0,0.17,0,0.227c0,0.455-0.142,0.852-0.283,1.248
	c-0.085,0.227-0.17,0.426-0.227,0.652c-0.057,0.254-0.113,0.51-0.113,0.766c0,0.227,0.027,0.453,0.084,0.68
	c0.114,0.453,0.341,0.793,0.596,1.076c0.396,0.426,0.851,0.709,1.248,1.021c0.197,0.143,0.368,0.283,0.51,0.426
	c0.142,0.17,0.255,0.311,0.34,0.51c0.029,0.057,0.057,0.17,0.057,0.34c0,0.143-0.027,0.34-0.057,0.539
	c0,0.197-0.057,0.426-0.057,0.623c0,0.086,0.028,0.199,0.028,0.283c0.228,1.191,0.822,2.211,1.39,3.203
	c0.595,0.965,1.133,1.844,1.304,2.723l0.028,0.227l0.227,0.084c0.566,0.199,1.105,0.34,1.531,0.596
	c0.227,0.113,0.396,0.227,0.538,0.396s0.283,0.369,0.341,0.623c0.027,0.057,0.027,0.086,0.027,0.172
	c0,0.084-0.027,0.197-0.057,0.367c-0.085,0.227-0.198,0.482-0.312,0.766s-0.198,0.596-0.198,0.936c0,0.029,0,0.057,0,0.113
	c0.028,0.283,0.113,0.566,0.227,0.879c0.198,0.426,0.453,0.879,0.709,1.332c0.255,0.426,0.538,0.822,0.709,1.162
	c0.651,1.219,1.389,2.24,1.87,3.232l0.113,0.227h0.255c0.256-0.029,0.539-0.029,0.766-0.029c0.199,0,0.426,0,0.566,0.029
	c0.256,0.027,0.426,0.113,0.511,0.197c0.057,0.029,0.085,0.086,0.114,0.143c0.027,0.057,0.027,0.143,0.027,0.256v0.027
	c0,0.057,0,0.057,0,0.086c-0.027,0-0.057,0.057-0.113,0.084c-0.113,0.057-0.312,0.113-0.566,0.199
	c-0.113,0.057-0.227,0.113-0.34,0.197c-0.114,0.113-0.228,0.256-0.284,0.426l-0.057,0.143l0.057,0.141
	c1.474,3.826,2.948,7.598,4.28,11.566l0.057,0.141l0.113,0.057c0.369,0.227,0.737,0.396,1.049,0.568
	c0.283,0.197,0.511,0.367,0.652,0.594c0.17,0.852,0.453,1.561,0.709,2.268c0.227,0.709,0.425,1.447,0.425,2.381
	c0,0.342-0.028,0.682-0.085,1.078l-0.028,0.256l0.255,0.141c1.248,0.68,2.41,1.475,3.402,2.41c-0.114,0.254-0.228,0.539-0.341,0.766
	c-0.113,0.34-0.284,0.594-0.454,0.736l-0.197,0.143l0.057,0.254c0.057,0.34,0.227,0.625,0.396,0.879
	c0.283,0.369,0.596,0.652,0.879,0.936c0.255,0.283,0.481,0.566,0.595,0.906c0,0.029,0,0.115-0.028,0.199
	c-0.028,0.143-0.085,0.34-0.142,0.51c-0.028,0.086-0.057,0.17-0.085,0.256c0,0.057-0.028,0.143-0.028,0.256v0.057
	c0.028,0.283,0.113,0.65,0.227,1.105c0.198,0.65,0.454,1.416,0.737,2.098c0.113,0.34,0.255,0.65,0.368,0.906
	c0.142,0.283,0.228,0.482,0.341,0.652s0.254,0.311,0.396,0.426c0.085,0.057,0.198,0.113,0.255,0.141
	c0.113,0.057,0.171,0.113,0.228,0.143c0.057,0.057,0.084,0.113,0.141,0.283c0.199,0.566,0.256,1.303,0.283,2.098
	c0.029,0.822,0.058,1.645,0.256,2.438c1.105,4.395,2.948,8.646,4.564,12.443l0.113,0.256h0.283c0.312-0.029,0.652-0.029,0.963-0.029
	c2.41,0,4.876,0.482,7.258,0.482c0.765,0,1.502-0.057,2.268-0.197c0.623-0.113,1.332-0.398,2.012-0.709
	c0.681-0.313,1.332-0.682,1.843-0.936c0.567-0.313,1.276-0.709,1.899-1.191c0.313-0.227,0.566-0.48,0.794-0.793
	c0.227-0.283,0.396-0.652,0.453-1.021l0.028-0.197l-0.142-0.17c-0.113-0.086-0.227-0.17-0.368-0.227
	c-0.113-0.057-0.227-0.086-0.369-0.086c-0.198,0-0.368,0.086-0.481,0.143c-0.198,0.113-0.368,0.227-0.511,0.311
	c-0.141,0.057-0.283,0.113-0.481,0.113c0,0-0.028,0-0.057,0c0-0.027,0-0.057,0-0.084c0-0.34-0.057-0.652-0.142-0.936
	c-0.143-0.396-0.34-0.68-0.453-0.965c-0.143-0.254-0.228-0.453-0.228-0.764c0-0.029,0-0.086,0-0.115
	c0.028-0.227,0.113-0.453,0.255-0.707c0.199-0.398,0.511-0.795,0.794-1.248c0.171-0.227,0.284-0.482,0.397-0.736
	c0.084-0.283,0.17-0.568,0.17-0.879c0-0.256-0.057-0.539-0.143-0.795c0.397-0.17,0.709-0.396,0.965-0.68
	c0.254-0.256,0.453-0.539,0.566-0.879c0.198-0.453,0.313-0.963,0.396-1.445c0.113-0.51,0.199-0.992,0.34-1.445
	c0,0,0.029-0.057,0.086-0.143c0.057-0.084,0.198-0.227,0.34-0.367c0.142-0.143,0.283-0.313,0.369-0.568
	c0.17-0.51,0.17-1.076,0.17-1.586c0-0.512,0-0.992,0.113-1.391c0.283-1.189,0.879-2.295,1.502-3.43
	c0.623-1.133,1.275-2.268,1.701-3.543c0.34-1.105,0.538-2.41,0.766-3.713c0.197-1.305,0.453-2.637,0.821-3.826
	c0.114-0.313,0.284-0.652,0.511-1.021c0.17-0.34,0.396-0.709,0.566-1.105c0.199-0.482,0.313-0.992,0.426-1.475
	c0.113-0.453,0.227-0.906,0.368-1.189c0.511-1.135,1.304-2.098,1.984-3.033c0.368-0.482,0.708-0.936,0.964-1.445
	c0.283-0.482,0.481-1.021,0.566-1.561c0.029-0.197,0.029-0.424,0.029-0.594c0-0.568-0.086-1.078-0.199-1.561
	c-0.085-0.453-0.198-0.879-0.198-1.275c0-0.141,0.028-0.254,0.057-0.396c0.794-0.369,1.417-0.906,1.984-1.418
	c0.595-0.566,1.162-1.105,1.87-1.473l0.171-0.113l0.028-0.199c0.028-0.283,0.028-0.539,0.028-0.822c0-0.254,0-0.482,0-0.736
	c0-0.566,0.028-1.105,0.17-1.418c0.057-0.17,0.142-0.254,0.227-0.34c0.114-0.057,0.255-0.113,0.481-0.113
	c0.086,0,0.171,0,0.256,0.029l0.396,0.057l0.057-0.426c0.426-3.941,2.24-7.314,3.969-10.744c0.851-1.701,1.701-3.43,2.324-5.244
	c0.624-1.814,1.021-3.684,1.021-5.725c0-1.105-0.114-2.268-0.369-3.459L181.119,5.157z M375.008,7.425l-0.341-0.084
	c-0.197-0.057-0.396-0.086-0.566-0.086c-0.453,0-0.822,0.143-1.134,0.313c-0.454,0.256-0.794,0.596-1.134,0.85
	c-0.17,0.143-0.34,0.256-0.482,0.34c-0.17,0.086-0.312,0.143-0.481,0.172c-0.142,0.057-0.341,0.057-0.567,0.057
	c-0.481,0-1.105-0.086-1.785-0.199c-0.681-0.086-1.418-0.199-2.211-0.199c-0.313,0-0.681,0.029-1.021,0.086
	c-0.255,0.027-0.481,0.113-0.681,0.199c-0.34,0.113-0.623,0.254-0.879,0.396c-0.255,0.113-0.453,0.197-0.566,0.197
	c-0.199,0.029-0.396,0.057-0.596,0.057c-0.652,0-1.275-0.141-1.928-0.311c-0.651-0.143-1.332-0.313-2.068-0.313
	c-0.143,0-0.313,0.029-0.482,0.029c-0.709,0.084-1.305,0.311-1.871,0.48c-0.566,0.199-1.021,0.34-1.417,0.313
	c-0.198,0-0.397-0.029-0.595-0.113c-0.199-0.086-0.397-0.227-0.625-0.482l-0.481-0.482l-0.481,0.482
	c-0.227,0.199-0.426,0.34-0.681,0.426c-0.227,0.084-0.511,0.113-0.821,0.113c-0.511,0.027-1.135-0.086-1.787-0.227
	c-0.651-0.113-1.359-0.256-2.098-0.256c-0.113,0-0.227,0-0.34,0c-0.793,0.057-1.417,0.313-1.955,0.482
	c-0.256,0.113-0.482,0.199-0.709,0.256c-0.199,0.027-0.396,0.057-0.596,0.084c-0.085-0.084-0.17-0.141-0.255-0.256
	c-0.085-0.141-0.198-0.283-0.283-0.48c-0.171-0.283-0.368-0.596-0.652-0.908c-0.283-0.311-0.681-0.623-1.219-0.766
	c-0.312-0.084-0.681-0.113-1.021-0.113c-0.879,0-1.814,0.199-2.777,0.398c-0.936,0.227-1.928,0.424-2.863,0.51
	c-1.105,0.084-2.211,0.141-3.346,0.141c-3.203,0-6.293-0.367-8.447-0.936h-0.057h-0.084c-0.029-0.027-0.086-0.027-0.113-0.027
	c-0.199,0-0.369,0.027-0.539,0.084c-0.283,0.086-0.482,0.285-0.624,0.455c-0.113,0.113-0.17,0.227-0.255,0.311
	c-0.028,0.057-0.057,0.086-0.085,0.143c-0.368-0.482-0.794-0.85-1.276-1.162l-0.254-0.143l-0.284,0.086
	c-1.247,0.34-2.551,0.652-3.827,1.02c-0.113-0.027-0.197-0.084-0.283-0.141c-0.085-0.086-0.17-0.199-0.283-0.313
	c-0.17-0.17-0.369-0.426-0.652-0.623c-0.255-0.227-0.623-0.453-1.076-0.51h-0.057h-0.029c-0.027,0-0.057,0-0.084,0
	c-0.199,0-0.369,0.027-0.539,0.084c-0.283,0.086-0.482,0.256-0.652,0.426c-0.113,0.113-0.198,0.227-0.255,0.311
	c-0.085,0.143-0.17,0.229-0.198,0.229L311.2,7.851c0,0-0.029,0.029-0.086,0.029c-0.027,0-0.057,0-0.113-0.029
	c-0.057-0.027-0.113-0.057-0.17-0.141c-0.113-0.115-0.255-0.342-0.453-0.625c-0.085-0.141-0.199-0.283-0.34-0.424
	c-0.143-0.143-0.341-0.256-0.539-0.369l-0.227-0.113l-0.227,0.084c-0.454,0.113-0.851,0.143-1.248,0.143
	c-0.651,0-1.304-0.113-2.012-0.113c-0.313,0-0.652,0.027-0.992,0.113c-0.34,0.084-0.709,0.256-1.049,0.482
	c-0.227,0.17-0.397,0.34-0.539,0.537c-0.283,0.342-0.426,0.738-0.566,1.078c-0.199,0.566-0.369,1.076-0.567,1.418
	c-0.113,0.17-0.198,0.311-0.341,0.424c-0.113,0.086-0.227,0.17-0.424,0.199l-0.595,0.141l0.085,0.625
	c0.057,0.34,0.142,0.594,0.198,0.793c0.056,0.199,0.113,0.369,0.113,0.566c0,0.029,0,0.029,0,0.057
	c-0.113,0.086-0.226,0.143-0.339,0.199c-0.313,0.17-0.681,0.34-1.077,0.51c-0.368,0.199-0.794,0.453-1.134,0.822l-0.199,0.227
	l0.029,0.283c0.027,0.256,0.084,0.512,0.141,0.709c0.114,0.313,0.228,0.539,0.284,0.738c0.057,0.141,0.085,0.254,0.113,0.396
	c-0.17,0.027-0.312,0.084-0.454,0.17c-0.453,0.197-0.793,0.482-1.105,0.736c-0.311,0.256-0.566,0.51-0.821,0.68l-0.397,0.256
	l0.113,0.453c0.029,0.17,0.057,0.283,0.057,0.396c0,0.256-0.057,0.398-0.141,0.539c-0.057,0.143-0.143,0.256-0.256,0.396
	c-0.17,0.172-0.368,0.398-0.566,0.652c-0.113,0.143-0.199,0.313-0.283,0.482c-0.086,0.199-0.113,0.426-0.113,0.652
	c0,0.34,0.113,0.709,0.311,1.076l0.313,0.652l0.623-0.396c0.822-0.51,1.645-0.936,2.495-1.332c0.851-0.426,1.757-0.822,2.805-1.332
	c0.766-0.369,1.39-0.682,1.928-0.936c0.567-0.227,1.049-0.34,1.588-0.34s1.19,0.113,2.069,0.48l0.453,0.199l0.312-0.34
	c0.256-0.283,0.709-0.596,1.275-0.795c0.567-0.197,1.248-0.311,1.9-0.311c0.708,0,1.389,0.141,1.871,0.424l0.17,0.086h0.17
	c0.198,0,0.396-0.029,0.595-0.113c0.312-0.086,0.567-0.283,0.709-0.482c0.142-0.141,0.227-0.254,0.312-0.369
	c0.113-0.17,0.199-0.254,0.283-0.311c0.029-0.029,0.057-0.057,0.086-0.057c0,0,0.027,0,0.057-0.029
	c0.255,0.113,0.51,0.256,0.793,0.453c0.34,0.199,0.737,0.455,1.248,0.596l0.368,0.113l0.283-0.254
	c0.312-0.283,0.595-0.455,0.879-0.539c0.312-0.113,0.624-0.143,0.964-0.143c0.482,0,1.021,0.057,1.559,0.17
	c0.539,0.086,1.135,0.172,1.729,0.172c0.397,0,0.765-0.029,1.162-0.143c0.113-0.029,0.255-0.086,0.368-0.143
	c0.17,0.199,0.369,0.313,0.539,0.369c0.34,0.113,0.652,0.17,0.992,0.199c0.482,0.027,1.021,0.027,1.445,0.113
	c0.199,0.027,0.396,0.084,0.539,0.17c0.17,0.057,0.255,0.141,0.368,0.254c0.085,0.113,0.198,0.313,0.255,0.625
	c0.057,0.283,0.113,0.652,0.113,1.076c0,0.936-0.17,2.184-0.368,3.516c-0.17,1.361-0.341,2.777-0.341,4.166
	c0,0.738,0.058,1.475,0.171,2.154c0.085,0.313,0.17,0.568,0.283,0.822c0.171,0.396,0.397,0.738,0.538,1.049
	c0.086,0.143,0.143,0.256,0.199,0.369c0.028,0.027,0.028,0.084,0.057,0.113v0.027l0,0l0,0c0,0.086,0.028,0.199,0.028,0.285
	c0,0.311-0.085,0.707-0.17,1.133c-0.058,0.426-0.142,0.879-0.142,1.389c0,0.143,0,0.283,0,0.426
	c0.057,0.453,0.227,0.906,0.396,1.275c0.255,0.596,0.596,1.135,0.822,1.615c0.113,0.256,0.227,0.482,0.283,0.709
	c0.085,0.227,0.113,0.426,0.113,0.625l0,0c0,0.084-0.028,0.197-0.085,0.367c-0.085,0.227-0.227,0.539-0.368,0.852
	c-0.143,0.34-0.313,0.707-0.34,1.133c-0.057,0.396-0.057,0.822-0.057,1.248c0,1.076,0.113,2.295,0.197,3.486
	c0.113,1.219,0.199,2.438,0.199,3.6c0,0.566,0,1.105-0.086,1.615c-0.027,0.313-0.141,0.682-0.254,1.078
	c-0.143,0.396-0.284,0.822-0.284,1.332c0,0.027,0,0.086,0,0.143c0.085,1.105,0.481,2.039,0.822,2.891
	c0.17,0.396,0.34,0.793,0.454,1.162c0.113,0.369,0.17,0.736,0.17,1.049c0,0.199-0.029,0.396-0.086,0.566
	c0,0.029,0,0.029-0.027,0.057c-0.057,0.057-0.199,0.143-0.369,0.283c-0.085,0.057-0.198,0.143-0.312,0.227
	c-0.085,0.115-0.198,0.229-0.284,0.398l-0.084,0.141v0.17c-0.143,7.541-1.191,14.656-1.191,21.289c0,1.189,0.029,2.381,0.113,3.543
	l0.029,0.426l0.396,0.17c0.17,0.057,0.34,0.084,0.539,0.084c0.141,0,0.283-0.027,0.424-0.057c0.199-0.084,0.369-0.197,0.511-0.311
	c0.171-0.17,0.312-0.283,0.425-0.369c0.057-0.057,0.113-0.086,0.143-0.086c0.028-0.027,0.057-0.027,0.113-0.027
	c0.028,0,0.057,0,0.113,0.027c0.085,0.029,0.227,0.086,0.396,0.143s0.369,0.113,0.624,0.113c0.113,0,0.227,0,0.34-0.057
	c0.681-0.199,1.163-0.539,1.587-0.822c0.228-0.113,0.426-0.254,0.625-0.34c0.197-0.057,0.396-0.143,0.623-0.143
	c0.028,0,0.057,0,0.085,0c0.227,0,0.567,0.057,0.936,0.143c0.368,0.057,0.765,0.17,1.19,0.17c0.198,0,0.369-0.027,0.566-0.057
	c0.624-0.17,1.135-0.51,1.56-0.879c0.312-0.311,0.567-0.596,0.822-0.906c0.368-0.426,0.681-0.852,1.021-1.162
	c0.17-0.143,0.34-0.283,0.51-0.369s0.34-0.143,0.567-0.17l0.51-0.086l0.058-0.537c0.057-0.568,0.084-1.135,0.084-1.674
	c0-1.332-0.17-2.521-0.312-3.684c-0.17-1.135-0.312-2.24-0.312-3.488c0-0.027,0-0.057,0-0.084v-0.426l-0.369-0.17
	c-1.105-0.596-1.672-1.645-1.672-2.523c0-0.424,0.113-0.82,0.368-1.133s0.624-0.596,1.19-0.766l0.652-0.199l-0.198-0.65
	c-0.511-1.73-0.681-3.572-0.681-5.471c0-3.658,0.652-7.512,0.709-11.283v-0.113l-0.028-0.141c-0.085-0.17-0.171-0.342-0.284-0.455
	c-0.197-0.227-0.425-0.367-0.623-0.453c-0.113-0.084-0.256-0.141-0.369-0.197c-0.141-0.086-0.227-0.143-0.254-0.199l-0.029-0.057
	c0-0.029-0.028-0.057-0.028-0.143c0-0.027,0-0.057,0-0.084v-0.057v-0.057c0-0.029,0-0.057,0-0.057c0-0.113,0.028-0.17,0.028-0.227
	c0.029-0.086,0.086-0.143,0.17-0.227c0.057-0.057,0.17-0.143,0.283-0.229c0.171-0.113,0.426-0.283,0.652-0.51
	c0.113-0.113,0.227-0.283,0.283-0.453c0.113-0.17,0.171-0.369,0.199-0.566l0.028-0.227l-0.114-0.227
	c-0.113-0.172-0.283-0.313-0.424-0.426c-0.284-0.17-0.539-0.256-0.795-0.313c-0.17-0.027-0.34-0.057-0.453-0.084
	c-0.113-0.029-0.198-0.057-0.255-0.057c-0.057-0.029-0.085-0.057-0.113-0.057l0,0v-0.029c0-0.143,0.057-0.199,0.113-0.313
	c0.057-0.084,0.142-0.17,0.255-0.254c0.17-0.17,0.396-0.369,0.596-0.652c0.113-0.143,0.198-0.34,0.255-0.539
	c0.085-0.197,0.113-0.424,0.113-0.652v-0.057v-0.17l-0.085-0.141c-0.198-0.369-0.34-0.682-0.396-0.965
	c-0.086-0.311-0.086-0.594-0.086-0.906c0-0.34,0.029-0.736,0.057-1.135c0.029-0.424,0.086-0.906,0.086-1.445
	c0-0.453-0.029-0.963-0.113-1.531l-0.057-0.197l-0.143-0.17c-0.255-0.256-0.51-0.369-0.736-0.482
	c-0.199-0.057-0.369-0.113-0.482-0.17c-0.227-0.086-0.34-0.17-0.396-0.227c-0.028-0.029-0.028-0.029-0.028-0.057
	c0,0-0.028-0.029-0.028-0.057c0.057-0.086,0.113-0.17,0.198-0.227c0.142-0.17,0.368-0.34,0.651-0.482
	c0.256-0.143,0.596-0.283,0.908-0.453l0.481-0.227l-0.113-0.512c-0.114-0.48-0.171-0.992-0.171-1.559
	c0-0.879,0.113-1.842,0.284-2.863c0.142-1.02,0.312-2.098,0.425-3.174c0.057-0.51,0.057-0.992,0.057-1.502c0-0.256,0-0.512,0-0.766
	c0-0.766,0.029-1.475,0.17-2.014c0.086-0.254,0.17-0.51,0.313-0.68c0.057-0.113,0.142-0.199,0.255-0.283
	c0.538,0.141,1.021,0.227,1.503,0.227c0.821,0,1.559-0.199,2.182-0.369c0.652-0.17,1.191-0.311,1.701-0.311
	c0.369,0,0.709,0.057,1.134,0.283l0.284,0.17l0.311-0.143c0.256-0.113,0.454-0.254,0.596-0.396c0.227-0.227,0.396-0.396,0.539-0.482
	c0.057-0.057,0.113-0.084,0.198-0.084c0.028-0.029,0.057-0.029,0.113-0.029c0,0.029,0.028,0.057,0.028,0.113
	c0.028,0.057,0.057,0.143,0.113,0.199c0.057,0.113,0.17,0.256,0.34,0.369c0.17,0.084,0.369,0.141,0.539,0.141
	c0.113,0,0.256-0.027,0.369-0.057l0.084-0.027l0.057-0.029c0.936-0.482,2.098-0.68,3.402-0.68c1.785,0,3.826,0.367,5.896,0.766
	c2.068,0.396,4.166,0.793,6.094,0.793c0.028,0,0.057,0,0.085,0h0.425l0.17-0.369c0.284-0.566,0.652-1.076,1.021-1.643
	c0.396-0.539,0.793-1.135,1.134-1.9c0.34-0.793,0.51-1.672,0.651-2.465c0.17-0.795,0.369-1.531,0.652-2.041
	c0.113-0.199,0.283-0.398,0.51-0.596c0.313-0.313,0.737-0.625,1.135-1.049c0.197-0.227,0.368-0.453,0.51-0.766
	c0.142-0.283,0.198-0.623,0.198-0.965c0-0.311-0.057-0.623-0.142-0.963L375.008,7.425z M476.885,80.134
	c-0.142-0.539-0.283-1.076-0.34-1.672l-0.057-0.369l-0.312-0.17c-0.567-0.254-0.992-0.68-1.361-1.219
	c-0.566-0.766-0.992-1.814-1.559-2.863c-0.256-0.51-0.567-0.992-0.964-1.473c-0.255-0.285-0.567-0.568-0.879-0.795
	c0.028-0.057,0.057-0.113,0.085-0.17c0.057-0.113,0.113-0.227,0.17-0.369c0.028-0.17,0.057-0.311,0.057-0.51
	c0-0.027,0-0.057,0-0.113l-0.028-0.596l-0.595-0.027c-0.341-0.029-0.567-0.113-0.766-0.227c-0.113-0.086-0.255-0.199-0.34-0.34
	c-0.17-0.229-0.284-0.539-0.397-0.908s-0.198-0.793-0.283-1.219l-0.057-0.199l-0.142-0.141c-0.283-0.313-0.681-0.51-1.021-0.652
	c-0.255-0.084-0.511-0.17-0.766-0.256c-0.34-0.113-0.681-0.227-0.879-0.34c-0.113-0.057-0.198-0.113-0.255-0.197
	c-0.028-0.029-0.057-0.057-0.085-0.086c0.198-1.133,0.283-2.182,0.283-3.174c0-2.154-0.396-3.969-1.021-5.584
	c-0.595-1.617-1.417-3.033-2.324-4.424l-0.17-0.283l-0.368-0.027c-0.341,0-0.624-0.057-0.851-0.113
	c-0.397-0.143-0.681-0.313-0.907-0.568c-0.142-0.17-0.283-0.396-0.425-0.68c-0.199-0.426-0.369-0.936-0.539-1.531
	c-0.198-0.566-0.396-1.189-0.709-1.842c-1.162-2.438-2.607-4.592-3.741-6.746c-0.369-0.68-0.766-1.219-1.105-1.758
	c-0.341-0.51-0.596-1.02-0.709-1.588l-0.085-0.311l-0.283-0.143c-0.369-0.17-0.681-0.426-0.936-0.709
	c-0.426-0.453-0.709-0.992-0.936-1.701c-0.227-0.68-0.368-1.502-0.425-2.408l-0.028-0.51l-0.511-0.113
	c-0.312-0.059-0.481-0.143-0.595-0.285c-0.086-0.084-0.171-0.197-0.256-0.367c-0.113-0.256-0.227-0.596-0.34-0.992
	s-0.255-0.822-0.511-1.248c-0.453-0.793-1.021-1.275-1.36-1.672c-0.198-0.199-0.34-0.369-0.425-0.539
	c-0.057-0.17-0.113-0.34-0.113-0.596c0-0.197,0.028-0.424,0.113-0.736l0.113-0.426l-0.368-0.283
	c-0.284-0.197-0.567-0.34-0.851-0.453c-0.397-0.17-0.766-0.313-0.964-0.453c-0.113-0.057-0.198-0.143-0.227-0.199
	s-0.057-0.113-0.085-0.17c0.028-0.086,0.085-0.17,0.142-0.256c0.113-0.17,0.312-0.396,0.51-0.68c0.085-0.17,0.198-0.34,0.255-0.539
	c0.085-0.227,0.143-0.453,0.143-0.707l0.028-0.369l-0.313-0.227c-0.595-0.396-1.134-0.766-1.502-1.191
	c-0.198-0.227-0.312-0.453-0.426-0.736c-0.113-0.283-0.17-0.596-0.17-1.021l-0.028-0.396l-0.34-0.197
	c-0.396-0.199-0.766-0.369-1.049-0.568c-0.142-0.113-0.227-0.197-0.312-0.311c-0.057-0.057-0.113-0.17-0.171-0.256v-2.777
	l-0.708,0.057c-0.085,0.027-0.142,0.027-0.227,0.027c-0.228,0-0.397-0.027-0.539-0.084c-0.227-0.086-0.396-0.199-0.538-0.34
	c-0.143-0.115-0.256-0.285-0.369-0.455c0-0.057,0-0.141,0-0.197c0-0.482-0.085-0.908-0.227-1.275
	c-0.142-0.285-0.283-0.512-0.453-0.709c-0.228-0.313-0.511-0.539-0.737-0.738c-0.17-0.141-0.34-0.283-0.482-0.396V6.149
	l-0.453-0.141c-0.198-0.057-0.368-0.17-0.539-0.283c-0.283-0.199-0.566-0.512-0.793-0.879c-0.397-0.568-0.737-1.248-1.162-1.9
	c-0.228-0.311-0.454-0.623-0.737-0.906c-0.283-0.256-0.652-0.482-1.049-0.623c-0.34-0.086-0.652-0.143-0.964-0.143
	c-0.283,0-0.538,0.027-0.794,0.113c-0.368,0.113-0.68,0.313-1.021,0.51c-0.312,0.199-0.623,0.426-0.992,0.682
	c-1.077,0.707-2.211,1.529-3.146,2.438c-0.963,0.906-1.757,1.898-2.211,2.977l-0.17,0.453l0.34,0.311
	c0.284,0.256,0.539,0.568,0.737,0.936c0.312,0.568,0.596,1.277,0.936,2.014c0.34,0.766,0.794,1.588,1.503,2.381
	c0.312,0.369,0.708,0.652,1.077,0.906c0.566,0.369,1.134,0.652,1.587,0.965c0.227,0.141,0.425,0.313,0.596,0.453
	c0.17,0.17,0.283,0.313,0.368,0.51c0,0,0.028,0.029,0.028,0.113c0,0.086-0.028,0.256-0.057,0.455
	c-0.028,0.197-0.085,0.424-0.085,0.68c0,0.143,0.028,0.313,0.057,0.453c0.028,0.113,0.057,0.17,0.085,0.256
	c0.085,0.254,0.227,0.566,0.396,0.906c0.142,0.313,0.284,0.625,0.369,0.822c0.227,0.623,0.481,1.078,0.736,1.445
	c0.199,0.283,0.397,0.512,0.596,0.709c0.283,0.283,0.566,0.51,0.822,0.736c0.255,0.256,0.538,0.568,0.851,1.021
	c0.17,0.227,0.368,0.68,0.595,1.191c0.312,0.793,0.681,1.785,1.049,2.748c0.198,0.482,0.396,0.936,0.596,1.389
	c0.227,0.426,0.453,0.822,0.736,1.164c0.624,0.82,1.333,1.275,1.786,1.615c0.227,0.17,0.396,0.311,0.481,0.396
	c0.029,0.057,0.058,0.113,0.058,0.17c0.028,0.029,0.028,0.086,0.028,0.17c0,0.086,0,0.199-0.057,0.369
	c-0.058,0.17-0.114,0.367-0.256,0.623l-0.142,0.313l0.17,0.311c1.276,2.127,2.268,4.621,3.487,6.975
	c0.595,1.162,1.275,2.295,2.098,3.316c0.736,0.906,1.587,1.701,2.579,2.381c0,0.17-0.028,0.34-0.028,0.51
	c0,0.539,0.085,1.021,0.198,1.475c0.17,0.652,0.454,1.189,0.681,1.701c0.142,0.34,0.283,0.65,0.396,0.963
	c-0.425,0.17-0.964,0.283-1.502,0.369c-1.219,0.17-2.608,0.197-3.94,0.367c-0.681,0.086-1.304,0.199-1.928,0.398
	c-0.396,0.113-0.794,0.311-1.134,0.51c-0.227-0.143-0.453-0.283-0.709-0.369c-0.453-0.17-0.935-0.227-1.445-0.227
	c-0.879,0-1.843,0.199-2.664,0.482c-0.426,0.141-0.822,0.311-1.162,0.482c-0.171,0.057-0.313,0.141-0.454,0.227
	c-0.255-0.199-0.538-0.369-0.822-0.455c-0.481-0.17-0.964-0.197-1.445-0.197c-0.596,0-1.219,0.057-1.814,0.141
	c-0.595,0.057-1.19,0.143-1.729,0.143c-0.114,0-0.228,0-0.341,0c-0.396-0.029-0.822-0.143-1.247-0.256
	c-0.425-0.141-0.907-0.283-1.445-0.283c-0.17-0.027-0.341-0.027-0.511-0.027c-1.559,0-3.09,0.227-4.479,0.227
	c-0.851,0-1.672-0.086-2.41-0.313c-0.057-0.68-0.057-1.162-0.057-1.645c0-0.51,0-1.02,0.057-1.756
	c0.682-0.455,1.191-1.105,1.531-1.844c0.369-0.85,0.539-1.814,0.539-2.863c0-0.51-0.057-1.076-0.113-1.643
	c0.17-0.143,0.34-0.313,0.481-0.455c0.312-0.367,0.567-0.709,0.766-1.076c0.255-0.396,0.453-0.795,0.765-1.361
	c1.191-2.182,2.495-4.393,3.487-6.775c0.368-0.906,0.566-1.529,0.68-2.154c0.143-0.65,0.228-1.275,0.426-2.295
	c0.142-0.623,0.425-1.219,0.794-1.814c0.566-0.879,1.304-1.758,1.955-2.721c0.313-0.482,0.624-0.992,0.822-1.561
	c0.227-0.566,0.369-1.162,0.369-1.813c0-0.682-0.171-1.418-0.482-2.184l-0.113-0.227l-0.227-0.113
	c-1.049-0.453-2.041-0.68-2.977-0.68c-1.56,0-2.948,0.623-3.94,1.615c-0.935,0.936-1.53,2.182-1.729,3.572
	c-0.595,0.34-1.076,0.793-1.417,1.332c-0.624,0.906-0.935,1.984-1.219,3.033c-0.255,1.076-0.481,2.125-0.851,3.061
	c-0.481,1.219-1.304,2.58-2.041,4.025c-0.68,1.361-1.304,2.807-1.445,4.395c-0.255,0.141-0.453,0.311-0.623,0.51
	c-0.199,0.197-0.313,0.453-0.454,0.68c-0.142,0.369-0.255,0.736-0.368,1.105s-0.256,0.736-0.397,1.105
	c-0.142,0.34-0.368,0.623-0.595,0.852c-0.086,0.141-0.199,0.254-0.313,0.396c-0.027,0.057-0.084,0.141-0.141,0.227
	c-0.058,0.084-0.086,0.227-0.114,0.396c0,0.029,0.028,0.086,0.028,0.113c0,0.17,0.086,0.34,0.17,0.482
	c0.17,0.227,0.369,0.34,0.511,0.426c0.142,0.084,0.255,0.141,0.34,0.17c0,0,0,0,0.028,0.027c-0.17,0.256-0.396,0.482-0.68,0.68
	c-0.313,0.256-0.737,0.512-1.162,0.795l-0.369,0.254l0.085,0.455c0.057,0.197,0.085,0.396,0.085,0.594
	c0,0.313-0.085,0.596-0.17,0.879c-0.17,0.398-0.453,0.766-0.822,1.049c-0.34,0.313-0.822,0.568-1.332,0.738l-0.34,0.113
	l-0.086,0.367c-0.197,0.852-0.51,1.475-0.935,2.041c-0.596,0.822-1.446,1.447-2.296,2.184c-0.397,0.396-0.822,0.793-1.191,1.275
	c-0.368,0.482-0.68,1.049-0.906,1.701c-0.143,0.426-0.17,0.85-0.17,1.219c0,0.227,0,0.453,0,0.652c0,0.396,0,0.736-0.113,1.133
	c-0.454,1.645-1.361,3.6-2.098,5.301c-0.766,1.701-1.673,3.289-2.807,4.338l-0.199,0.197v2.127
	c-1.246,0.963-2.211,1.955-3.117,3.061c-0.965,1.162-1.843,2.438-2.92,3.885c-0.539,0.707-1.219,1.615-1.786,2.551
	c-0.283,0.482-0.538,0.963-0.737,1.445c-0.198,0.482-0.312,0.965-0.312,1.445c0,0.283,0.028,0.539,0.113,0.795
	c0.142,0.396,0.397,0.736,0.737,0.992c0.369,0.254,0.793,0.424,1.332,0.537c0.028,0.029,0.057,0.029,0.086,0.029
	c0.057,0,0.084,0,0.141,0c0.113,0,0.256,0,0.454,0c0.651-0.057,1.757-0.143,2.806-0.227c0.511-0.057,1.021-0.113,1.446-0.17
	c0.198-0.029,0.396-0.057,0.567-0.086c0.17-0.027,0.311-0.057,0.425-0.084c0.538-0.143,1.049-0.398,1.474-0.682
	c0.652-0.424,1.162-0.936,1.615-1.332c0.228-0.197,0.426-0.369,0.568-0.482c0.17-0.113,0.311-0.197,0.34-0.197l0.425-0.113
	l0.085-0.426c0.283-1.729,0.936-3.061,1.701-4.451c0.68-1.332,1.474-2.664,1.928-4.365c0.51-0.311,0.906-0.707,1.246-1.049
	l0.256-0.254l-0.085-0.34c0-0.057,0-0.113,0-0.17c0-0.199,0.028-0.342,0.113-0.512c0.113-0.254,0.34-0.51,0.567-0.766
	c0.113-0.113,0.227-0.254,0.34-0.396c0.085-0.113,0.198-0.283,0.283-0.48c0.085-0.199,0.142-0.398,0.142-0.596
	c0.028-0.199,0.028-0.369,0.028-0.539c0-0.086,0-0.17,0-0.256c0-0.17,0-0.311,0.028-0.453c0-0.113,0.028-0.197,0.058-0.254
	c0.084-0.199,0.254-0.426,0.424-0.652c0.284-0.369,0.652-0.766,0.992-1.191c0.369-0.426,0.738-0.879,0.992-1.389
	c0.313-0.596,0.397-1.191,0.511-1.701c0.028-0.227,0.057-0.453,0.113-0.623c0.057-0.143,0.085-0.256,0.114-0.283
	c0.227-0.283,0.453-0.51,0.736-0.709c0.396-0.256,0.851-0.453,1.418-0.566c0.566-0.113,1.219-0.143,1.955-0.143
	c1.475,0,3.203,0.17,5.103,0.17c0.681,0,1.36-0.027,2.098-0.084l0.312-0.029l0.199-0.283c0.17-0.313,0.453-0.539,0.793-0.68
	c0.34-0.17,0.766-0.256,1.219-0.256c0.482,0,0.992,0.113,1.446,0.283c0.453,0.199,0.821,0.453,1.077,0.738l0.481,0.566l0.511-0.566
	c0.17-0.199,0.34-0.313,0.538-0.426c0.255-0.17,0.567-0.283,0.992-0.34c0.368-0.057,0.822-0.086,1.332-0.086
	c0.397,0,0.851,0.029,1.305,0.029c0.312,0,0.651,0,0.992-0.029c2.834-0.141,6.094-0.453,8.759-0.453c1.077,0,2.069,0.057,2.863,0.17
	c0.736,0.113,1.417,0.396,2.098,0.68c0.34,0.17,0.708,0.313,1.076,0.426c0.369,0.143,0.766,0.227,1.163,0.256
	c0.057,0,0.142,0,0.198,0c0.255,0,0.51-0.029,0.822-0.057c0.425-0.057,0.935-0.143,1.417-0.199c0.481-0.057,0.964-0.113,1.332-0.113
	c0.283,0,0.511,0.027,0.624,0.057c0,0,0.113,0.057,0.227,0.17c0.255,0.199,0.566,0.539,0.907,0.965
	c0.51,0.65,1.049,1.473,1.502,2.268c0.227,0.396,0.426,0.764,0.596,1.133c0.142,0.369,0.283,0.68,0.34,0.936c0,0,0,0.029,0,0.057
	c0,0.057,0,0.17-0.028,0.313c-0.028,0.141-0.057,0.311-0.057,0.51c0,0.17,0.028,0.369,0.113,0.566l0,0
	c0.539,1.191,1.247,2.211,1.928,3.176c0.652,0.963,1.247,1.842,1.53,2.693c0.199,0.566,0.228,1.076,0.256,1.615
	c0,0.283,0.028,0.566,0.057,0.85s0.113,0.566,0.255,0.852c0.566,1.076,1.332,2.068,2.069,3.09c0.709,1.02,1.36,2.041,1.644,3.004
	c0.171,0.539,0.228,0.992,0.284,1.361c0.028,0.283,0.028,0.537,0.057,0.764c0.028,0.172,0.028,0.342,0.085,0.539
	c0.028,0.143,0.057,0.283,0.142,0.426c0.113,0.199,0.312,0.396,0.51,0.539c0.199,0.141,0.426,0.227,0.709,0.311
	c0.142,0.057,0.283,0.086,0.454,0.086c0.198,0,0.368-0.057,0.538-0.113c0.227-0.086,0.396-0.199,0.539-0.283
	c0.17-0.113,0.312-0.17,0.481-0.227c0.511-0.172,0.936-0.229,1.332-0.229c0.341,0,0.709,0.029,1.077,0.029
	c0.228,0,0.454,0,0.709-0.057c0.142-0.029,0.255-0.086,0.368-0.143c0.17-0.084,0.313-0.17,0.454-0.283
	c0.198-0.141,0.396-0.311,0.595-0.424c0.199-0.086,0.369-0.143,0.482-0.143c0.085,0,0.17,0.027,0.283,0.113l0.709,0.426l0.283-0.795
	c0.34-0.992,0.766-1.842,1.304-2.551c0.567-0.709,1.219-1.246,2.069-1.615l0.511-0.227l-0.113-0.539
	C477.196,81.269,477.026,80.7,476.885,80.134z M410.214,44.956L410.214,44.956L410.214,44.956L410.214,44.956L410.214,44.956z
	 M597.584,94.96c-0.312-1.445-3.94-2.07-6.151-3.232c-2.268-1.189-4.053-3.4-5.329-4.309c-1.134-0.793-2.891-1.275-3.741-1.898
	c-0.397-0.256-0.596-0.936-1.077-1.332c-0.482-0.369-1.219-0.455-1.616-0.822c-1.105-0.965-2.013-2.184-3.203-3.232
	c-2.494-2.125-4.733-4.365-6.944-6.434c-1.361-1.305-3.033-2.014-4.025-2.977c-1.077-1.078-1.645-2.664-2.665-3.771
	c-1.7-1.756-3.628-2.861-5.357-4.563c-0.198-0.623-0.255-1.389-0.538-1.9c-3.458-2.805-5.925-6.604-9.1-9.693
	c-0.964-0.539-1.077,0.482-2.409,0.283c-0.596-0.766-1.219-1.475-1.049-2.977c-1.36,0.369-2.239,0.396-2.693-0.539
	c0.057,0.113,0.028-2.238,0.284-2.691c0.765-1.475,4.479-1.361,6.15-1.617c4.337-0.652,5.472-3.543,9.354-5.641
	c0.766-0.426,1.475-0.369,2.126-0.822c2.353-1.588,4.025-4.053,4.819-6.463c1.304-0.936,2.154-2.324,3.77-2.947
	c0.028-2.07,1.701-3.373,2.41-5.387c2.692-7.852-2.41-11.621-7.768-14.002c-1.928-0.852-3.571-0.936-5.612-1.361
	c-1.332-0.256-2.466-1.105-4.025-1.332c-1.247-0.17-2.834-0.199-4.28-0.283c-5.612-0.227-12.671-0.568-16.838-0.256
	c-3.175,0.227-5.499,2.324-8.306,1.615c-1.983-1.756-3.032-4.479-5.612-5.668c-1.474,1.871-2.211,1.02-4.818,1.898
	c-2.126,0.68-3.969,2.184-4.819,2.41c-2.211,0.623-5.159,0.084-5.896,2.693c1.928,1.473,4.536,2.268,6.436,3.77
	c-0.426,1.389,0.623,2.438,0.793,3.23c0.113,0.512-0.17,1.162,0,1.617c0.313,0.906,1.134,1.502,1.333,2.438
	c0.368,1.559-0.086,4.252,0,6.463c0.028,0.709,0.481,1.389,0.538,2.154c0.227,2.947-0.312,6.15,0.539,8.617
	c0.283,0.822,0.793,0.879,1.077,1.332c1.304,2.154,0.028,3.742-1.871,4.053c0.085,1.135,0.794,1.248,0.794,2.41
	c0,0.68-0.539,1.418-0.539,2.154c0.028,1.305,0.737,2.637,0.822,4.053c0.198,3.885-1.899,8.107-0.283,11.85
	c0.255,1.078-0.794,0.793-0.539,1.871c0.822,1.219,2.608,2.012,2.154,3.77c-0.368,1.418-1.445,0.738-2.409,1.9
	c-0.596,3.996,0.085,7.965-0.539,11.564c-0.368,2.07-2.324,3.77-1.87,5.924c3.146,0.398,3.911-1.502,6.15-2.154
	c3.26-0.936,6.747-0.084,8.561-2.154c1.361-1.559,0.511-4.053,0-6.717c-0.312-1.588-0.964-3.43-1.077-5.131
	c-0.142-2.184,0.454-4.535,0.284-6.436c-0.085-0.793-0.652-1.645-0.822-2.977c-0.34-2.92,0.142-8.361,2.154-8.871
	c0.907-0.256,2.069,0.311,3.203,0.793c4.139,1.729,5.981,4.932,8.561,7.541c1.162,0.113,1.899,0.623,2.693,1.076
	c0.142,3.402,2.721,4.053,4.535,5.641c0.766,0.709,1.247,1.871,2.126,2.723c0.453,0.396,1.219,0.396,1.615,0.793
	c0.397,0.396,0.596,1.162,1.077,1.615c1.673,1.645,3.997,2.807,5.613,4.592c1.275,1.389,1.956,3.346,3.203,4.82
	c0.736,0.879,1.984,1.785,2.948,2.691c1.049,1.021,1.87,2.268,2.664,2.977c1.077,0.908,2.607,1.078,3.742,1.871
	c0.651,0.453,0.936,1.389,1.615,1.9c1.134,0.85,2.665,0.82,3.458,1.615c1.077,0.992,1.305,2.607,2.154,3.486
	c1.928,1.984,3.969,1.898,7.768,2.154c1.928,0.143,3.741,0.68,5.074,0.539c0.963-0.086,1.729-0.709,2.947-0.795
	c1.616-0.141,3.742,0.766,5.613,0.256C596.224,98.39,597.952,96.575,597.584,94.96z M535.25,38.692
	c-0.851,0.197-2.013,0.566-2.919,0.793c-1.135,0.283-2.269,0.199-2.948,0.539c-2.239,1.105-1.928,4.279-5.357,4.592
	c-0.171-3.316,1.134-9.213,0.283-12.672c-0.34-1.359-1.417-1.756-1.899-2.691c0.255-1.105,0.851-1.418,1.077-2.693
	c0.482-2.664-0.822-7.229,0.283-9.156c0.596-1.076,4.678-1.955,6.407-2.154c6.859-0.793,19.417,0.879,21.939,3.77
	c1.446,1.674,1.219,2.807,0.539,4.848c-0.992,2.92-1.758,3.969-3.487,6.463c-2.183,3.203-4.252,5.5-8.021,7.002
	C539.417,38.011,537.206,38.237,535.25,38.692z"/>
</svg>
