<?xml version="1.0" encoding="utf-8"?>
<!-- Generator: Adobe Illustrator 16.0.0, SVG Export Plug-In . SVG Version: 6.00 Build 0)  -->
<!DOCTYPE svg PUBLIC "-//W3C//DTD SVG 1.1//EN" "http://www.w3.org/Graphics/SVG/1.1/DTD/svg11.dtd">
<svg version="1.1" id="Layer_1" xmlns="http://www.w3.org/2000/svg" xmlns:xlink="http://www.w3.org/1999/xlink" x="0px" y="0px"
	 width="500px" height="495px" viewBox="0 0 500 495" enable-background="new 0 0 500 495" xml:space="preserve">
<path fill="#FFFFFF" d="M190.331,61.249c-0.199,2.608-0.652,6.774-1.899,12.756c-1.275,5.981-3.402,13.776-4.706,18.028
	c-1.304,4.252-1.814,5.017-2.126,6.151c-0.312,1.134-0.425,2.693-0.879,4.224c-0.454,1.559-1.219,3.146-2.154,4.989
	c-0.935,1.842-2.069,3.997-2.778,6.208c-0.737,2.211-1.077,4.479-1.502,5.896c-0.397,1.417-0.878,1.956-1.105,2.834
	c-0.227,0.879-0.198,2.069-0.624,3.062c-0.426,0.993-1.275,1.814-1.871,2.891c-0.624,1.077-0.992,2.438-1.757,4.394
	c-0.765,1.956-1.956,4.507-2.948,6.803c-0.992,2.296-1.814,4.337-2.24,5.839c-0.454,1.502-0.482,2.438-0.878,3.628
	c-0.425,1.191-1.219,2.608-2.098,4.337c-0.851,1.757-1.814,3.798-2.353,5.471c-0.539,1.644-0.68,2.891-1.134,4.195
	c-0.454,1.275-1.219,2.58-1.871,3.827c-0.652,1.247-1.219,2.41-1.474,3.657c-0.284,1.275-0.284,2.608-0.51,3.458
	c-0.227,0.822-0.681,1.163-1.701,2.041c-0.992,0.879-2.58,2.268-3.345,2.977c-0.793,0.68-0.793,0.68-1.049,1.502
	c-0.227,0.793-0.708,2.381-1.134,3.542c-0.454,1.191-0.822,1.929-1.077,3.176c-0.255,1.219-0.397,2.977-0.737,4.309
	c-0.369,1.305-0.936,2.239-1.276,3.43c-0.34,1.19-0.454,2.693-0.482,3.543c-0.028,0.851,0.028,1.078-0.255,1.672
	c-0.255,0.596-0.851,1.56-1.276,2.666c-0.425,1.076-0.652,2.268-0.992,3.345c-0.34,1.104-0.794,2.069-1.417,2.978
	c-0.624,0.879-1.417,1.729-1.843,2.125c-0.396,0.426-0.396,0.426-0.396,0.766c-0.028,0.369-0.057,1.076-0.057,1.729
	c-0.028,0.652-0.028,1.247-0.028,1.559c0,0.313,0,0.313,0.142,0.313c0.142,0.028,0.425,0.057,0.964,0.566
	c0.539,0.511,1.304,1.503,2.608,3.231c1.275,1.729,3.118,4.167,4.195,5.698c1.049,1.502,1.361,2.068,1.531,2.354
	c0.17,0.282,0.17,0.282,0.425,0.282c0.255-0.028,0.766-0.057,1.248-0.17c0.51-0.142,0.992-0.368,1.332-0.595
	c0.312-0.256,0.482-0.51,0.567-0.624c0.085-0.142,0.085-0.142,0.113,0.057s0.085,0.595,0.028,1.304s-0.227,1.701-0.312,2.184
	c-0.085,0.51-0.085,0.51,0.113,0.566c0.198,0.058,0.595,0.17,1.049,0.369c0.425,0.17,0.879,0.426,1.644,1.248
	c0.766,0.851,1.843,2.238,2.977,3.345c1.134,1.076,2.296,1.898,3.316,2.521c1.021,0.652,1.871,1.134,2.608,1.446
	c0.765,0.284,1.417,0.396,1.757,0.454c0.34,0.057,0.369,0.057,0.595,0.283c0.199,0.255,0.596,0.709,1.814,1.928
	c1.219,1.189,3.26,3.146,4.535,4.507c1.276,1.332,1.786,2.125,2.183,2.834c0.397,0.708,0.709,1.36,0.851,1.7
	c0.17,0.313,0.17,0.313,0.454,0.426c0.283,0.085,0.851,0.283,1.786,0.736c0.936,0.481,2.24,1.19,3.175,1.786
	c0.964,0.596,1.531,1.076,1.871,1.474c0.369,0.396,0.51,0.709,0.936,1.105c0.425,0.396,1.134,0.851,1.701,1.077
	c0.567,0.228,1.021,0.228,1.644,0.596c0.623,0.367,1.446,1.104,2.665,2.126c1.247,1.021,2.863,2.296,3.94,2.947
	c1.049,0.682,1.587,0.737,2.126,1.22c0.539,0.453,1.105,1.359,1.984,1.983c0.851,0.652,2.041,1.049,2.92,1.56
	c0.907,0.481,1.531,1.076,1.842,1.39c0.312,0.283,0.312,0.283,0.794,0.028s1.417-0.767,2.324-2.269
	c0.936-1.503,1.843-4.024,2.523-6.065c0.681-2.014,1.104-3.571,1.502-4.563c0.425-0.964,0.822-1.36,0.964-1.871
	c0.142-0.539,0.028-1.162-0.256-1.503c-0.283-0.368-0.736-0.453-0.936-0.765c-0.17-0.313-0.086-0.852,0.227-1.418
	c0.34-0.566,0.907-1.19,1.475-1.757c0.566-0.567,1.134-1.105,1.36-1.729c0.198-0.624,0.028-1.333,0.142-2.098
	c0.113-0.767,0.511-1.56,0.682-2.58c0.17-0.992,0.113-2.24,0.057-3.686c-0.027-1.445-0.057-3.146,0.313-5.301
	c0.369-2.153,1.134-4.762,1.645-7.087c0.51-2.324,0.766-4.365,1.133-7.199c0.396-2.863,0.879-6.549,1.39-9.326
	c0.539-2.75,1.104-4.621,1.616-6.321c0.511-1.7,0.964-3.288,1.502-4.195c0.539-0.935,1.134-1.219,1.417-1.36
	c0.312-0.142,0.312-0.142,0.481-1.021s0.51-2.608,1.247-5.896c0.737-3.317,1.899-8.165,2.892-12.02s1.843-6.747,2.494-9.354
	c0.681-2.58,1.135-4.904,1.361-6.066c0.227-1.134,0.227-1.134,0.482-1.134c0.283,0,0.822,0,1.416,0.142
	c0.568,0.17,1.191,0.482,1.503,0.624c0.34,0.17,0.34,0.17,0.567-0.113c0.227-0.284,0.68-0.851,1.219-1.304s1.162-0.765,1.871-0.963
	c0.68-0.227,1.474-0.34,1.843-0.397c0.396-0.057,0.396-0.057,0.198-0.255c-0.17-0.198-0.539-0.595-0.852-0.822
	c-0.283-0.198-0.539-0.227-0.652-0.255c-0.113,0-0.113,0,0.198-0.057c0.341-0.028,0.964-0.113,1.646,0.028
	c0.707,0.142,1.474,0.51,2.268,0.992c0.793,0.482,1.587,1.077,2.296,1.587c0.737,0.539,1.39,0.964,2.013,1.531
	c0.625,0.595,1.248,1.333,1.842,1.928c0.597,0.567,1.191,0.992,1.617,1.275c0.424,0.284,0.68,0.397,0.821,0.454
	c0.113,0.057,0.113,0.057,0.142,0.255c0,0.199,0.029,0.596-0.084,0.822c-0.143,0.255-0.426,0.34-0.397,0.879
	s0.369,1.531,0.794,2.721c0.454,1.162,0.964,2.495,0.879,3.09c-0.057,0.595-0.736,0.396-1.049,0.312
	c-0.34-0.085-0.34-0.085,0.057,0.851c0.396,0.907,1.219,2.721,2.381,6.265c1.19,3.515,2.777,8.729,3.713,11.849
	c0.966,3.09,1.306,4.11,1.476,4.592c0.17,0.51,0.17,0.51,0.17,1.219c-0.028,0.709-0.057,2.154-0.057,2.863
	c-0.028,0.709-0.028,0.709,0.142,0.937c0.172,0.255,0.512,0.737,0.682,1.134s0.17,0.709,0.453,1.276
	c0.313,0.538,0.879,1.304,1.418,2.296c0.565,0.964,1.104,2.183,1.389,2.777c0.255,0.596,0.255,0.596,0.255,1.135
	s0,1.615,0.028,2.578c0,0.937,0.027,1.729,0.227,2.269c0.17,0.539,0.512,0.822,0.682,0.963c0.17,0.142,0.17,0.142,0.142,0.681
	c-0.058,0.539-0.142,1.588-0.312,2.381c-0.171,0.795-0.426,1.334-0.539,1.617c-0.143,0.254-0.143,0.254,0.396,1.275
	c0.539,0.992,1.645,2.977,2.579,5.329c0.936,2.324,1.729,5.017,2.239,7.342c0.511,2.354,0.766,4.337,1.104,5.896
	c0.34,1.53,0.794,2.607,1.162,3.4c0.397,0.794,0.709,1.276,1.021,2.637c0.312,1.39,0.623,3.629,0.879,5.67
	c0.254,2.041,0.453,3.854,0.906,5.271c0.426,1.39,1.077,2.354,1.389,3.146c0.342,0.793,0.342,1.389,0.342,2.098
	c0,0.708,0,1.53,0,1.955c0,0.397,0,0.397,0.34,0.539c0.368,0.142,1.077,0.453,1.984,0.737c0.906,0.282,1.983,0.565,2.521,0.708
	c0.539,0.142,0.539,0.142,0.794-0.228c0.228-0.368,0.709-1.134,1.446-2.013c0.708-0.879,1.645-1.899,2.211-3.033
	c0.566-1.162,0.766-2.409,0.879-3.033c0.084-0.623,0.084-0.623,0.283-0.595c0.197,0.057,0.595,0.142,0.766,0.396
	c0.17,0.256,0.057,0.681,0.027,0.906c-0.057,0.198-0.057,0.198,0.227-0.085c0.284-0.282,0.822-0.851,1.646-1.474
	c0.821-0.596,1.928-1.276,2.977-1.786c1.05-0.538,2.013-0.936,2.978-1.701c0.936-0.765,1.897-1.927,2.637-2.834
	c0.766-0.907,1.332-1.588,2.012-2.183c0.682-0.567,1.502-1.049,1.899-1.306c0.397-0.255,0.397-0.255,0.255-0.452
	c-0.113-0.198-0.368-0.597-0.51-0.992c-0.113-0.396-0.113-0.793-0.113-0.992s0-0.199,0.34-0.199s1.021,0,1.502-0.027
	c0.454-0.028,0.709-0.086,0.965-0.256c0.254-0.17,0.51-0.454,0.793-0.624c0.283-0.142,0.566-0.17,0.907-0.142
	c0.368,0.057,0.794,0.17,1.19,0.199c0.426,0.057,0.822,0.027,1.189-0.255c0.368-0.283,0.709-0.851,1.844-1.871
	c1.104-1.021,2.977-2.523,4.619-4.055c1.646-1.53,3.033-3.062,3.969-4.054c0.908-0.992,1.332-1.417,1.758-1.701
	c0.426-0.255,0.852-0.367,1.248-0.708c0.396-0.312,0.766-0.851,1.332-1.983c0.565-1.105,1.305-2.778,1.813-4.252
	c0.511-1.446,0.793-2.666,1.104-3.686c0.313-1.021,0.652-1.814,0.822-2.211s0.17-0.396,0-0.708c-0.17-0.284-0.511-0.879-0.623-1.587
	c-0.113-0.736,0-1.559,0.142-2.324c0.112-0.738,0.256-1.418,0.34-1.758c0.058-0.369,0.058-0.369,0.283-0.227
	c0.228,0.113,0.651,0.34,0.991,0.68c0.369,0.34,0.652,0.793,0.738,1.616c0.113,0.793,0.027,1.983-0.029,2.919
	c-0.026,0.964-0.026,1.701-0.026,2.068c0,0.369,0,0.369,0.424,0.143c0.427-0.255,1.276-0.737,1.929-1.275
	c0.681-0.539,1.135-1.135,1.36-1.447c0.228-0.282,0.228-0.282,0.623-0.312c0.427,0,1.248-0.028,1.899-0.198
	c0.652-0.171,1.162-0.453,1.645-0.625c0.48-0.17,0.964-0.227,1.305-0.425c0.34-0.198,0.539-0.539,1.246-1.36
	c0.709-0.793,1.956-2.098,3.146-3.117c1.22-1.049,2.438-1.842,3.033-2.239c0.595-0.397,0.595-0.397,0.511-0.851
	c-0.058-0.482-0.199-1.39-0.652-2.127c-0.481-0.765-1.248-1.359-2.013-2.408c-0.794-1.049-1.587-2.523-2.041-3.713
	c-0.454-1.22-0.566-2.127-0.624-2.58c-0.058-0.455-0.058-0.455-0.511-0.426c-0.452,0.029-1.332,0.086-1.758,0.113
	c-0.453,0.028-0.453,0.028-0.396-0.255c0.058-0.255,0.17-0.794,0.228-1.616c0.057-0.851,0.057-1.955,0.198-2.665
	c0.113-0.681,0.367-0.964,0.511-1.304c0.112-0.34,0.112-0.766-0.767-2.523c-0.851-1.757-2.606-4.904-3.912-8.106
	c-1.332-3.203-2.237-6.491-2.749-9.269c-0.48-2.778-0.537-5.074-0.566-6.208c-0.028-1.162-0.028-1.162-0.368-1.559
	c-0.368-0.425-1.077-1.247-1.446-1.672c-0.34-0.397-0.34-0.397-0.538-0.199c-0.198,0.227-0.595,0.652-0.991,0.879
	c-0.426,0.198-0.822,0.198-1.135-0.284c-0.313-0.481-0.539-1.445-0.596-2.466s0.057-2.069-0.68-4.989
	c-0.767-2.891-2.41-7.653-3.231-10.8c-0.821-3.146-0.851-4.649-1.19-5.811c-0.338-1.162-0.992-1.956-1.305-2.58
	c-0.283-0.624-0.227-1.077-0.084-1.446c0.17-0.368,0.426-0.652,0-1.899c-0.396-1.248-1.503-3.458-2.354-6.293
	c-0.879-2.863-1.531-6.378-2.863-10.914c-1.36-4.535-3.373-10.091-5.074-14.683c-1.672-4.592-3.004-8.221-4.336-11.849
	c-1.332-3.657-2.637-7.285-3.289-9.127c-0.68-1.814-0.68-1.814-1.02-1.644c-0.342,0.198-1.021,0.567-1.418,0.737
	c-0.426,0.17-0.566,0.142-0.652-0.822c-0.057-0.936-0.057-2.835-0.879-7.03c-0.821-4.224-2.494-10.743-4.023-16.044
	c-1.561-5.301-2.978-9.354-3.885-12.076c-0.906-2.721-1.304-4.11-2.211-6.321c-0.879-2.211-2.239-5.244-3.23-8.022
	c-0.992-2.778-1.588-5.329-1.871-7.115c-0.313-1.758-0.313-2.807-0.313-4.025c-0.027-1.219-0.057-2.665-0.057-3.373
	c-0.028-0.709-0.028-0.709-0.453-1.502c-0.454-0.794-1.332-2.41-1.928-3.572c-0.597-1.19-0.879-1.956-1.021-2.353
	s-0.143-0.397-0.425,0.028c-0.313,0.397-0.908,1.19-1.19,1.587c-0.313,0.397-0.313,0.397-1.248-0.397
	c-0.906-0.765-2.777-2.353-4.394-3.798c-1.646-1.446-3.033-2.806-3.742-3.487c-0.68-0.708-0.68-0.765-1.474-0.595
	c-0.795,0.142-2.354,0.51-3.316,0.879c-0.936,0.34-1.275,0.68-1.673,1.077s-0.822,0.822-1.53,1.105
	c-0.709,0.283-1.701,0.425-2.693,0.964c-0.99,0.539-1.955,1.474-2.635,2.183c-0.654,0.708-1.021,1.162-1.221,1.389
	c-0.17,0.227-0.17,0.227-0.425,0.652c-0.255,0.454-0.737,1.332-1.701,2.494c-0.992,1.163-2.466,2.58-3.827,4.252
	c-1.332,1.701-2.523,3.628-3.685,4.621c-1.134,0.964-2.212,0.964-3.572,1.361c-1.39,0.425-3.032,1.247-4.422,1.984
	c-1.417,0.708-2.552,1.36-3.458,1.701c-0.878,0.368-1.559,0.454-2.324,0.992c-0.793,0.567-1.701,1.587-2.863,2.665
	c-1.19,1.077-2.607,2.183-3.884,3.004c-1.274,0.794-2.381,1.304-2.919,1.587c-0.566,0.255-0.566,0.255-0.794,0.652
	c-0.198,0.425-0.624,1.247-1.446,2.522c-0.822,1.304-2.012,3.033-2.976,4.082c-0.937,1.049-1.672,1.446-2.013,1.616
	c-0.369,0.198-0.369,0.198-0.965,0.198c-0.623,0-1.842,0-3.004-0.113c-1.162-0.113-2.24-0.34-2.778-0.482
	c-0.539-0.113-0.539-0.113-0.992,0.51c-0.453,0.595-1.389,1.786-2.721,3.487c-1.36,1.729-3.175,3.94-4.592,5.527
	c-1.417,1.559-2.495,2.466-3.005,2.92c-0.539,0.454-0.539,0.454-0.539,0.992C190.587,57.587,190.557,58.641,190.331,61.249z
	 M198.438,34.091c1.247-0.708,3.004-1.672,4.592-2.579c1.587-0.879,3.062-1.729,3.912-2.353c0.879-0.624,1.162-1.049,1.304-1.275
	c0.143-0.199,0.143-0.199,1.021-0.255c0.879-0.057,2.607-0.17,3.855-0.198c1.246-0.028,1.983,0.028,2.465,0.227
	c0.51,0.199,0.767,0.539,1.135,0.907c0.34,0.34,0.794,0.708,1.021,0.907c0.228,0.17,0.228,0.17-0.112,0.539
	c-0.34,0.368-1.021,1.134-1.871,1.729c-0.852,0.624-1.899,1.105-2.551,1.446c-0.652,0.34-0.937,0.539-0.992,0.793
	c-0.058,0.227,0.112,0.51,0.34,0.68c0.197,0.142,0.453,0.17,0.396,0.34c-0.057,0.17-0.425,0.454-0.991,0.879
	c-0.567,0.425-1.332,0.992-1.957,1.502c-0.651,0.51-1.134,0.963-1.36,1.19c-0.255,0.227-0.255,0.227-0.851,0.198
	c-0.625-0.057-1.843-0.142-3.601-0.113c-1.758,0.028-4.054,0.17-5.188,0.255c-1.162,0.057-1.19,0.057-1.389-0.085
	c-0.17-0.17-0.51-0.482-1.162-0.765c-0.68-0.284-1.644-0.539-2.126-0.652c-0.482-0.142-0.482-0.142-0.454-0.369
	c0.057-0.227,0.142-0.68,0.17-0.907c0.057-0.227,0.057-0.227,0.34-0.283c0.255-0.028,0.794-0.114,1.446-0.369
	C196.481,35.226,197.218,34.772,198.438,34.091z M106.851,313.588c-0.227,1.674-0.567,3.741-1.021,5.612
	c-0.454,1.898-1.021,3.601-1.304,4.451s-0.283,0.851-0.368,2.041c-0.085,1.162-0.227,3.486-0.425,5.328
	c-0.198,1.813-0.454,3.146-0.822,4.139c-0.368,1.021-0.85,1.729-1.105,2.099c-0.227,0.34-0.227,0.34-0.539,1.502
	c-0.312,1.135-0.935,3.401-2.126,6.039c-1.19,2.635-2.919,5.584-4.394,8.049c-1.446,2.438-2.608,4.395-3.657,6.945
	c-1.077,2.579-2.013,5.782-3.203,9.553c-1.162,3.742-2.608,8.078-3.969,11.453c-1.332,3.373-2.636,5.78-3.628,7.455
	c-1.021,1.698-1.758,2.69-2.126,3.202c-0.369,0.511-0.369,0.511-0.34,0.992c0.028,0.48,0.085,1.445,0.113,1.926
	c0.028,0.482,0.028,0.482-0.283,0.513c-0.312,0-0.907,0.026-1.219,0.057c-0.34,0-0.396,0-1.021,0.793
	c-0.595,0.767-1.757,2.297-2.976,3.713c-1.219,1.418-2.466,2.693-3.402,4.082c-0.935,1.418-1.53,2.92-2.579,4.592
	c-1.049,1.675-2.58,3.488-3.94,4.935c-1.389,1.416-2.665,2.438-3.288,2.947c-0.623,0.509-0.624,0.51-0.794,1.248
	c-0.198,0.766-0.567,2.237-0.992,3.485c-0.425,1.275-0.907,2.297-1.162,3.771c-0.227,1.475-0.227,3.43-0.539,5.018
	c-0.283,1.588-0.85,2.807-1.134,3.43c-0.283,0.597-0.283,0.597-0.085,0.796c0.17,0.17,0.539,0.536,0.907,0.877
	c0.396,0.368,0.765,0.682,0.935,0.821c0.199,0.17,0.199,0.17-0.396,0.597c-0.595,0.426-1.758,1.274-2.325,1.7
	c-0.595,0.427-0.595,0.427-0.454,0.937c0.17,0.51,0.482,1.559,0.709,3.033c0.227,1.444,0.368,3.373,0.454,4.336
	c0.057,0.936,0.057,0.936,0.51,1.162c0.453,0.198,1.389,0.625,2.296,1.561c0.936,0.936,1.871,2.352,2.551,3.969
	c0.708,1.615,1.134,3.4,1.672,4.818c0.539,1.389,1.19,2.381,1.786,3.486c0.596,1.104,1.134,2.297,1.417,2.891
	c0.283,0.596,0.283,0.596,0.624,0.568c0.369-0.029,1.077-0.086,2.069-0.029c0.964,0.057,2.239,0.227,3.005,0.426
	c0.793,0.17,1.105,0.367,1.445,0.482c0.312,0.084,0.652,0.084,1.021-0.144c0.34-0.227,0.737-0.68,0.936-0.905
	c0.199-0.257,0.227-0.285,0.992-0.173c0.765,0.087,2.268,0.313,3.543,0.652c1.275,0.313,2.296,0.738,2.75,1.219
	c0.425,0.482,0.283,0.992-1.077,2.041c-1.333,1.021-3.912,2.609-5.188,3.373c-1.275,0.795-1.275,0.795-0.283,0.482
	c0.992-0.313,2.976-0.937,5.13-1.56c2.154-0.623,4.479-1.219,6.803-1.475c2.325-0.254,4.677-0.17,6.123-0.197
	c1.474-0.028,2.069-0.172,2.891-0.512c0.822-0.367,1.843-0.936,2.353-1.219c0.51-0.283,0.51-0.283,1.332-0.283
	c0.851,0,2.495,0,4.28,0.057c1.814,0.086,3.742,0.228,5.188,0.113c1.446-0.084,2.381-0.424,3.288-0.596
	c0.879-0.142,1.757-0.113,2.438,0.057c0.708,0.172,1.247,0.482,1.701,0.652c0.454,0.198,0.822,0.256,1.502,0.256
	c0.68,0,1.644-0.058,2.863-0.113c1.219-0.029,2.721-0.057,3.884,0.197c1.134,0.285,1.984,0.852,2.551,1.135
	c0.567,0.283,0.879,0.283,1.304,0.057c0.425-0.256,0.964-0.735,1.871-1.418c0.907-0.649,2.154-1.528,3.374-1.955
	c1.219-0.452,2.438-0.481,3.175-0.112c0.765,0.34,1.077,1.104,1.19,1.672c0.113,0.567,0.028,0.965-0.68,1.418
	c-0.681,0.453-1.984,0.963-3.146,1.502c-1.162,0.566-2.154,1.135-2.665,1.418c-0.482,0.283-0.482,0.283,0.028,0.283
	c0.51,0,1.531,0,2.948-0.086c1.446-0.084,3.26-0.254,4.621-0.851c1.389-0.623,2.296-1.645,3.203-2.522
	c0.907-0.906,1.843-1.672,2.296-2.068c0.454-0.396,0.454-0.396,0.822-0.369c0.369,0,1.105,0.029,1.928,0.369
	c0.793,0.312,1.701,0.906,2.239,1.304c0.567,0.426,0.793,0.651,0.907,0.766c0.113,0.113,0.113,0.113,0.482-0.057
	c0.368-0.142,1.105-0.453,2.211-0.623s2.551-0.199,3.316-0.228c0.765,0,0.822,0,0.284-0.313c-0.51-0.313-1.588-0.937-2.778-1.673
	c-1.19-0.709-2.522-1.502-3.175-2.098c-0.68-0.565-0.708-0.936-0.368-1.021c0.34-0.084,1.049,0.112,2.268,0.596
	c1.219,0.51,2.919,1.305,4.337,2.014c1.446,0.707,2.58,1.359,3.146,1.672c0.566,0.313,0.567,0.313,1.417,0.17
	c0.822-0.143,2.466-0.426,5.045-0.622c2.58-0.228,6.095-0.343,7.909-0.398c1.814-0.057,1.928-0.057,1.389-0.537
	c-0.539-0.512-1.758-1.504-2.608-2.58c-0.879-1.078-1.417-2.211-1.701-2.777c-0.255-0.567-0.255-0.567,0.085-0.454
	c0.368,0.143,1.077,0.397,1.729,0.682s1.275,0.596,1.871,0.766c0.595,0.142,1.19,0.142,1.701,0.396
	c0.482,0.254,0.878,0.793,1.474,1.416c0.624,0.651,1.417,1.418,1.814,1.813c0.397,0.369,0.397,0.369,0.68,0.369
	c0.312,0,0.907,0,1.389-0.057c0.454-0.057,0.793-0.17,1.275,0s1.077,0.623,2.438,0.879s3.515,0.313,5.754,0.623
	c2.239,0.283,4.563,0.795,6.208,1.049c1.616,0.256,2.522,0.256,2.976,0.256c0.482,0,0.482,0-0.028-0.426
	c-0.482-0.396-1.446-1.246-2.608-1.758c-1.162-0.537-2.551-0.767-4.621-1.56c-2.098-0.793-4.875-2.182-7.455-3.77
	s-4.96-3.43-6.264-4.818c-1.333-1.391-1.587-2.383-1.701-2.862c-0.142-0.482-0.142-0.482-0.624-0.455
	c-0.482,0.028-1.446,0.086-2.126-0.197c-0.652-0.283-1.049-0.908-1.672-2.637c-0.623-1.729-1.502-4.535-2.041-7.144
	c-0.51-2.608-0.68-4.961-0.765-6.152c-0.085-1.188-0.085-1.188-0.567-2.125c-0.51-0.936-1.474-2.836-2.098-4.508
	c-0.624-1.672-0.907-3.174-1.049-4.817c-0.142-1.646-0.142-3.486,0.198-5.388c0.34-1.928,1.021-3.909,1.361-4.901
	c0.34-1.021,0.34-1.021-0.085-1.277c-0.425-0.283-1.275-0.82-1.757-1.332c-0.482-0.537-0.595-1.049-0.567-1.559
	c0.028-0.511,0.198-1.049,0.794-2.183c0.624-1.162,1.672-2.948,2.522-4.45c0.851-1.476,1.474-2.638,2.126-3.63
	c0.681-0.963,1.389-1.729,1.758-2.125c0.34-0.368,0.34-0.368,0.312-1.135c-0.028-0.766-0.085-2.268,0.085-3.713
	c0.142-1.475,0.539-2.863,0.879-5.244c0.34-2.41,0.652-5.811,1.105-8.899c0.482-3.119,1.105-5.953,1.531-8.164
	c0.425-2.24,0.652-3.855,1.247-5.472c0.595-1.588,1.531-3.146,1.984-3.94c0.482-0.793,0.482-0.793,0.482-1.529
	c0-0.738,0-2.211,0.085-3.289c0.057-1.076,0.199-1.729,0.369-2.324c0.17-0.565,0.369-1.075,0.482-1.332
	c0.085-0.256,0.085-0.256,0.085-0.963c-0.028-0.709-0.057-2.098-0.113-3.205c-0.085-1.104-0.199-1.897-0.255-2.295
	c-0.056-0.396-0.057-0.396-0.312-0.396c-0.284-0.029-0.822-0.058-1.474-0.482c-0.624-0.426-1.389-1.248-2.041-2.268
	c-0.68-1.021-1.275-2.211-1.842-2.947c-0.539-0.738-1.049-1.021-1.786-2.098c-0.708-1.078-1.616-2.92-2.154-4.338
	c-0.539-1.39-0.708-2.324-0.793-2.808c-0.085-0.453-0.085-0.453-0.454-0.68c-0.369-0.228-1.134-0.652-2.013-1.445
	c-0.907-0.795-1.956-1.957-2.721-2.779c-0.766-0.821-1.219-1.274-2.183-1.756s-2.438-0.991-3.515-1.446
	c-1.077-0.425-1.729-0.793-2.721-0.879c-1.021-0.085-2.353,0.112-3.005,0.198c-0.68,0.113-0.68,0.113-0.765-0.34
	c-0.085-0.481-0.255-1.389-0.34-1.983c-0.085-0.623-0.085-0.937-0.085-1.105c0-0.143,0-0.143,0.17-0.199
	c0.199-0.026,0.567-0.112,1.191-0.112c0.595,0,1.445,0.086,1.871,0.112c0.454,0.058,0.454,0.058,0.482-0.479
	c0.057-0.539,0.142-1.646,0.198-3.034c0.085-1.39,0.142-3.118,0.312-4.139c0.17-1.021,0.454-1.36,0.595-1.531
	c0.142-0.17,0.142-0.17-0.482-0.708c-0.624-0.539-1.899-1.588-3.798-3.373c-1.899-1.814-4.422-4.338-6.747-6.436
	c-2.324-2.098-4.45-3.741-5.499-4.593c-1.049-0.821-1.049-0.821-1.616-0.793s-1.729,0.085-2.296,0.113s-0.567,0.028-0.992-0.369
	c-0.397-0.425-1.219-1.247-2.523-3.09c-1.276-1.842-3.005-4.705-4.309-6.661c-1.304-1.984-2.154-3.063-3.231-4.167
	c-1.105-1.077-2.41-2.211-3.374-3.543c-0.936-1.36-1.531-2.977-2.126-4.422c-0.595-1.476-1.162-2.835-1.446-3.487
	c-0.283-0.68-0.283-0.68-0.567-0.142c-0.255,0.511-0.793,1.588-1.842,2.948c-1.049,1.389-2.58,3.117-3.883,4.139
	c-1.304,1.049-2.353,1.417-2.863,1.616c-0.539,0.17-0.539,0.17-0.765,0.85c-0.227,0.681-0.681,2.013-1.276,3.09
	c-0.624,1.077-1.36,1.928-1.729,2.324c-0.369,0.426-0.369,0.426-0.369,1.163c-0.028,0.765-0.057,2.268-0.085,4.422
	c-0.057,2.126-0.113,4.903-0.142,6.293c-0.028,1.389-0.028,1.389,0.369,1.36c0.368,0,1.134-0.028,1.531-0.058
	c0.396,0,0.396,0,0.368,0.255c-0.028,0.283-0.085,0.822-0.113,1.077c-0.028,0.283-0.028,0.283,0.057,0.454
	c0.113,0.17,0.312,0.51,0.397,0.68c0.113,0.171,0.113,0.171,0.085,0.482c0,0.313-0.028,0.964-0.057,1.275
	c0,0.312,0,0.312-0.482,0.425s-1.417,0.34-1.871,0.766c-0.482,0.425-0.482,1.049-0.567,1.672c-0.085,0.597-0.255,1.221-0.34,1.503
	c-0.085,0.313-0.085,0.313,0.368,0.341c0.454,0.057,1.361,0.142,1.814,0.17c0.454,0.057,0.454,0.057,0.652,0.283
	c0.199,0.256,0.567,0.736,0.964,1.247c0.425,0.481,0.879,0.992,1.105,1.247s0.227,0.255,0,0.453
	c-0.227,0.229-0.68,0.624-1.275,0.964c-0.595,0.341-1.361,0.624-1.786,1.418C107.19,310.582,107.076,311.915,106.851,313.588z
	 M28.131,451.606c1.049-0.596,2.41-1.219,3.09-1.559c0.68-0.313,0.68-0.313,1.021-0.738c0.34-0.453,1.021-1.332,2.154-2.408
	c1.105-1.104,2.636-2.438,3.628-3.543c0.992-1.104,1.445-2.014,2.013-2.779c0.595-0.766,1.304-1.416,2.041-1.955
	c0.737-0.538,1.474-0.965,1.871-1.161c0.369-0.228,0.369-0.228,0.737,0c0.397,0.254,1.134,0.709,1.701,1.188
	c0.567,0.482,0.935,0.965,1.474,1.361c0.567,0.396,1.276,0.68,1.701,0.963c0.396,0.256,0.481,0.512,0.51,1.305
	c0.028,0.793,0,2.154,0.198,3.26c0.198,1.106,0.595,1.957,1.474,3.063c0.85,1.105,2.154,2.438,3.062,3.57
	c0.935,1.135,1.502,2.041,2.041,2.637c0.539,0.596,1.049,0.85,1.333,1.275c0.255,0.426,0.227,0.991,0.198,2.041
	c-0.029,1.049-0.085,2.551-0.142,3.629c-0.028,1.076-0.057,1.758-0.085,2.067c0,0.341,0,0.341-0.454,0.539
	c-0.425,0.228-1.275,0.652-2.665,1.05c-1.39,0.396-3.288,0.766-4.252,0.963c-0.936,0.172-0.936,0.172-1.021,0.766
	c-0.085,0.568-0.255,1.758-0.482,2.324c-0.227,0.596-0.482,0.596-1.247,0.512c-0.766-0.057-2.041-0.199-4.025-0.652
	c-1.984-0.452-4.677-1.219-6.832-1.729c-2.154-0.482-3.77-0.682-5.329-1.105c-1.587-0.455-3.09-1.135-4.309-1.475
	c-1.247-0.313-2.183-0.283-2.665-0.283c-0.454,0.027-0.454,0.027-0.624-0.313c-0.17-0.313-0.51-0.992-0.992-1.56
	c-0.482-0.566-1.077-1.049-1.361-1.274c-0.312-0.256-0.312-0.256-0.057-0.625c0.227-0.34,0.709-1.049,1.248-2.041
	s1.105-2.238,1.53-3.23c0.425-0.992,0.709-1.758,1.219-2.381C26.343,452.686,27.083,452.174,28.131,451.606z M352.472,255.817
	c0.427,0.937,0.992,2.324,1.476,3.713c0.511,1.391,0.935,2.835,1.56,4.536c0.596,1.7,1.389,3.713,2.012,5.442
	c0.596,1.757,0.992,3.23,1.475,4.817c0.51,1.616,1.105,3.316,2.297,6.463c1.219,3.176,3.004,7.769,4.336,11.227
	c1.361,3.458,2.24,5.811,3.09,7.795c0.852,1.984,1.701,3.601,2.069,4.876c0.397,1.304,0.341,2.239-0.112,3.458
	c-0.426,1.19-1.275,2.693-1.729,3.969c-0.481,1.247-0.595,2.324-0.992,3.971c-0.368,1.643-1.021,3.909-1.36,5.045
	c-0.312,1.133-0.312,1.161-0.112,1.188c0.198,0.029,0.595,0.058,1.161-0.227c0.597-0.283,1.361-0.879,1.759-1.162
	c0.368-0.312,0.368-0.312,0.624-0.197c0.283,0.084,0.793,0.283,1.049,0.396c0.254,0.084,0.254,0.084,0.197,0.256
	c-0.027,0.141-0.113,0.453,0.086,0.565c0.197,0.113,0.68,0.027,1.559-0.028c0.879-0.084,2.184-0.142,2.808-0.17
	c0.65-0.027,0.65-0.027,0.964,0.452c0.312,0.455,0.936,1.418,1.502,2.354c0.566,0.963,1.104,1.928,1.359,2.41
	c0.257,0.51,0.257,0.51,0.482,1.643c0.227,1.162,0.681,3.488,1.813,6.806c1.105,3.344,2.92,7.709,4.45,11.225
	c1.56,3.516,2.835,6.15,4.195,8.277c1.332,2.125,2.777,3.741,3.77,5.188c0.992,1.473,1.561,2.834,2.014,3.713
	c0.481,0.906,0.821,1.361,1.701,2.637c0.879,1.276,2.296,3.345,3.543,4.849c1.219,1.473,2.238,2.352,2.665,3.061
	c0.425,0.681,0.255,1.191,0.027,1.729c-0.227,0.539-0.511,1.078-0.651,1.475c-0.142,0.397-0.143,0.652,0.17,1.078
	c0.313,0.424,0.936,1.021,1.39,1.729c0.481,0.709,0.765,1.502,1.105,1.842c0.34,0.313,0.735,0.17,0.991-0.084
	c0.256-0.256,0.368-0.625,0.538-0.822c0.17-0.17,0.396-0.17,0.709,0.057c0.313,0.255,0.708,0.736,1.05,1.304
	c0.34,0.567,0.595,1.221,1.049,1.758c0.48,0.512,1.162,0.879,2.041,2.211c0.879,1.305,1.983,3.602,3.146,6.748
	c1.162,3.117,2.409,7.113,3.601,9.893c1.161,2.748,2.238,4.31,2.807,5.726c0.566,1.418,0.623,2.75,1.219,3.686
	c0.566,0.937,1.645,1.502,2.184,1.785c0.538,0.285,0.538,0.285,0.34,0.455s-0.595,0.537-0.794,1.529
	c-0.198,0.991-0.198,2.637-0.396,3.828c-0.197,1.161-0.595,1.842-1.247,2.551c-0.681,0.709-1.588,1.475-2.153,2.58
	c-0.567,1.104-0.794,2.578-1.105,3.909c-0.312,1.306-0.709,2.439-0.907,3.007c-0.197,0.596-0.197,0.596,0.028,0.34
	c0.227-0.228,0.681-0.681,1.219-1.418c0.539-0.736,1.162-1.729,1.446-2.353c0.255-0.625,0.17-0.821,0.142-0.936
	c-0.057-0.113-0.057-0.113,0.313-0.256c0.368-0.17,1.134-0.482,1.956-0.992c0.851-0.51,1.757-1.219,2.239-1.586
	c0.452-0.342,0.452-0.342,0.851,0.34c0.396,0.65,1.162,2.012,2.579,3.826c1.389,1.842,3.43,4.108,5.414,6.35
	c1.983,2.211,3.912,4.396,5.527,6.094c1.588,1.675,2.835,2.921,4.224,3.742c1.361,0.853,2.835,1.306,3.771,2.127
	c0.965,0.851,1.36,2.041,2.041,3.004c0.709,0.964,1.701,1.701,3.231,2.523c1.502,0.793,3.515,1.645,5.018,2.068
	c1.475,0.426,2.409,0.426,3.431,0.426c1.021-0.029,2.126-0.057,2.892,0.227c0.736,0.256,1.162,0.822,1.785,1.332
	c0.624,0.51,1.475,0.965,2.154,1.162c0.709,0.228,1.247,0.199,1.503,0.199c0.282,0,0.282,0,0.282,0.254
	c0.028,0.285,0.028,0.795,0.341,1.277c0.313,0.479,0.936,0.905,1.418,1.188c0.48,0.256,0.821,0.369,1.274,0.426
	c0.481,0.058,1.105,0.027,1.587,0.113c0.512,0.113,0.879,0.312,1.248,0.539c0.396,0.228,0.793,0.48,0.992,0.594
	c0.198,0.144,0.198,0.144,0.028,0.199c-0.199,0.057-0.567,0.17-0.992,0.228c-0.426,0.086-0.907,0.112-1.247,0.028
	c-0.313-0.086-0.511-0.256-1.021-0.285c-0.539-0.057-1.446,0.058-2.24,0c-0.793-0.084-1.502-0.34-2.354-1.075
	c-0.821-0.736-1.813-1.955-2.806-2.808c-0.964-0.85-1.928-1.305-2.977-1.531c-1.021-0.227-2.099-0.227-2.836-0.026
	c-0.736,0.17-1.134,0.539-1.389,0.906c-0.255,0.368-0.341,0.737,0,1.135c0.34,0.426,1.077,0.906,2.211,1.303
	c1.134,0.426,2.664,0.738,3.686,0.992c1.049,0.285,1.615,0.512,1.673,0.682c0.085,0.17-0.34,0.312-1.22,0.396
	c-0.879,0.057-2.238,0.084-3.656-0.058c-1.417-0.17-2.919-0.539-4.45-1.36c-1.56-0.851-3.203-2.154-4.847-3.4
	c-1.674-1.219-3.374-2.41-4.621-3.176c-1.22-0.793-2.014-1.162-3.09-1.275c-1.105-0.113-2.494,0.058-3.176,0.144
	c-0.68,0.084-0.65,0.084-0.735,0.536c-0.114,0.455-0.369,1.332-0.199,2.354c0.199,1.021,0.822,2.211,1.56,3.43
	c0.738,1.22,1.587,2.468,2.579,3.203c0.992,0.709,2.154,0.879,2.523,1.078c0.368,0.17-0.028,0.34-0.937,0.34
	c-0.936-0.028-2.381-0.256-3.544-0.908c-1.162-0.622-2.04-1.672-2.806-2.551c-0.737-0.906-1.361-1.672-1.899-2.067
	c-0.539-0.398-0.964-0.455-1.219-0.228c-0.227,0.228-0.227,0.68-0.028,1.303c0.199,0.623,0.623,1.418,1.05,2.041
	c0.452,0.597,0.936,1.05,1.189,1.275s0.255,0.227-0.142,0.283c-0.397,0.057-1.162,0.17-2.041,0.028
	c-0.879-0.143-1.843-0.538-3.118-0.793c-1.275-0.229-2.807-0.284-4.11-0.114c-1.304,0.172-2.381,0.567-2.92,0.737
	c-0.51,0.197-0.51,0.197-0.822-0.198c-0.282-0.396-0.85-1.189-2.551-1.729s-4.563-0.85-7.029-0.992
	c-2.438-0.17-4.508-0.227-6.207-0.057c-1.701,0.17-3.063,0.539-3.715,0.936c-0.681,0.427-0.651,0.851-0.622,1.076
	c0,0.228,0,0.228-1.191,0.199c-1.19-0.057-3.6-0.113-6.15-0.113c-2.58,0-5.301,0.058-7.029,0.228
	c-1.701,0.143-2.354,0.369-2.723,0.539c-0.396,0.196-0.453,0.311-0.34,0.539c0.085,0.196,0.396,0.51,1.105,0.905
	c0.736,0.396,1.898,0.879,2.977,1.445s2.041,1.219,2.636,1.729c0.624,0.482,0.852,0.822,0.965,0.992
	c0.142,0.17,0.142,0.17-0.396,0.086c-0.539-0.112-1.588-0.34-3.6-0.766c-2.041-0.426-5.019-1.105-7.37-1.758
	c-2.325-0.68-4.025-1.389-5.473-1.814c-1.417-0.424-2.636-0.565-4.053-0.649c-1.418-0.113-3.09-0.17-4.025-0.313
	c-0.963-0.143-1.219-0.369-2.977-0.736c-1.758-0.368-5.018-0.879-8.447-0.737c-3.4,0.17-7.002,0.992-9.523,1.559
	c-2.522,0.568-3.997,0.879-4.706,1.049c-0.736,0.144-0.736,0.144-1.445-0.112c-0.68-0.283-2.098-0.82-3.655-1.359
	c-1.588-0.539-3.373-1.078-5.244-1.021c-1.899,0.057-3.885,0.709-4.365,1.331c-0.482,0.625,0.537,1.222,1.699,1.675
	c1.164,0.424,2.496,0.68,3.742,1.219c1.248,0.539,2.467,1.359,4.055,2.182c1.615,0.795,3.656,1.617,5.045,2.041
	c1.389,0.455,2.184,0.539,2.552,0.568c0.396,0.057,0.396,0.057-1.021,0.057c-1.39,0-4.168,0-7.145-0.455
	c-2.947-0.452-6.064-1.389-8.191-1.784c-2.125-0.396-3.316-0.283-4.479-0.453c-1.134-0.199-2.296-0.683-3.713-1.248
	c-1.418-0.597-3.146-1.275-4.679-1.785c-1.53-0.539-2.92-0.879-4.166-1.049c-1.248-0.17-2.381-0.17-3.146-0.313
	c-0.738-0.17-1.078-0.479-1.758-0.735c-0.682-0.257-1.701-0.453-3.855-0.566c-2.154-0.086-5.441-0.086-7.965,0.141
	c-2.523,0.199-4.309,0.623-6.436,1.502c-2.125,0.908-4.592,2.24-6.661,3.203c-2.041,0.937-3.657,1.504-5.017,1.646
	c-1.361,0.143-2.438-0.197-2.978-0.34c-0.567-0.17-0.567-0.17,0.142-0.369c0.682-0.228,2.041-0.65,3.94-1.56
	c1.897-0.905,4.31-2.323,6.065-3.629c1.758-1.332,2.834-2.578,3.4-3.229c0.539-0.623,0.539-0.623,0.965-0.623
	c0.424,0,1.275,0,2.807-0.369s3.714-1.105,5.812-2.07c2.099-0.963,4.109-2.125,5.13-2.947c1.021-0.821,1.077-1.305,1.418-2.75
	c0.313-1.416,0.907-3.77,1.332-5.924c0.396-2.153,0.596-4.108,0.936-5.131c0.341-0.992,0.822-1.076,1.021-1.559
	c0.198-0.511,0.113-1.39,0.341-2.041c0.227-0.681,0.766-1.136,1.303-1.701c0.539-0.539,1.05-1.219,1.248-2.467
	c0.227-1.275,0.143-3.175,0.086-4.109c-0.029-0.936-0.029-0.936,0.197-1.021c0.256-0.084,0.737-0.255,1.672-0.736
	c0.908-0.453,2.297-1.219,2.92-1.729c0.652-0.51,0.567-0.737,0-1.104c-0.566-0.369-1.644-0.879-2.578-1.219
	c-0.965-0.313-1.814-0.455-2.24-0.539c-0.425-0.058-0.425-0.058-0.425-0.937c0.028-0.906,0.057-2.664-0.142-4.932
	c-0.17-2.24-0.597-4.99-1.162-7.146c-0.597-2.153-1.361-3.713-1.758-4.506c-0.369-0.766-0.369-0.766-0.171-1.078
	c0.198-0.312,0.597-0.905,0.964-1.418c0.368-0.51,0.709-0.934,1.049-1.162c0.34-0.196,0.682-0.196,0.651-1.02
	c-0.026-0.793-0.425-2.438-0.651-4.451c-0.228-2.012-0.283-4.393-0.312-6.49c-0.058-2.069-0.086-3.854-0.086-4.733
	c-0.026-0.879-0.026-0.879-0.283-0.963c-0.255-0.086-0.766-0.257-1.02-0.343c-0.257-0.084-0.257-0.084-0.369-0.452
	c-0.113-0.367-0.34-1.134-1.19-3.146c-0.879-2.041-2.353-5.385-3.4-7.397c-1.021-1.984-1.646-2.638-1.928-2.978
	c-0.313-0.311-0.313-0.311-0.313-0.709c0-0.367,0-1.104-0.368-2.211c-0.368-1.076-1.105-2.551-1.729-3.6
	c-0.623-1.05-1.133-1.701-2.409-3.23c-1.275-1.502-3.288-3.854-4.479-5.244c-1.189-1.36-1.529-1.729-1.699-1.928
	c-0.172-0.17-0.172-0.17-0.029-0.68c0.143-0.482,0.426-1.505,0.596-2.496c0.198-0.992,0.283-1.984,0.34-2.465
	c0.029-0.513,0.029-0.482-0.255-0.992c-0.312-0.513-0.907-1.562-1.503-2.494c-0.595-0.908-1.219-1.73-1.502-2.127
	c-0.313-0.396-0.313-0.396,0-0.597c0.313-0.227,0.964-0.651,1.615-1.444c0.652-0.767,1.333-1.928,1.787-2.892
	c0.453-0.991,0.68-1.813,1.104-2.438c0.396-0.652,1.021-1.078,1.56-1.447c0.565-0.396,1.076-0.735,1.332-0.906
	c0.256-0.17,0.256-0.17,0.283-0.538c0.028-0.369,0.086-1.105,0.112-1.759c0.028-0.649,0.028-1.188,0.028-1.444
	c0-0.283,0-0.283,0.681-1.05c0.651-0.735,2.013-2.268,3.118-3.655c1.134-1.39,2.041-2.693,2.92-3.742
	c0.878-1.049,1.7-1.871,2.126-2.295c0.396-0.398,0.396-0.398,0.51-0.199c0.113,0.227,0.341,0.652,0.681,1.162
	c0.342,0.539,0.822,1.162,1.162,1.559c0.342,0.396,0.567,0.568,0.682,0.652c0.113,0.086,0.113,0.086,0.17-0.566
	c0.085-0.682,0.227-2.014,0.197-3.43c0-1.445-0.17-2.949-0.254-3.715c-0.086-0.736-0.086-0.736,0.17-1.105
	c0.256-0.367,0.766-1.076,1.475-1.956c0.708-0.878,1.645-1.927,2.977-3.515c1.332-1.587,3.117-3.713,4.449-5.188
	s2.24-2.354,3.176-4.081c0.906-1.759,1.813-4.424,3.033-6.123c1.246-1.729,2.777-2.495,3.854-3.118
	c1.077-0.596,1.729-1.049,2.211-1.616c0.511-0.595,0.879-1.275,1.274-2.806c0.426-1.503,0.879-3.884,2.155-6.605
	c1.275-2.721,3.345-5.811,4.818-8.105c1.444-2.296,2.268-3.8,2.834-4.679c0.539-0.878,0.821-1.104,1.104-0.905
	c0.313,0.197,0.596,0.85,0.795,1.134c0.197,0.312,0.312,0.283,0.51,0.17c0.199-0.085,0.481-0.255,0.681-0.907
	c0.228-0.624,0.369-1.701,0.851-2.863c0.482-1.161,1.305-2.438,2.014-3.515c0.709-1.049,1.275-1.928,1.758-2.438
	c0.51-0.482,0.936-0.567,1.275-0.342C351.85,254.399,352.076,254.91,352.472,255.817z M123.319,213.865
	c3.175,2.75,8.419,7.143,14.088,11.963c5.669,4.818,11.764,10.092,17.716,15.249c5.953,5.159,11.735,10.205,17.064,14.854
	c5.329,4.648,10.233,8.899,14.4,12.388c4.139,3.515,7.569,6.293,9.78,8.135c2.183,1.814,3.175,2.693,4.224,3.517
	c1.049,0.793,2.154,1.529,3.119,2.211c0.936,0.65,1.729,1.219,2.268,1.417s0.822,0.028,1.246-0.396
	c0.455-0.454,1.05-1.162,1.531-1.898c0.51-0.709,0.907-1.445,1.248-1.871c0.34-0.396,0.652-0.453,0.963-0.34
	c0.34,0.142,0.709,0.48,1.248,0.708s1.219,0.341,2.041,0.396c0.793,0.085,1.701,0.113,2.381,0.283
	c0.709,0.142,1.22,0.454,1.672,1.021c0.455,0.596,0.852,1.416,0.852,1.729c0.028,0.34-0.369,0.142-1.049-0.228
	c-0.68-0.368-1.645-0.906-2.466-1.19c-0.851-0.283-1.531-0.283-2.212-0.227c-0.68,0.027-1.331,0.085-1.955,0.197
	c-0.596,0.113-1.135,0.256-1.588,0.539c-0.452,0.283-0.821,0.709-1.049,1.275c-0.227,0.566-0.312,1.304-0.112,2.324
	c0.198,1.049,0.709,2.381,1.616,4.139c0.906,1.729,2.24,3.827,4.166,6.265c1.899,2.438,4.395,5.216,6.379,7.229
	c1.983,2.013,3.457,3.315,4.677,4.167c1.19,0.878,2.126,1.332,2.75,1.785c0.624,0.454,0.907,0.906,1.19,1.162
	c0.283,0.283,0.51,0.368,0.936,0.256c0.396-0.114,0.992-0.454,1.445-1.162c0.426-0.682,0.738-1.758,0.965-2.467
	c0.255-0.708,0.482-1.021,0.482-1.615c0-0.567-0.228-1.361-0.596-2.438c-0.396-1.104-0.936-2.438-1.248-4.223
	c-0.34-1.786-0.425-3.997-0.454-6.549c-0.057-2.551-0.028-5.414,0-6.859c0-1.445,0-1.445,0.255-1.701
	c0.256-0.255,0.737-0.793,1.332-1.444c0.596-0.652,1.305-1.475,1.645-1.871c0.34-0.425,0.34-0.425,0.34-1.56
	c0-1.162,0-3.459,0.199-5.612c0.17-2.126,0.566-4.109,0.765-5.188c0.17-1.077,0.17-1.275,0.454-1.39
	c0.113-0.058,0.283-0.085,0.51-0.113c0.256,0.028,0.397,0.057,0.539,0.113c0.283,0.113,0.283,0.313,0.454,1.39
	c0.198,1.077,0.567,3.062,0.765,5.188c0.198,2.153,0.198,4.45,0.198,5.612c0,1.135,0,1.135,0.341,1.56
	c0.34,0.396,1.021,1.219,1.615,1.871c0.596,0.651,1.105,1.189,1.361,1.444c0.255,0.257,0.255,0.257,0.255,1.701
	c0,1.445,0.028,4.31,0,6.859c-0.028,2.552-0.142,4.763-0.454,6.549c-0.313,1.785-0.85,3.117-1.247,4.223
	c-0.369,1.077-0.595,1.871-0.595,2.438c0,0.595,0.227,0.907,0.453,1.615c0.256,0.709,0.539,1.785,0.992,2.467
	c0.426,0.708,1.021,1.048,1.445,1.162c0.426,0.112,0.652,0.027,0.936-0.256c0.256-0.256,0.567-0.708,1.19-1.162
	c0.624-0.453,1.56-0.907,2.75-1.785c1.19-0.852,2.665-2.154,4.649-4.167c1.984-2.014,4.479-4.791,6.406-7.229
	c1.928-2.438,3.23-4.535,4.166-6.265c0.908-1.758,1.418-3.09,1.615-4.139c0.199-1.021,0.114-1.758-0.113-2.324
	c-0.227-0.566-0.594-0.992-1.049-1.275c-0.453-0.283-0.992-0.426-1.586-0.539c-0.625-0.112-1.275-0.17-1.957-0.197
	c-0.68-0.058-1.359-0.058-2.211,0.227c-0.822,0.284-1.813,0.822-2.466,1.19c-0.681,0.368-1.077,0.566-1.049,0.228
	c0-0.313,0.396-1.134,0.851-1.729c0.453-0.566,0.963-0.88,1.672-1.021c0.682-0.17,1.588-0.198,2.381-0.283
	c0.795-0.057,1.504-0.17,2.041-0.396c0.512-0.228,0.908-0.566,1.248-0.708c0.313-0.113,0.596-0.058,0.963,0.34
	c0.342,0.426,0.738,1.162,1.248,1.871c0.481,0.736,1.076,1.444,1.531,1.898c0.424,0.425,0.709,0.596,1.246,0.396
	c0.539-0.198,1.332-0.767,2.268-1.417c0.966-0.682,2.07-1.418,3.119-2.211c1.049-0.822,2.013-1.701,4.224-3.517
	c2.211-1.842,5.612-4.62,9.778-8.135c4.168-3.487,9.072-7.739,14.4-12.388c5.329-4.649,11.111-9.694,17.064-14.854
	c5.925-5.159,12.047-10.431,17.717-15.249c5.67-4.82,10.914-9.213,14.088-11.963c3.203-2.777,4.365-3.883,5.613-4.988
	c1.275-1.105,2.636-2.211,3.543-2.92c0.879-0.68,1.304-0.936,0.822-0.34c-0.453,0.624-1.787,2.098-3.316,3.855
	c-1.531,1.785-3.26,3.883-4.904,6.208c-1.645,2.296-3.203,4.819-4.479,7.739c-1.305,2.891-2.354,6.207-3.486,9.07
	c-1.135,2.893-2.354,5.329-3.572,7.257c-1.246,1.928-2.494,3.346-3.203,4.31s-0.85,1.531-0.85,1.813
	c-0.029,0.313,0.113,0.341,0.963-0.057c0.879-0.396,2.494-1.247,3.885-2.126c1.416-0.85,2.607-1.701,3.203-2.126
	c0.594-0.425,0.594-0.425,0.057,0.17c-0.538,0.624-1.616,1.814-2.297,3.401c-0.709,1.559-1.049,3.515-2.098,5.754
	c-1.049,2.238-2.807,4.763-4.535,6.576c-1.729,1.843-3.459,2.947-4.309,3.516c-0.852,0.538-0.852,0.538,0.027,0.48
	c0.908-0.085,2.692-0.255,4.365-0.537c1.7-0.257,3.289-0.597,4.535-0.88c1.275-0.255,2.211-0.426,2.665-0.511
	c0.453-0.085,0.453-0.085,0.084,0.199c-0.396,0.255-1.188,0.765-2.182,1.219c-0.992,0.425-2.211,0.793-3.177,2.069
	c-0.963,1.274-1.672,3.458-2.92,5.499c-1.246,2.041-3.004,3.939-4.847,5.301c-1.843,1.389-3.771,2.211-4.733,2.636
	c-0.936,0.397-0.936,0.397-0.313,0.567c0.652,0.142,1.928,0.453,3.402,0.227c1.474-0.227,3.146-0.991,4.336-1.587
	c1.191-0.566,1.9-1.021,2.495-1.305c0.624-0.283,1.104-0.425,0.282,0.567c-0.82,0.964-2.947,3.062-4.647,4.988
	c-1.673,1.928-2.92,3.686-5.556,7.144c-2.666,3.459-6.719,8.617-9.752,12.02c-3.004,3.431-4.988,5.073-8.787,7.114
	s-9.439,4.422-15.108,7.342c-5.669,2.894-11.396,6.293-15.563,9.043c-4.166,2.721-6.803,4.791-8.248,6.15
	c-1.445,1.36-1.672,2.041-1.588,2.24c0.113,0.227,0.539,0,1.645-0.623c1.135-0.597,2.92-1.589,5.896-2.836
	c2.946-1.246,7.059-2.748,10.828-4.224c3.77-1.444,7.199-2.863,10.006-4.139c2.836-1.305,5.047-2.467,6.859-3.517
	c1.844-1.075,3.288-2.068,4.025-2.551c0.708-0.481,0.708-0.481,0.027,0.283c-0.68,0.794-2.068,2.324-3.43,4.508
	c-1.361,2.183-2.722,4.988-5.158,8.844c-2.41,3.855-5.926,8.787-10.205,13.55c-4.281,4.733-9.383,9.325-14.229,13.776
	s-9.468,8.761-13.013,13.209c-3.543,4.479-6.008,9.127-7.709,13.068c-1.701,3.969-2.637,7.256-3.26,9.979
	c-0.625,2.691-1.361,4.789-1.588,6.916c-0.227,2.125-0.765,4.279-0.765,6.548c0,2.268,0.112,4.678,0.112,6.491
	c0,1.814-0.112,3.09-0.368,4.109c-0.255,1.049-0.624,1.844-0.935,2.723c-0.313,0.851-0.143,1.758-0.171,2.636
	c-0.057,0.907,0.113,1.813-0.112,2.807c-0.198,0.965-0.766,2.014-1.446,2.807c-0.708,0.793-1.503,1.332-2.212,1.588
	c-0.707,0.255-1.303,0.171-1.586,0.142c-0.313-0.027-0.313-0.027,0-0.084c0.283-0.058,0.851-0.17,1.246-0.453
	c0.426-0.313,0.682-0.766,0.822-1.332c0.143-0.596,0.143-1.277,0.198-1.928c0.085-0.652,0.228-1.306,0.481-1.814
	c0.256-0.539,0.625-0.965,0.822-1.475c0.228-0.482,0.283-1.049,0.113-1.275c-0.143-0.256-0.51-0.17-0.736-0.086
	c-0.228,0.113-0.285,0.229-0.539,0.568c-0.256,0.311-0.682,0.85-1.164,1.162c-0.453,0.34-0.992,0.452-1.444,0.479
	c-0.482,0.029-0.454,0-0.652-0.027c-0.228-0.028-0.228-0.028-0.255,2.693c-0.027,2.75-0.113,8.221-0.085,11.764
	c0.028,3.57,0.142,5.188,0.34,6.293c0.17,1.076,0.397,1.589,0.652,2.013c0.227,0.426,0.454,0.709,0.595,0.936
	c0.113,0.228,0.113,0.369-0.143,0.709c-0.254,0.313-0.736,0.822-1.049,1.445c-0.283,0.596-0.34,1.332-0.369,2.041
	c-0.057,0.68-0.057,1.332,0.086,1.785c0.113,0.481,0.34,0.795,0.566,1.248c0.198,0.426,0.397,0.991,0.256,1.7
	c-0.115,0.736-0.567,1.589-0.738,3.601c-0.141,2.041,0,5.244,0.171,7.199c0.17,1.928,0.34,2.608,0.878,3.799
	c0.539,1.19,1.417,2.949,2.184,4.451c0.793,1.53,1.445,2.834,2.125,4.252c0.709,1.389,1.418,2.92,1.928,3.883
	c0.511,0.965,0.822,1.418,0.965,1.645c0.17,0.228,0.17,0.228-0.057,0.283c-0.228,0.057-0.652,0.17-0.965,0.51
	c-0.283,0.313-0.453,0.879-0.396,1.361s0.312,0.879,0.539,1.389c0.227,0.482,0.453,1.021,0.566,1.306s0.113,0.282-0.227,0.196
	c-0.34-0.112-1.021-0.282-1.502-0.424c-0.482-0.143-0.709-0.256-1.305,0.027c-0.566,0.283-1.502,0.936-2.494,1.787
	c-1.021,0.85-2.098,1.897-2.834,3.061c-0.256,0.426-0.453,0.822-0.851,1.105c-0.368-0.283-0.567-0.681-0.821-1.105
	c-0.737-1.162-1.843-2.211-2.834-3.061c-0.992-0.853-1.929-1.504-2.496-1.787c-0.595-0.283-0.85-0.17-1.304-0.027
	c-0.481,0.142-1.163,0.312-1.502,0.424c-0.34,0.086-0.34,0.086-0.227-0.196c0.114-0.283,0.312-0.822,0.567-1.306
	c0.227-0.51,0.481-0.905,0.539-1.389c0.027-0.482-0.115-1.049-0.426-1.361c-0.283-0.34-0.736-0.453-0.936-0.51
	c-0.228-0.057-0.228-0.057-0.086-0.283c0.17-0.227,0.482-0.68,0.992-1.645c0.51-0.963,1.219-2.494,1.899-3.883
	c0.709-1.418,1.36-2.722,2.126-4.252c0.794-1.502,1.672-3.261,2.211-4.451c0.51-1.189,0.709-1.871,0.879-3.799
	c0.17-1.955,0.313-5.158,0.143-7.199c-0.143-2.012-0.596-2.863-0.737-3.601c-0.113-0.709,0.085-1.274,0.284-1.7
	c0.227-0.453,0.453-0.767,0.566-1.248c0.113-0.453,0.113-1.105,0.086-1.785c-0.029-0.709-0.115-1.445-0.397-2.041
	c-0.284-0.623-0.765-1.133-1.021-1.445c-0.256-0.34-0.256-0.481-0.143-0.709c0.113-0.227,0.367-0.51,0.595-0.936
	c0.255-0.424,0.481-0.937,0.652-2.013c0.198-1.104,0.312-2.723,0.34-6.293c0-3.543-0.058-9.014-0.085-11.764
	c-0.057-2.723-0.057-2.723-0.255-2.693c-0.198,0.027-0.595,0.058-1.05,0.027c-0.481-0.027-0.991-0.141-1.474-0.479
	c-0.481-0.313-0.907-0.853-1.161-1.162c-0.256-0.34-0.313-0.455-0.539-0.568c-0.228-0.084-0.596-0.17-0.737,0.086
	c-0.142,0.228-0.085,0.793,0.112,1.275c0.198,0.51,0.567,0.936,0.822,1.475c0.256,0.51,0.396,1.162,0.48,1.814
	c0.086,0.649,0.086,1.332,0.199,1.928c0.143,0.566,0.397,1.02,0.822,1.332c0.426,0.283,0.992,0.396,1.276,0.453
	c0.282,0.057,0.282,0.057-0.028,0.084c-0.283,0.029-0.879,0.113-1.587-0.142c-0.709-0.256-1.502-0.795-2.183-1.588
	c-0.709-0.793-1.276-1.842-1.475-2.807c-0.227-0.992-0.057-1.898-0.113-2.807c-0.027-0.878-0.254-1.785-0.566-2.636
	c-0.313-0.879-0.709-1.674-0.936-2.723c-0.256-1.02-0.369-2.295-0.369-4.109c0-1.813,0.113-4.225,0.113-6.491
	c0-2.268-0.113-4.423-0.341-6.548c-0.227-2.127-0.567-4.225-1.19-6.916c-0.652-2.723-1.56-6.01-3.26-9.979
	c-1.701-3.941-4.168-8.59-7.711-13.068c-3.543-4.448-8.164-8.758-13.011-13.209s-9.95-9.043-14.23-13.776
	c-4.309-4.763-7.795-9.693-10.205-13.55c-2.438-3.854-3.798-6.661-5.159-8.844c-1.36-2.184-2.75-3.714-3.43-4.508
	c-0.709-0.766-0.709-0.766,0.028-0.283c0.737,0.481,2.183,1.476,3.997,2.551c1.843,1.05,4.054,2.212,6.86,3.517
	c2.835,1.274,6.236,2.692,10.006,4.139c3.77,1.476,7.88,2.978,10.857,4.224c2.948,1.247,4.761,2.239,5.869,2.836
	c1.133,0.623,1.559,0.85,1.643,0.623c0.113-0.199-0.141-0.88-1.559-2.24c-1.445-1.359-4.082-3.431-8.249-6.15
	c-4.195-2.75-9.893-6.149-15.562-9.043c-5.669-2.92-11.31-5.301-15.109-7.342c-3.798-2.041-5.783-3.686-8.787-7.114
	c-3.033-3.401-7.087-8.561-9.751-12.02c-2.636-3.458-3.883-5.216-5.584-7.144c-1.672-1.928-3.827-4.024-4.621-4.988
	c-0.822-0.992-0.34-0.852,0.284-0.567c0.595,0.284,1.304,0.737,2.494,1.305c1.191,0.596,2.863,1.36,4.337,1.587
	c1.474,0.228,2.75-0.085,3.401-0.227c0.624-0.17,0.624-0.17-0.34-0.567c-0.963-0.425-2.891-1.247-4.734-2.636
	c-1.842-1.36-3.6-3.26-4.819-5.301c-1.247-2.041-1.956-4.225-2.919-5.499c-0.964-1.276-2.183-1.646-3.175-2.069
	c-0.992-0.454-1.786-0.964-2.183-1.219c-0.397-0.284-0.397-0.284,0.085-0.199c0.454,0.085,1.389,0.256,2.636,0.511
	c1.275,0.283,2.863,0.623,4.563,0.88c1.673,0.282,3.458,0.452,4.337,0.537c0.907,0.058,0.907,0.058,0.057-0.48
	c-0.879-0.567-2.58-1.673-4.309-3.516c-1.729-1.813-3.487-4.338-4.536-6.576c-1.049-2.239-1.389-4.195-2.098-5.754
	c-0.68-1.587-1.757-2.778-2.296-3.401c-0.539-0.596-0.539-0.596,0.057-0.17c0.596,0.426,1.786,1.276,3.175,2.126
	c1.417,0.879,3.033,1.729,3.912,2.126c0.851,0.397,0.964,0.369,0.964,0.057c0-0.282-0.17-0.85-0.851-1.813
	c-0.708-0.964-1.956-2.381-3.203-4.31c-1.247-1.928-2.438-4.364-3.571-7.257c-1.134-2.863-2.183-6.18-3.487-9.07
	c-1.275-2.92-2.834-5.442-4.479-7.739c-1.645-2.324-3.374-4.423-4.904-6.208c-1.531-1.758-2.863-3.231-3.316-3.855
	c-0.482-0.595-0.085-0.34,0.822,0.34c0.878,0.709,2.268,1.814,3.543,2.92C118.954,209.981,120.116,211.088,123.319,213.865z
	 M241.524,381.618c-0.396,0.455-0.68,1.021-0.793,1.588c-0.143,0.566-0.143,1.136-0.199,2.664c-0.085,1.504-0.227,3.941-0.566,6.466
	c-0.34,2.521-0.907,5.102-1.219,7.17c-0.341,2.041-0.455,3.545-0.539,6.774c-0.058,3.26-0.086,8.248-0.086,10.744
	c-0.027,2.521-0.027,2.521,0.17,2.381c0.198-0.143,0.143-0.453,0.652-0.795c0.482-0.367,1.077-0.764,1.446-1.162
	c0.368-0.396-0.142-0.68,0.085-1.303c0.681-2.014,0.624-2.324,0.283-3.203c-0.142-0.369-0.34-0.709-0.566-0.992
	c-0.199-0.283-0.255-0.852-0.143-1.53c0.086-0.681,0.313-1.476,0.738-2.354c0.424-0.877,1.049-2.268,1.389-3.26
	c0.312-0.992,0.34-1.615,0.227-3.174c-0.085-1.589,0.51-3.742,0.227-5.302c-0.312-1.559,0.086-2.58,0-3.485
	c-0.057-0.908,0.17-1.759,0.426-2.354c0.255-0.596,0.369-1.133,0.425-2.154c0.028-1.049-0.142-2.834-0.34-4.252
	c-0.198-1.444-0.113-2.522-0.511-2.946C242.261,380.713,241.921,381.194,241.524,381.618z M231.574,381.618
	c0.397,0.455,0.652,1.021,0.794,1.588c0.143,0.567,0.143,1.136,0.198,2.664c0.085,1.504,0.228,3.941,0.567,6.466
	c0.34,2.521,0.879,5.102,1.219,7.17c0.34,2.041,0.453,3.545,0.539,6.774c0.057,3.26,0.085,8.248,0.085,10.744
	c0.028,2.521,0.028,2.521-0.171,2.381c-0.198-0.143-0.566-0.453-1.049-0.795c-0.51-0.367-1.076-0.764-1.445-1.162
	c-0.369-0.396-0.539-0.764-0.936-1.303c-0.397-0.568-1.078-1.275-1.361-1.957c-0.283-0.68-0.228-1.303,0-1.643
	c0.227-0.313,0.596-0.313,0.822-0.597c0.197-0.283,0.254-0.852,0.17-1.531c-0.113-0.68-0.34-1.475-0.766-2.354
	c-0.425-0.877-1.049-1.842-1.361-2.834c-0.34-1.021-0.34-2.041-0.254-3.6c0.084-1.589,0.312-3.742,0.623-5.302
	c0.313-1.559,0.708-2.58,0.793-3.485c0.086-0.908-0.17-1.759-0.396-2.354c-0.255-0.596-0.511-0.992-0.567-2.012
	c-0.027-1.049,0.17-2.723,0.368-4.168c0.199-1.416,0.425-2.578,0.794-3.004S231.177,381.194,231.574,381.618z M233.417,292.102
	c0,0-1.104,1.389-1.104,3.629c0,2.211,1.077,5.754,1.7,7.341C234.579,299.019,234.636,296.069,233.417,292.102z M240.021,292.102
	c0,0,1.104,1.389,1.104,3.629c0,2.211-1.076,5.754-1.701,7.341C238.859,299.019,238.802,296.069,240.021,292.102z"/>
<path d="M882.236,200.764c0.17,0,0.198,0.057,0.426,0.396c0.255,0.396,0.34,0.652,0.34,0.822s-0.085,0.51-0.198,0.766
	c-0.228,0.51-0.736,1.531-1.275,2.154c-0.113,0.086-0.17,0.199-0.283,0.199c-0.057,0-0.113-0.086-0.113-0.17
	c0-0.086,0.085-0.199,0.113-0.285c0.34-0.566,0.482-1.02,0.482-1.389c0-0.906-0.682-1.162-0.682-1.389
	C881.046,201.303,881.755,200.764,882.236,200.764z M667.853,206.944c0-2.58,0-3.061-0.057-3.6c-0.029-0.566-0.17-0.852-0.709-0.965
	c-0.142-0.027-0.426-0.057-0.68-0.057c-0.171,0-0.284-0.027-0.284-0.141c0-0.114,0.142-0.17,0.368-0.17
	c0.908,0,1.983,0.057,2.41,0.057c0.425,0,1.474-0.057,2.153-0.057c0.228,0,0.341,0.057,0.341,0.17c0,0.113-0.086,0.141-0.313,0.141
	c-0.171,0-0.284,0.029-0.481,0.057c-0.453,0.086-0.596,0.369-0.624,0.965c-0.027,0.539-0.027,1.02-0.027,3.6v3.117
	c0,0.738,0.027,1.531,0.027,2.383c0,0.963-0.058,2.041-0.396,3.004c-0.34,1.021-1.247,2.211-2.863,3.203
	c-0.227,0.143-0.51,0.256-0.85,0.426c-0.113,0.084-0.256,0.113-0.34,0.113c-0.086,0-0.144-0.057-0.144-0.143
	c0-0.084,0.086-0.141,0.369-0.311c0.228-0.113,0.481-0.285,0.822-0.625c1.274-1.303,1.274-3.004,1.274-6.32v-4.847H667.853z
	 M679.36,210.403c-0.084,0-0.113,0.027-0.142,0.141l-0.936,2.41c-0.17,0.426-0.256,0.822-0.256,1.049c0,0.283,0.17,0.51,0.681,0.51
	h0.255c0.199,0,0.256,0.029,0.256,0.143c0,0.141-0.086,0.17-0.284,0.17c-0.537,0-1.274-0.057-1.785-0.057
	c-0.197,0-1.134,0.057-2.013,0.057c-0.227,0-0.313-0.029-0.313-0.17c0-0.113,0.057-0.143,0.199-0.143
	c0.141,0,0.396-0.027,0.538-0.027c0.766-0.113,1.076-0.682,1.416-1.531l4.253-10.631c0.198-0.48,0.313-0.68,0.481-0.68
	c0.143,0,0.255,0.17,0.425,0.539c0.397,0.936,3.118,7.852,4.195,10.432c0.652,1.502,1.134,1.758,1.474,1.842
	c0.256,0.029,0.512,0.057,0.738,0.057c0.113,0,0.197,0.029,0.197,0.143c0,0.141-0.142,0.17-0.766,0.17s-1.843,0-3.203-0.029
	c-0.312-0.027-0.511-0.027-0.511-0.141c0-0.114,0.086-0.143,0.256-0.17c0.113-0.029,0.228-0.172,0.142-0.369l-1.359-3.6
	c-0.029-0.086-0.086-0.113-0.171-0.113h-3.769V210.403z M682.819,209.551c0.085,0,0.085-0.057,0.085-0.084l-1.53-4.195
	c-0.029-0.057-0.029-0.143-0.086-0.143s-0.084,0.086-0.113,0.143l-1.559,4.166c0,0.057,0,0.113,0.085,0.113H682.819z
	 M695.688,202.096c0.027-0.283,0.142-0.453,0.282-0.453c0.113,0,0.228,0.086,0.453,0.539l4.621,9.553l4.592-9.666
	c0.144-0.283,0.228-0.426,0.369-0.426c0.17,0,0.255,0.17,0.313,0.539l1.529,10.459c0.17,1.078,0.342,1.559,0.853,1.701
	c0.48,0.17,0.82,0.17,1.049,0.17c0.141,0,0.254,0.029,0.254,0.113c0,0.143-0.197,0.199-0.425,0.199c-0.425,0-2.778-0.057-3.43-0.113
	c-0.397-0.029-0.512-0.086-0.512-0.17c0-0.086,0.086-0.143,0.199-0.199c0.084-0.029,0.143-0.256,0.084-0.709l-1.02-7.455h-0.058
	l-3.714,7.682c-0.368,0.795-0.454,0.936-0.624,0.936c-0.141,0-0.311-0.34-0.595-0.822c-0.397-0.793-1.729-3.373-1.928-3.854
	c-0.17-0.369-1.162-2.496-1.758-3.771h-0.086l-0.879,6.746c-0.026,0.313-0.057,0.539-0.057,0.795c0,0.34,0.228,0.482,0.511,0.539
	c0.313,0.084,0.538,0.084,0.708,0.084c0.144,0,0.256,0.057,0.256,0.143c0,0.141-0.142,0.17-0.396,0.17
	c-0.709,0-1.476-0.057-1.786-0.057c-0.312,0-1.134,0.057-1.673,0.057c-0.17,0-0.313-0.029-0.313-0.17
	c0-0.086,0.113-0.143,0.284-0.143c0.141,0,0.254,0,0.51-0.027c0.481-0.113,0.597-0.766,0.681-1.361L695.688,202.096z
	 M716.863,206.944c0-2.58,0-3.061-0.028-3.6c-0.028-0.566-0.17-0.852-0.736-0.965c-0.143-0.027-0.426-0.057-0.651-0.057
	c-0.199,0-0.283-0.027-0.283-0.141c0-0.114,0.113-0.17,0.368-0.17c0.453,0,0.935,0.027,1.359,0.027
	c0.453,0.029,0.822,0.029,1.077,0.029c0.538,0,3.912,0,4.225,0c0.34-0.057,0.596-0.086,0.736-0.113c0.085,0,0.17-0.057,0.255-0.057
	s0.113,0.057,0.113,0.141c0,0.113-0.085,0.313-0.142,1.105c0,0.17-0.058,0.908-0.085,1.105c0,0.086-0.058,0.199-0.17,0.199
	c-0.113,0-0.144-0.086-0.144-0.227c0-0.143-0.027-0.426-0.113-0.625c-0.112-0.311-0.282-0.51-1.133-0.623
	c-0.284-0.027-2.069-0.057-2.382-0.057c-0.085,0-0.142,0.057-0.142,0.17v4.281c0,0.113,0.027,0.197,0.142,0.197
	c0.368,0,2.296,0,2.692-0.027c0.396-0.057,0.651-0.086,0.821-0.256c0.113-0.141,0.17-0.227,0.256-0.227s0.113,0.029,0.113,0.143
	c0,0.084-0.057,0.367-0.113,1.219c-0.028,0.34-0.086,1.02-0.086,1.133c0,0.143,0,0.313-0.141,0.313c-0.113,0-0.17-0.057-0.17-0.143
	c0-0.17,0-0.396-0.057-0.594c-0.086-0.342-0.313-0.596-0.937-0.682c-0.341-0.027-2.014-0.027-2.41-0.027
	c-0.085,0-0.112,0.057-0.112,0.17v1.332c0,0.566,0,2.125,0,2.607c0.057,1.191,0.313,1.418,2.041,1.418c0.426,0,1.162,0,1.588-0.199
	c0.453-0.197,0.65-0.539,0.765-1.246c0.028-0.17,0.058-0.256,0.198-0.256c0.113,0,0.113,0.143,0.113,0.313
	c0,0.396-0.113,1.529-0.197,1.871c-0.144,0.453-0.284,0.453-0.937,0.453c-1.247,0-2.184-0.057-2.92-0.057
	c-0.736-0.029-1.248-0.057-1.758-0.057c-0.198,0-0.565,0-0.964,0.027c-0.396,0-0.821,0.029-1.162,0.029
	c-0.227,0-0.341-0.057-0.341-0.17c0-0.086,0.057-0.143,0.256-0.143c0.255,0,0.453-0.027,0.623-0.057
	c0.341-0.084,0.426-0.453,0.482-0.936c0.085-0.709,0.085-2.041,0.085-3.6v-2.97H716.863z M730.611,214.625
	c-0.255-0.141-0.313-0.197-0.313-0.596c0-0.906,0.085-1.928,0.085-2.211c0.028-0.254,0.058-0.424,0.198-0.424
	c0.17,0,0.17,0.141,0.17,0.283c0,0.227,0.085,0.566,0.17,0.85c0.369,1.248,1.361,1.729,2.41,1.729c1.53,0,2.268-1.049,2.268-1.926
	c0-0.852-0.256-1.617-1.645-2.723l-0.793-0.623c-1.871-1.445-2.495-2.637-2.495-3.996c0-1.871,1.56-3.203,3.912-3.203
	c1.104,0,1.813,0.17,2.239,0.283c0.142,0.027,0.227,0.084,0.227,0.197c0,0.227-0.057,0.709-0.057,2.041
	c0,0.369-0.058,0.512-0.17,0.512c-0.144,0-0.171-0.115-0.171-0.313c0-0.143-0.086-0.68-0.452-1.105
	c-0.257-0.34-0.738-0.852-1.845-0.852c-1.246,0-2.012,0.738-2.012,1.758c0,0.766,0.396,1.361,1.785,2.438l0.481,0.369
	c2.041,1.531,2.777,2.693,2.777,4.309c0,0.965-0.368,2.154-1.587,2.949c-0.851,0.537-1.814,0.68-2.692,0.68
	C732.114,215.051,731.349,214.938,730.611,214.625z M754.31,213.18c-1.645-1.475-2.098-3.373-2.098-5.018
	c0-1.133,0.368-3.146,1.984-4.621c1.219-1.133,2.834-1.785,5.356-1.785c1.049,0,1.672,0.057,2.438,0.17
	c0.65,0.086,1.189,0.227,1.7,0.283c0.171,0,0.255,0.086,0.255,0.199c0,0.141-0.058,0.34-0.084,0.936
	c-0.058,0.539-0.029,1.475-0.058,1.814c-0.028,0.254-0.057,0.396-0.198,0.396c-0.143,0-0.17-0.143-0.17-0.369
	c-0.028-0.539-0.256-1.133-0.652-1.559c-0.566-0.596-1.898-1.049-3.458-1.049c-1.474,0-2.438,0.369-3.175,1.049
	c-1.247,1.133-1.56,2.721-1.56,4.365c0,4.053,3.062,6.037,5.328,6.037c1.503,0,2.438-0.17,3.119-0.936
	c0.283-0.34,0.481-0.82,0.566-1.133c0.057-0.256,0.085-0.34,0.227-0.34c0.113,0,0.143,0.141,0.143,0.254
	c0,0.199-0.198,1.674-0.368,2.268c-0.086,0.285-0.17,0.369-0.453,0.482c-0.682,0.256-1.956,0.396-3.033,0.396
	C757.796,215.022,755.84,214.512,754.31,213.18z M773.442,210.6c-0.084,0-0.113,0.029-0.142,0.113l-0.908,2.438
	c-0.17,0.426-0.255,0.822-0.255,1.021c0,0.313,0.143,0.539,0.682,0.539h0.227c0.228,0,0.256,0.027,0.256,0.141
	c0,0.114-0.086,0.17-0.284,0.17c-0.538,0-1.274-0.057-1.785-0.057c-0.198,0-1.105,0.057-2.013,0.057
	c-0.199,0-0.313-0.057-0.313-0.17s0.057-0.141,0.199-0.141c0.17,0,0.396-0.029,0.537-0.029c0.766-0.113,1.105-0.68,1.445-1.531
	l4.225-10.629c0.227-0.51,0.313-0.68,0.481-0.68s0.255,0.141,0.425,0.537c0.397,0.936,3.118,7.824,4.195,10.404
	c0.652,1.529,1.134,1.758,1.502,1.842c0.256,0.057,0.511,0.086,0.709,0.086c0.143,0,0.227,0,0.227,0.141
	c0,0.113-0.17,0.17-0.793,0.17c-0.596,0-1.843,0-3.203-0.057c-0.312,0-0.511,0-0.511-0.141c0-0.086,0.085-0.113,0.256-0.143
	c0.113-0.027,0.228-0.17,0.142-0.396l-1.36-3.572c-0.028-0.084-0.085-0.113-0.17-0.113H773.442L773.442,210.6z M776.901,209.75
	c0.085,0,0.112-0.057,0.085-0.113l-1.53-4.168c0-0.084-0.029-0.17-0.086-0.17s-0.085,0.086-0.085,0.17l-1.561,4.168
	c-0.026,0.057,0,0.113,0.059,0.113H776.901z M789.827,202.096c0.057-0.283,0.142-0.453,0.283-0.453c0.141,0,0.255,0.086,0.454,0.539
	l4.619,9.553l4.62-9.666c0.113-0.283,0.199-0.426,0.369-0.426c0.143,0,0.255,0.17,0.313,0.539l1.529,10.459
	c0.144,1.078,0.313,1.559,0.822,1.701c0.51,0.17,0.822,0.17,1.049,0.17c0.17,0,0.283,0.029,0.283,0.113
	c0,0.143-0.197,0.199-0.453,0.199c-0.426,0-2.75-0.057-3.43-0.113c-0.396-0.029-0.482-0.086-0.482-0.17
	c0-0.086,0.058-0.143,0.17-0.199c0.113-0.029,0.171-0.256,0.087-0.709l-0.992-7.455h-0.086l-3.686,7.682
	c-0.396,0.795-0.48,0.936-0.624,0.936c-0.17,0-0.312-0.34-0.595-0.822c-0.397-0.793-1.757-3.373-1.956-3.854
	c-0.142-0.369-1.162-2.496-1.758-3.771h-0.057l-0.88,6.746c-0.026,0.313-0.057,0.539-0.057,0.795c0,0.34,0.227,0.482,0.511,0.539
	c0.313,0.084,0.538,0.084,0.708,0.084c0.144,0,0.256,0.057,0.256,0.143c0,0.141-0.142,0.17-0.396,0.17
	c-0.737,0-1.475-0.057-1.786-0.057s-1.134,0.057-1.673,0.057c-0.17,0-0.313-0.029-0.313-0.17c0-0.086,0.113-0.143,0.283-0.143
	c0.114,0,0.229,0,0.481-0.027c0.481-0.113,0.625-0.766,0.709-1.361L789.827,202.096z M811.654,206.944c0-2.58,0-3.061-0.029-3.6
	c-0.027-0.566-0.17-0.852-0.708-0.965c-0.142-0.027-0.425-0.057-0.681-0.057c-0.17,0-0.283-0.027-0.283-0.141
	c0-0.114,0.112-0.17,0.369-0.17c0.453,0,0.963,0.027,1.389,0.027c0.425,0.029,0.822,0.029,1.049,0.029c0.538,0,3.912,0,4.252,0
	c0.313-0.057,0.595-0.086,0.709-0.113c0.084,0,0.197-0.057,0.283-0.057c0.084,0,0.084,0.057,0.084,0.141
	c0,0.113-0.084,0.313-0.113,1.105c-0.026,0.17-0.057,0.908-0.084,1.105c-0.028,0.086-0.057,0.199-0.17,0.199
	c-0.143,0-0.171-0.086-0.171-0.227c0-0.143,0-0.426-0.085-0.625c-0.113-0.311-0.283-0.51-1.134-0.623
	c-0.284-0.027-2.069-0.057-2.409-0.057c-0.086,0-0.113,0.057-0.113,0.17v4.281c0,0.113,0,0.197,0.113,0.197
	c0.368,0,2.324,0,2.692-0.027c0.425-0.057,0.681-0.086,0.822-0.256c0.112-0.141,0.197-0.227,0.283-0.227
	c0.058,0,0.113,0.029,0.113,0.143c0,0.084-0.057,0.367-0.143,1.219c0,0.34-0.058,1.02-0.058,1.133c0,0.143,0,0.313-0.17,0.313
	c-0.113,0-0.142-0.057-0.142-0.143c-0.028-0.17-0.028-0.396-0.058-0.594c-0.085-0.342-0.341-0.596-0.964-0.682
	c-0.313-0.027-1.983-0.027-2.41-0.027c-0.084,0-0.084,0.057-0.084,0.17v1.332c0,0.566-0.028,2.125,0,2.607
	c0.027,1.191,0.313,1.418,2.013,1.418c0.454,0,1.162,0,1.616-0.199c0.425-0.197,0.623-0.539,0.765-1.246
	c0.029-0.17,0.058-0.256,0.171-0.256c0.142,0,0.142,0.143,0.142,0.313c0,0.396-0.142,1.529-0.227,1.871
	c-0.113,0.453-0.256,0.453-0.907,0.453c-1.274,0-2.211-0.057-2.92-0.057c-0.736-0.029-1.274-0.057-1.786-0.057
	c-0.17,0-0.538,0-0.963,0.027c-0.369,0-0.822,0.029-1.162,0.029c-0.227,0-0.341-0.057-0.341-0.17c0-0.086,0.085-0.143,0.284-0.143
	c0.254,0,0.453-0.027,0.595-0.057c0.341-0.084,0.425-0.453,0.511-0.936c0.084-0.709,0.084-2.041,0.084-3.6v-2.977h-0.025V206.944z
	 M825.884,206.887c0-2.58,0-3.061-0.057-3.6c-0.028-0.566-0.17-0.852-0.708-0.965c-0.144-0.027-0.426-0.027-0.652-0.027
	c-0.199,0-0.313-0.057-0.313-0.17s0.143-0.143,0.396-0.143c0.879,0,1.957,0.057,2.297,0.057c0.597,0,1.871-0.057,2.409-0.057
	c1.049,0,2.183,0.086,3.09,0.738c0.481,0.311,1.162,1.162,1.162,2.295c0,1.275-0.511,2.41-2.239,3.799
	c1.502,1.898,2.693,3.402,3.687,4.449c0.936,0.992,1.644,1.107,1.897,1.164c0.17,0.027,0.341,0.057,0.454,0.057
	c0.143,0,0.228,0.027,0.228,0.113c0,0.141-0.143,0.17-0.341,0.17h-1.587c-0.965,0-1.39-0.086-1.813-0.313
	c-0.737-0.396-1.39-1.191-2.325-2.494c-0.681-0.936-1.474-2.07-1.673-2.324c-0.084-0.113-0.197-0.113-0.311-0.113l-1.476-0.057
	c-0.085,0-0.142,0.057-0.142,0.141v0.227c0,1.588,0,2.92,0.085,3.629c0.057,0.51,0.17,0.879,0.68,0.936
	c0.229,0.029,0.624,0.086,0.822,0.086c0.143,0,0.199,0.027,0.199,0.113c0,0.141-0.113,0.17-0.342,0.17
	c-0.99,0-2.238-0.029-2.493-0.029c-0.313,0-1.391,0.029-2.069,0.029c-0.199,0-0.313-0.029-0.313-0.17
	c0-0.086,0.057-0.113,0.256-0.113c0.255,0,0.453-0.057,0.623-0.086c0.313-0.057,0.426-0.426,0.481-0.936
	c0.085-0.709,0.085-2.041,0.085-3.6v-2.976H825.884z M827.868,208.219c0,0.199,0.027,0.256,0.17,0.313
	c0.341,0.113,0.851,0.17,1.275,0.17c0.681,0,0.906-0.057,1.189-0.283c0.511-0.369,1.021-1.162,1.021-2.553
	c0-2.408-1.616-3.088-2.608-3.088c-0.425,0-0.737,0.027-0.907,0.057c-0.112,0.057-0.142,0.113-0.142,0.254L827.868,208.219
	L827.868,208.219z M841.332,208.418c0-2.893,1.9-6.633,7.002-6.633c4.195,0,6.832,2.465,6.832,6.32c0,3.883-2.722,6.945-7.002,6.945
	C843.289,215.051,841.332,211.422,841.332,208.418z M852.785,208.729c0-3.77-2.185-6.123-4.961-6.123
	c-1.956,0-4.167,1.078-4.167,5.301c0,3.516,1.956,6.293,5.216,6.293C850.035,214.2,852.785,213.633,852.785,208.729z
	 M863.613,212.528c0.026,1.305,0.255,1.758,0.595,1.871c0.284,0.086,0.624,0.113,0.879,0.113c0.198,0,0.284,0.029,0.284,0.143
	c0,0.141-0.144,0.17-0.369,0.17c-1.104,0-1.786-0.057-2.098-0.057c-0.17,0-0.964,0.057-1.844,0.057c-0.227,0-0.367-0.029-0.367-0.17
	c0-0.113,0.085-0.143,0.255-0.143c0.228,0,0.538-0.027,0.766-0.084c0.453-0.143,0.511-0.625,0.538-2.098l0.143-10.008
	c0-0.34,0.058-0.594,0.228-0.594c0.198,0,0.34,0.227,0.623,0.537c0.199,0.227,2.777,2.977,5.244,5.443
	c1.162,1.133,3.43,3.572,3.742,3.855h0.057l-0.17-7.598c0-1.049-0.144-1.361-0.567-1.531c-0.255-0.113-0.65-0.113-0.878-0.113
	s-0.284-0.027-0.284-0.141c0-0.143,0.198-0.143,0.425-0.143c0.908,0,1.701,0.029,2.07,0.029c0.17,0,0.821-0.029,1.645-0.029
	c0.227,0,0.396,0,0.396,0.143c0,0.084-0.114,0.141-0.313,0.141c-0.17,0-0.283,0-0.511,0.057c-0.454,0.143-0.596,0.482-0.624,1.447
	l-0.17,10.686c0,0.369-0.085,0.51-0.228,0.51c-0.197,0-0.396-0.17-0.566-0.367c-1.077-1.021-3.23-3.232-5.018-4.99
	c-1.842-1.814-3.713-3.939-4.025-4.252h-0.026L863.613,212.528z M888.813,214.625c-0.283-0.141-0.341-0.197-0.341-0.596
	c0-0.906,0.085-1.928,0.085-2.211c0.028-0.254,0.085-0.424,0.229-0.424c0.141,0,0.141,0.141,0.141,0.283
	c0,0.227,0.086,0.566,0.17,0.85c0.369,1.248,1.361,1.729,2.41,1.729c1.531,0,2.269-1.049,2.269-1.926
	c0-0.852-0.256-1.617-1.646-2.723l-0.793-0.623c-1.871-1.445-2.494-2.637-2.494-3.996c0-1.871,1.56-3.203,3.911-3.203
	c1.104,0,1.814,0.17,2.239,0.283c0.17,0.027,0.256,0.084,0.256,0.197c0,0.227-0.086,0.709-0.086,2.041
	c0,0.369-0.058,0.512-0.17,0.512c-0.143,0-0.17-0.115-0.17-0.313c0-0.143-0.085-0.68-0.453-1.105
	c-0.256-0.34-0.737-0.852-1.843-0.852c-1.247,0-2.014,0.738-2.014,1.758c0,0.766,0.396,1.361,1.785,2.438l0.482,0.369
	c2.041,1.531,2.777,2.693,2.777,4.309c0,0.965-0.368,2.154-1.587,2.949c-0.852,0.537-1.787,0.68-2.692,0.68
	C890.287,215.051,889.521,214.938,888.813,214.625z"/>
</svg>
